<?xml version="1.0" encoding="UTF-8" standalone="no"?>
<!DOCTYPE svg PUBLIC "-//W3C//DTD SVG 1.1//EN" "http://www.w3.org/Graphics/SVG/1.1/DTD/svg11.dtd">
<svg width="100%" height="100%" viewBox="0 0 220 57" version="1.1" xmlns="http://www.w3.org/2000/svg" xmlns:xlink="http://www.w3.org/1999/xlink" xml:space="preserve" xmlns:serif="http://www.serif.com/" style="fill-rule:evenodd;clip-rule:evenodd;stroke-linejoin:round;stroke-miterlimit:2;">
    <g id="_215a575c-81df-4a66-90a6-ad021766f05f" serif:id="215a575c-81df-4a66-90a6-ad021766f05f" transform="matrix(3.86246,0,0,3.86246,105.98,-4.45183)">
        <path d="M7.42,3.82L7.42,7.73L2.65,7.73L2.65,3.82L1.17,3.82L1.17,13.15L2.65,13.15L2.65,8.94L7.42,8.94L7.42,13.15L8.91,13.15L8.91,3.82L7.42,3.82ZM15.63,13.34C18.61,13.34 20.58,11.17 20.58,8.46C20.58,5.75 18.61,3.59 15.63,3.59C12.66,3.59 10.69,5.75 10.69,8.46C10.69,11.17 12.66,13.34 15.63,13.34ZM15.63,12.02C13.55,12.02 12.24,10.37 12.24,8.46C12.24,6.53 13.55,4.91 15.63,4.91C17.72,4.91 19.03,6.53 19.03,8.46C19.03,10.37 17.72,12.02 15.63,12.02ZM26.53,3.82L22.36,3.82L22.36,13.15L23.84,13.15L23.84,9.45L26.53,9.44C28.01,9.44 29.52,8.44 29.52,6.64C29.52,4.81 28.01,3.82 26.53,3.82ZM25.97,8.3L23.84,8.27L23.84,5L25.97,4.97C27.29,4.97 27.97,5.59 27.97,6.64C27.97,7.7 27.29,8.31 25.97,8.3Z" style="fill:rgb(4,31,87);fill-rule:nonzero;"/>
    </g>
    <g id="_7da1faa8-d763-4eb1-816d-df422ee2493c" serif:id="7da1faa8-d763-4eb1-816d-df422ee2493c" transform="matrix(1.02632,0,0,1.02632,-2.56579,-23.0925)">
        <path d="M50.209,67.939C37.171,67.939 26.563,59.858 26.561,49.927C26.562,39.997 37.17,31.916 50.207,31.914C63.246,31.916 73.853,39.997 73.853,49.927C73.854,59.856 63.246,67.937 50.209,67.939ZM50.207,34.128C38.391,34.13 28.776,41.218 28.774,49.927C28.776,58.639 38.39,65.725 50.209,65.725C62.025,65.723 71.641,58.637 71.641,49.927C71.641,41.218 62.025,34.13 50.207,34.128Z" style="fill:url(#_Linear1);fill-rule:nonzero;"/>
        <path d="M78.545,60.352C78.544,60.352 78.543,60.352 78.542,60.352C77.936,60.352 77.437,59.853 77.437,59.247C77.437,58.942 77.563,58.65 77.786,58.441C80.01,56.34 81.518,53.865 82.271,51.084C83.648,45.973 82.269,40.424 78.384,35.46C74.426,30.402 68.366,26.571 61.324,24.672C60.843,24.544 60.505,24.104 60.505,23.606C60.505,23.509 60.518,23.411 60.544,23.317C60.703,22.733 61.313,22.382 61.898,22.537C69.402,24.558 75.876,28.663 80.126,34.095C84.451,39.622 85.971,45.862 84.406,51.662C83.546,54.846 81.829,57.669 79.302,60.051C79.097,60.244 78.826,60.352 78.545,60.352ZM36.262,77.502C36.165,77.502 36.07,77.489 35.973,77.463C28.47,75.442 21.997,71.337 17.746,65.905C13.422,60.378 11.902,54.141 13.466,48.341C14.324,45.156 16.042,42.333 18.57,39.949C18.775,39.755 19.047,39.647 19.33,39.647C19.937,39.647 20.436,40.146 20.436,40.753C20.436,41.057 20.311,41.348 20.09,41.557C17.863,43.658 16.355,46.133 15.605,48.915C14.226,54.025 15.606,59.574 19.49,64.54C23.447,69.596 29.507,73.427 36.549,75.326C36.549,75.326 36.549,75.326 36.55,75.326C37.157,75.326 37.657,75.826 37.657,76.433C37.657,77.04 37.157,77.54 36.55,77.54C36.452,77.54 36.356,77.527 36.262,77.502ZM50.207,60.425C42.694,60.425 36.58,55.717 36.578,49.927C36.578,44.139 42.692,39.431 50.207,39.431C57.722,39.431 63.835,44.139 63.835,49.927C63.835,55.717 57.722,60.425 50.207,60.425ZM50.207,41.644C43.913,41.644 38.792,45.36 38.792,49.927C38.794,54.496 43.915,58.212 50.207,58.212C56.501,58.212 61.621,54.496 61.621,49.927C61.621,45.36 56.501,41.644 50.207,41.644Z" style="fill:url(#_Linear2);fill-rule:nonzero;"/>
        <path d="M67.695,40.369C67.399,40.369 67.105,40.253 66.886,40.019C60.491,33.186 50.006,29.107 38.835,29.105C27.697,29.105 17.228,33.168 10.828,39.973C10.619,40.195 10.327,40.321 10.022,40.321C9.415,40.321 8.915,39.822 8.915,39.215C8.915,38.933 9.023,38.661 9.216,38.456C16.026,31.215 27.099,26.892 38.836,26.892C50.608,26.894 61.699,31.237 68.504,38.506C68.695,38.711 68.801,38.981 68.801,39.261C68.801,39.868 68.302,40.368 67.695,40.369ZM3.607,54.546C3.607,54.546 3.606,54.546 3.606,54.546C2.999,54.546 2.5,54.047 2.5,53.44C2.5,53.44 2.5,53.439 2.5,53.439C2.5,50.036 3.32,46.943 5.009,43.985C5.212,43.663 5.566,43.467 5.947,43.467C6.555,43.467 7.055,43.967 7.055,44.575C7.055,44.752 7.012,44.927 6.931,45.084C5.44,47.697 4.714,50.43 4.714,53.439C4.714,54.046 4.214,54.546 3.607,54.546ZM61.163,72.55C49.392,72.548 38.301,68.205 31.496,60.936C31.304,60.731 31.197,60.46 31.197,60.179C31.197,59.572 31.697,59.072 32.304,59.072C32.611,59.072 32.904,59.199 33.113,59.423C39.506,66.256 49.992,70.335 61.163,70.337C72.304,70.337 82.772,66.274 89.171,59.469C89.38,59.247 89.672,59.12 89.977,59.12C90.585,59.12 91.085,59.62 91.085,60.228C91.085,60.509 90.977,60.781 90.784,60.986C83.977,68.227 72.902,72.55 61.163,72.55ZM94.033,56.011C93.425,56.009 92.926,55.509 92.926,54.901C92.926,54.71 92.976,54.522 93.07,54.355C94.582,51.705 95.286,49.05 95.286,46.002C95.286,45.395 95.785,44.896 96.393,44.896C97,44.896 97.499,45.395 97.499,46.002C97.499,49.404 96.68,52.496 94.994,55.453C94.797,55.797 94.43,56.01 94.033,56.011Z" style="fill:url(#_Linear3);fill-rule:nonzero;"/>
    </g>
    <defs>
        <linearGradient id="_Linear1" x1="0" y1="0" x2="1" y2="0" gradientUnits="userSpaceOnUse" gradientTransform="matrix(42.8611,15.2248,-15.2248,42.8611,26.561,31.914)"><stop offset="0" style="stop-color:rgb(0,21,214);stop-opacity:1"/><stop offset="1" style="stop-color:rgb(9,137,251);stop-opacity:1"/></linearGradient>
        <linearGradient id="_Linear2" x1="0" y1="0" x2="1" y2="0" gradientUnits="userSpaceOnUse" gradientTransform="matrix(65.3807,23.2608,-23.2608,65.3807,12.8665,22.5003)"><stop offset="0" style="stop-color:rgb(0,21,214);stop-opacity:1"/><stop offset="1" style="stop-color:rgb(9,137,251);stop-opacity:1"/></linearGradient>
        <linearGradient id="_Linear3" x1="0" y1="0" x2="1" y2="0" gradientUnits="userSpaceOnUse" gradientTransform="matrix(86.0983,19.2959,-19.2959,86.0983,2.5,26.892)"><stop offset="0" style="stop-color:rgb(0,21,214);stop-opacity:1"/><stop offset="1" style="stop-color:rgb(9,137,251);stop-opacity:1"/></linearGradient>
    </defs>
</svg>
