ply
format ascii 1.0
comment Created by Blender 3.0.1 - www.blender.org
element vertex 358
property float x
property float y
property float z
property float nx
property float ny
property float nz
property float u
property float v
element face 120
property list uchar uint vertex_indices
end_header
0.024985 0.263373 -0.626209 -0.207372 0.977983 -0.023377 0.984375 0.015625
0.018000 0.261684 -0.634900 -0.207372 0.977983 -0.023377 0.500000 0.140625
0.012543 0.260680 -0.628498 -0.207372 0.977983 -0.023377 0.500000 0.140625
0.025965 0.262131 -0.637748 -0.096462 0.988716 -0.114607 0.500000 0.140625
0.018000 0.261684 -0.634900 -0.096462 0.988716 -0.114607 0.500000 0.140625
0.024985 0.263373 -0.626209 -0.096462 0.988716 -0.114607 0.984375 0.015625
0.031437 0.261823 -0.635781 0.091369 0.990895 -0.098885 0.984375 0.140625
0.025965 0.262131 -0.637748 0.091369 0.990895 -0.098885 0.500000 0.140625
0.024985 0.263373 -0.626209 0.091369 0.990895 -0.098885 0.984375 0.015625
0.026684 0.255266 -0.647127 0.245962 0.791024 -0.560164 0.156250 0.500000
0.025965 0.262131 -0.637748 0.245962 0.791024 -0.560164 0.500000 0.140625
0.031437 0.261823 -0.635781 0.245962 0.791024 -0.560164 0.984375 0.140625
0.036161 0.254732 -0.643721 0.245858 0.791069 -0.560146 0.984375 0.500000
0.026684 0.255266 -0.647127 0.245858 0.791069 -0.560146 0.156250 0.500000
0.031437 0.261823 -0.635781 0.245858 0.791069 -0.560146 0.984375 0.140625
0.026946 0.244617 -0.651839 0.330940 0.388590 -0.859928 0.031250 0.984375
0.026684 0.255266 -0.647127 0.330940 0.388590 -0.859928 0.156250 0.500000
0.036161 0.254732 -0.643721 0.330940 0.388590 -0.859928 0.984375 0.500000
0.037891 0.244000 -0.647903 0.331067 0.388477 -0.859930 0.984375 0.984375
0.026946 0.244617 -0.651839 0.331067 0.388477 -0.859930 0.031250 0.984375
0.036161 0.254732 -0.643721 0.331067 0.388477 -0.859930 0.984375 0.500000
0.026684 0.233038 -0.650615 0.331092 -0.106602 -0.937558 0.156250 0.500000
0.026946 0.244617 -0.651839 0.331092 -0.106602 -0.937558 0.031250 0.984375
0.037891 0.244000 -0.647903 0.331092 -0.106602 -0.937558 0.984375 0.984375
0.036162 0.232504 -0.647207 0.331087 -0.106596 -0.937560 0.984375 0.500000
0.026684 0.233038 -0.650615 0.331087 -0.106596 -0.937560 0.156250 0.500000
0.037891 0.244000 -0.647903 0.331087 -0.106596 -0.937560 0.984375 0.984375
0.025967 0.223630 -0.643785 0.246005 -0.581651 -0.775348 0.500000 0.140625
0.026684 0.233038 -0.650615 0.246005 -0.581651 -0.775348 0.156250 0.500000
0.036162 0.232504 -0.647207 0.246005 -0.581651 -0.775348 0.984375 0.500000
0.031439 0.223322 -0.641817 0.246009 -0.581654 -0.775344 0.984375 0.140625
0.025967 0.223630 -0.643785 0.246009 -0.581654 -0.775344 0.500000 0.140625
0.036162 0.232504 -0.647207 0.246009 -0.581654 -0.775344 0.984375 0.500000
-0.000013 0.263452 -0.633180 -0.326123 -0.436124 0.838713 0.984375 0.015625
0.025967 0.223630 -0.643785 -0.326123 -0.436124 0.838713 0.500000 0.140625
0.031439 0.223322 -0.641817 -0.326123 -0.436124 0.838713 0.984375 0.140625
0.035182 0.222631 -0.637410 -0.649806 -0.607596 0.456704 0.500000 0.140625
-0.000013 0.263452 -0.633180 -0.649806 -0.607596 0.456704 0.984375 0.015625
0.031439 0.223322 -0.641817 -0.649806 -0.607596 0.456704 0.984375 0.140625
0.035198 0.221319 -0.629042 -0.758675 -0.643821 -0.099531 0.500000 0.140625
-0.000013 0.263452 -0.633180 -0.758675 -0.643821 -0.099531 0.984375 0.015625
0.035182 0.222631 -0.637410 -0.758675 -0.643821 -0.099531 0.500000 0.140625
0.042646 0.231307 -0.639573 0.740714 -0.663497 -0.105423 0.156250 0.500000
0.035198 0.221319 -0.629042 0.740714 -0.663497 -0.105423 0.500000 0.140625
0.035182 0.222631 -0.637410 0.740714 -0.663497 -0.105423 0.500000 0.140625
0.042673 0.229034 -0.625078 0.740717 -0.663495 -0.105420 0.156250 0.500000
0.035198 0.221319 -0.629042 0.740717 -0.663495 -0.105420 0.500000 0.140625
0.042646 0.231307 -0.639573 0.740717 -0.663495 -0.105420 0.156250 0.500000
0.045377 0.242619 -0.639089 0.971720 -0.233000 -0.038351 0.031250 0.984375
0.042673 0.229034 -0.625078 0.971720 -0.233000 -0.038351 0.156250 0.500000
0.042646 0.231307 -0.639573 0.971720 -0.233000 -0.038351 0.156250 0.500000
0.045409 0.239994 -0.622352 0.971720 -0.232999 -0.038351 0.031250 0.984375
0.042673 0.229034 -0.625078 0.971720 -0.232999 -0.038351 0.156250 0.500000
0.045377 0.242619 -0.639089 0.971720 -0.232999 -0.038351 0.031250 0.984375
0.042645 0.253535 -0.636088 0.971698 0.233648 0.034818 0.156250 0.500000
0.045409 0.239994 -0.622352 0.971698 0.233648 0.034818 0.031250 0.984375
0.045377 0.242619 -0.639089 0.971698 0.233648 0.034818 0.031250 0.984375
0.042672 0.251263 -0.621593 0.971698 0.233648 0.034818 0.156250 0.500000
0.035181 0.261132 -0.631374 0.740650 0.663991 0.102728 0.500000 0.140625
0.042672 0.251263 -0.621593 0.740650 0.663991 0.102728 0.156250 0.500000
0.042645 0.253535 -0.636088 0.740650 0.663991 0.102728 0.156250 0.500000
0.035196 0.259820 -0.623005 0.740653 0.663989 0.102724 0.500000 0.140625
0.042672 0.251263 -0.621593 0.740653 0.663989 0.102724 0.156250 0.500000
0.035181 0.261132 -0.631374 0.740653 0.663989 0.102724 0.500000 0.140625
0.024985 0.263373 -0.626209 0.283248 0.947552 0.148041 0.984375 0.015625
0.035196 0.259820 -0.623005 0.283248 0.947552 0.148041 0.500000 0.140625
0.035181 0.261132 -0.631374 0.283248 0.947552 0.148041 0.500000 0.140625
0.030974 0.258682 -0.615749 0.234936 0.930032 0.282568 0.500000 0.140625
0.035196 0.259820 -0.623005 0.234936 0.930032 0.282568 0.500000 0.140625
0.024985 0.263373 -0.626209 0.234936 0.930032 0.282568 0.984375 0.015625
-0.035636 0.227033 -0.612340 -0.616619 -0.749356 0.241343 0.156250 0.500000
-0.035225 0.221316 -0.629042 -0.616619 -0.749356 0.241343 0.500000 0.140625
-0.031003 0.220178 -0.621787 -0.616619 -0.749356 0.241343 0.500000 0.140625
-0.042700 0.229030 -0.625079 -0.634280 -0.736084 0.236364 0.156250 0.500000
-0.035225 0.221316 -0.629042 -0.634280 -0.736084 0.236364 0.500000 0.140625
-0.035636 0.227033 -0.612340 -0.634280 -0.736084 0.236364 0.156250 0.500000
-0.036910 0.237724 -0.607899 -0.857216 -0.281377 0.431287 0.031250 0.984375
-0.042700 0.229030 -0.625079 -0.857216 -0.281377 0.431287 0.156250 0.500000
-0.035636 0.227033 -0.612340 -0.857216 -0.281377 0.431287 0.156250 0.500000
-0.045437 0.239990 -0.622352 -0.837231 -0.319469 0.443828 0.031250 0.984375
-0.042700 0.229030 -0.625079 -0.837231 -0.319469 0.443828 0.156250 0.500000
-0.036910 0.237724 -0.607899 -0.837231 -0.319469 0.443828 0.031250 0.984375
-0.035637 0.249262 -0.608855 -0.843784 0.136160 0.519123 0.156250 0.500000
-0.045437 0.239990 -0.622352 -0.843784 0.136160 0.519123 0.031250 0.984375
-0.036910 0.237724 -0.607899 -0.843784 0.136160 0.519123 0.031250 0.984375
-0.042702 0.251259 -0.621593 -0.849644 0.172704 0.498275 0.156250 0.500000
-0.045437 0.239990 -0.622352 -0.849644 0.172704 0.498275 0.031250 0.984375
-0.035637 0.249262 -0.608855 -0.849644 0.172704 0.498275 0.156250 0.500000
-0.031005 0.258679 -0.615750 -0.627693 0.636684 0.447923 0.500000 0.140625
-0.042702 0.251259 -0.621593 -0.627693 0.636684 0.447923 0.156250 0.500000
-0.035637 0.249262 -0.608855 -0.627693 0.636684 0.447923 0.156250 0.500000
-0.035227 0.259817 -0.623005 -0.628087 0.625056 0.463478 0.500000 0.140625
-0.042702 0.251259 -0.621593 -0.628087 0.625056 0.463478 0.156250 0.500000
-0.031005 0.258679 -0.615750 -0.628087 0.625056 0.463478 0.500000 0.140625
-0.025015 0.263371 -0.626210 -0.235030 0.930010 0.282563 0.984375 0.015625
-0.035227 0.259817 -0.623005 -0.235030 0.930010 0.282563 0.500000 0.140625
-0.031005 0.258679 -0.615750 -0.235030 0.930010 0.282563 0.500000 0.140625
-0.035211 0.261129 -0.631374 -0.283341 0.947525 0.148037 0.500000 0.140625
-0.035227 0.259817 -0.623005 -0.283341 0.947525 0.148037 0.500000 0.140625
-0.025015 0.263371 -0.626210 -0.283341 0.947525 0.148037 0.984375 0.015625
-0.031468 0.261820 -0.635781 -0.204810 0.978587 -0.020485 0.984375 0.140625
-0.035211 0.261129 -0.631374 -0.204810 0.978587 -0.020485 0.500000 0.140625
-0.025015 0.263371 -0.626210 -0.204810 0.978587 -0.020485 0.984375 0.015625
-0.036191 0.254729 -0.643722 -0.550994 0.757958 -0.349149 0.984375 0.500000
-0.035211 0.261129 -0.631374 -0.550994 0.757958 -0.349149 0.500000 0.140625
-0.031468 0.261820 -0.635781 -0.550994 0.757958 -0.349149 0.984375 0.140625
-0.026714 0.255263 -0.647128 -0.245928 0.791046 -0.560149 0.156250 0.500000
-0.036191 0.254729 -0.643722 -0.245928 0.791046 -0.560149 0.984375 0.500000
-0.031468 0.261820 -0.635781 -0.245928 0.791046 -0.560149 0.984375 0.140625
-0.026974 0.244614 -0.651839 -0.330967 0.388554 -0.859934 0.031250 0.984375
-0.036191 0.254729 -0.643722 -0.330967 0.388554 -0.859934 0.984375 0.500000
-0.026714 0.255263 -0.647128 -0.330967 0.388554 -0.859934 0.156250 0.500000
-0.011044 0.243722 -0.646142 0.330698 0.375044 -0.866014 0.031250 0.984375
-0.026974 0.244614 -0.651839 0.330698 0.375044 -0.866014 0.031250 0.984375
-0.026714 0.255263 -0.647128 0.330698 0.375044 -0.866014 0.156250 0.500000
-0.012915 0.232262 -0.645681 0.330736 -0.091765 -0.939251 0.156250 0.500000
-0.026974 0.244614 -0.651839 0.330736 -0.091765 -0.939251 0.031250 0.984375
-0.011044 0.243722 -0.646142 0.330736 -0.091765 -0.939251 0.031250 0.984375
-0.000213 0.241706 -0.633282 0.744939 -0.147789 -0.650557 0.031250 1.000000
-0.012915 0.232262 -0.645681 0.744939 -0.147789 -0.650557 0.156250 0.500000
-0.011044 0.243722 -0.646142 0.744939 -0.147789 -0.650557 0.031250 0.984375
-0.035225 0.221316 -0.629042 0.652810 -0.591954 -0.472684 0.500000 0.140625
-0.000013 0.263452 -0.633180 0.652810 -0.591954 -0.472684 0.984375 0.015625
-0.031003 0.220178 -0.621787 0.652810 -0.591954 -0.472684 0.500000 0.140625
-0.035209 0.222628 -0.637411 0.758699 -0.643794 -0.099526 0.500000 0.140625
-0.000013 0.263452 -0.633180 0.758699 -0.643794 -0.099526 0.984375 0.015625
-0.035225 0.221316 -0.629042 0.758699 -0.643794 -0.099526 0.500000 0.140625
-0.042673 0.231303 -0.639574 -0.740651 -0.663566 -0.105433 0.156250 0.500000
-0.035209 0.222628 -0.637411 -0.740651 -0.663566 -0.105433 0.500000 0.140625
-0.035225 0.221316 -0.629042 -0.740651 -0.663566 -0.105433 0.500000 0.140625
-0.031466 0.223319 -0.641818 -0.550935 -0.614761 -0.564394 0.984375 0.140625
-0.035209 0.222628 -0.637411 -0.550935 -0.614761 -0.564394 0.500000 0.140625
-0.042673 0.231303 -0.639574 -0.550935 -0.614761 -0.564394 0.156250 0.500000
-0.036190 0.232500 -0.647207 -0.550937 -0.614766 -0.564387 0.984375 0.500000
-0.031466 0.223319 -0.641818 -0.550937 -0.614766 -0.564387 0.984375 0.140625
-0.042673 0.231303 -0.639574 -0.550937 -0.614766 -0.564387 0.156250 0.500000
-0.025993 0.223628 -0.643785 -0.245940 -0.581672 -0.775352 0.500000 0.140625
-0.031466 0.223319 -0.641818 -0.245940 -0.581672 -0.775352 0.984375 0.140625
-0.036190 0.232500 -0.647207 -0.245940 -0.581672 -0.775352 0.984375 0.500000
-0.026711 0.233035 -0.650615 -0.245944 -0.581675 -0.775349 0.156250 0.500000
-0.025993 0.223628 -0.643785 -0.245944 -0.581675 -0.775349 0.500000 0.140625
-0.036190 0.232500 -0.647207 -0.245944 -0.581675 -0.775349 0.984375 0.500000
-0.018028 0.223182 -0.640937 0.252119 -0.555848 -0.792129 0.500000 0.140625
-0.025993 0.223628 -0.643785 0.252119 -0.555848 -0.792129 0.500000 0.140625
-0.026711 0.233035 -0.650615 0.252119 -0.555848 -0.792129 0.156250 0.500000
-0.012915 0.232262 -0.645681 0.252129 -0.555841 -0.792131 0.156250 0.500000
-0.018028 0.223182 -0.640937 0.252129 -0.555841 -0.792131 0.500000 0.140625
-0.026711 0.233035 -0.650615 0.252129 -0.555841 -0.792131 0.156250 0.500000
-0.003216 0.230551 -0.634765 0.543594 -0.608277 -0.578363 0.156250 0.500000
-0.018028 0.223182 -0.640937 0.543594 -0.608277 -0.578363 0.500000 0.140625
-0.012915 0.232262 -0.645681 0.543594 -0.608277 -0.578363 0.156250 0.500000
-0.000213 0.241706 -0.633282 0.734589 -0.108664 -0.669755 0.031250 1.000000
-0.003216 0.230551 -0.634765 0.734589 -0.108664 -0.669755 0.156250 0.500000
-0.012915 0.232262 -0.645681 0.734589 -0.108664 -0.669755 0.156250 0.500000
0.035181 0.261132 -0.631374 0.204716 0.978607 -0.020481 0.500000 0.140625
0.031437 0.261823 -0.635781 0.204716 0.978607 -0.020481 0.984375 0.140625
0.024985 0.263373 -0.626209 0.204716 0.978607 -0.020481 0.984375 0.015625
0.036161 0.254732 -0.643721 0.550927 0.758010 -0.349141 0.984375 0.500000
0.031437 0.261823 -0.635781 0.550927 0.758010 -0.349141 0.984375 0.140625
0.035181 0.261132 -0.631374 0.550927 0.758010 -0.349141 0.500000 0.140625
0.042645 0.253535 -0.636088 0.550936 0.758006 -0.349138 0.156250 0.500000
0.036161 0.254732 -0.643721 0.550936 0.758006 -0.349138 0.984375 0.500000
0.035181 0.261132 -0.631374 0.550936 0.758006 -0.349138 0.500000 0.140625
0.037891 0.244000 -0.647903 0.741579 0.343972 -0.575973 0.984375 0.984375
0.036161 0.254732 -0.643721 0.741579 0.343972 -0.575973 0.984375 0.500000
0.042645 0.253535 -0.636088 0.741579 0.343972 -0.575973 0.156250 0.500000
0.045377 0.242619 -0.639089 0.741578 0.343973 -0.575973 0.031250 0.984375
0.037891 0.244000 -0.647903 0.741578 0.343973 -0.575973 0.984375 0.984375
0.042645 0.253535 -0.636088 0.741578 0.343973 -0.575973 0.156250 0.500000
0.036162 0.232504 -0.647207 0.741602 -0.151101 -0.653601 0.984375 0.500000
0.037891 0.244000 -0.647903 0.741602 -0.151101 -0.653601 0.984375 0.984375
0.045377 0.242619 -0.639089 0.741602 -0.151101 -0.653601 0.031250 0.984375
0.042646 0.231307 -0.639573 0.741603 -0.151102 -0.653601 0.156250 0.500000
0.036162 0.232504 -0.647207 0.741603 -0.151102 -0.653601 0.984375 0.500000
0.045377 0.242619 -0.639089 0.741603 -0.151102 -0.653601 0.031250 0.984375
0.031439 0.223322 -0.641817 0.550999 -0.614717 -0.564379 0.984375 0.140625
0.036162 0.232504 -0.647207 0.550999 -0.614717 -0.564379 0.984375 0.500000
0.042646 0.231307 -0.639573 0.550999 -0.614717 -0.564379 0.156250 0.500000
0.035182 0.222631 -0.637410 0.550998 -0.614713 -0.564384 0.500000 0.140625
0.031439 0.223322 -0.641817 0.550998 -0.614713 -0.564384 0.984375 0.140625
0.042646 0.231307 -0.639573 0.550998 -0.614713 -0.564384 0.156250 0.500000
0.035198 0.221319 -0.629042 -0.652778 -0.591976 -0.472701 0.500000 0.140625
0.030976 0.220181 -0.621786 -0.652778 -0.591976 -0.472701 0.500000 0.140625
-0.000013 0.263452 -0.633180 -0.652778 -0.591976 -0.472701 0.984375 0.015625
0.035609 0.227037 -0.612340 0.616691 -0.749294 0.241352 0.156250 0.500000
0.030976 0.220181 -0.621786 0.616691 -0.749294 0.241352 0.500000 0.140625
0.035198 0.221319 -0.629042 0.616691 -0.749294 0.241352 0.500000 0.140625
0.042673 0.229034 -0.625078 0.634345 -0.736025 0.236376 0.156250 0.500000
0.035609 0.227037 -0.612340 0.634345 -0.736025 0.236376 0.156250 0.500000
0.035198 0.221319 -0.629042 0.634345 -0.736025 0.236376 0.500000 0.140625
0.036882 0.237728 -0.607898 0.857233 -0.281299 0.431302 0.031250 0.984375
0.035609 0.227037 -0.612340 0.857233 -0.281299 0.431302 0.156250 0.500000
0.042673 0.229034 -0.625078 0.857233 -0.281299 0.431302 0.156250 0.500000
0.045409 0.239994 -0.622352 0.837255 -0.319387 0.443842 0.031250 0.984375
0.036882 0.237728 -0.607898 0.837255 -0.319387 0.443842 0.031250 0.984375
0.042673 0.229034 -0.625078 0.837255 -0.319387 0.443842 0.156250 0.500000
0.035607 0.249265 -0.608854 0.843763 0.136237 0.519137 0.156250 0.500000
0.036882 0.237728 -0.607898 0.843763 0.136237 0.519137 0.031250 0.984375
0.045409 0.239994 -0.622352 0.843763 0.136237 0.519137 0.031250 0.984375
0.042672 0.251263 -0.621593 0.849620 0.172784 0.498288 0.156250 0.500000
0.035607 0.249265 -0.608854 0.849620 0.172784 0.498288 0.156250 0.500000
0.045409 0.239994 -0.622352 0.849620 0.172784 0.498288 0.031250 0.984375
0.030974 0.258682 -0.615749 0.627623 0.636746 0.447932 0.500000 0.140625
0.035607 0.249265 -0.608854 0.627623 0.636746 0.447932 0.156250 0.500000
0.042672 0.251263 -0.621593 0.627623 0.636746 0.447932 0.156250 0.500000
0.035196 0.259820 -0.623005 0.628018 0.625118 0.463488 0.500000 0.140625
0.030974 0.258682 -0.615749 0.628018 0.625118 0.463488 0.500000 0.140625
0.042672 0.251263 -0.621593 0.628018 0.625118 0.463488 0.156250 0.500000
0.018001 0.223183 -0.640937 0.338042 -0.029962 0.940654 0.500000 0.140625
0.025967 0.223630 -0.643785 0.338042 -0.029962 0.940654 0.500000 0.140625
-0.000013 0.263452 -0.633180 0.338042 -0.029962 0.940654 0.984375 0.015625
0.026684 0.233038 -0.650615 -0.252058 -0.555870 -0.792134 0.156250 0.500000
0.025967 0.223630 -0.643785 -0.252058 -0.555870 -0.792134 0.500000 0.140625
0.018001 0.223183 -0.640937 -0.252058 -0.555870 -0.792134 0.500000 0.140625
0.012888 0.232263 -0.645681 -0.252063 -0.555866 -0.792135 0.156250 0.500000
0.026684 0.233038 -0.650615 -0.252063 -0.555866 -0.792135 0.156250 0.500000
0.018001 0.223183 -0.640937 -0.252063 -0.555866 -0.792135 0.500000 0.140625
0.026946 0.244617 -0.651839 -0.330714 -0.091803 -0.939255 0.031250 0.984375
0.026684 0.233038 -0.650615 -0.330714 -0.091803 -0.939255 0.156250 0.500000
0.012888 0.232263 -0.645681 -0.330714 -0.091803 -0.939255 0.156250 0.500000
0.011015 0.243723 -0.646142 -0.330716 -0.091800 -0.939255 0.031250 0.984375
0.026946 0.244617 -0.651839 -0.330716 -0.091800 -0.939255 0.031250 0.984375
0.012888 0.232263 -0.645681 -0.330716 -0.091800 -0.939255 0.156250 0.500000
0.026684 0.255266 -0.647127 -0.330723 0.375017 -0.866017 0.156250 0.500000
0.026946 0.244617 -0.651839 -0.330723 0.375017 -0.866017 0.031250 0.984375
0.011015 0.243723 -0.646142 -0.330723 0.375017 -0.866017 0.031250 0.984375
0.012886 0.254492 -0.642196 -0.330599 0.374839 -0.866141 0.156250 0.500000
0.026684 0.255266 -0.647127 -0.330599 0.374839 -0.866141 0.156250 0.500000
0.011015 0.243723 -0.646142 -0.330599 0.374839 -0.866141 0.031250 0.984375
0.025965 0.262131 -0.637748 -0.252045 0.771555 -0.584103 0.500000 0.140625
0.026684 0.255266 -0.647127 -0.252045 0.771555 -0.584103 0.156250 0.500000
0.012886 0.254492 -0.642196 -0.252045 0.771555 -0.584103 0.156250 0.500000
0.018000 0.261684 -0.634900 -0.252119 0.771616 -0.583990 0.500000 0.140625
0.025965 0.262131 -0.637748 -0.252119 0.771616 -0.583990 0.500000 0.140625
0.012886 0.254492 -0.642196 -0.252119 0.771616 -0.583990 0.156250 0.500000
-0.035211 0.261129 -0.631374 -0.740718 0.663918 0.102713 0.500000 0.140625
-0.042702 0.251259 -0.621593 -0.740718 0.663918 0.102713 0.156250 0.500000
-0.035227 0.259817 -0.623005 -0.740718 0.663918 0.102713 0.500000 0.140625
-0.042674 0.253531 -0.636089 -0.740715 0.663920 0.102717 0.156250 0.500000
-0.042702 0.251259 -0.621593 -0.740715 0.663920 0.102717 0.156250 0.500000
-0.035211 0.261129 -0.631374 -0.740715 0.663920 0.102717 0.500000 0.140625
-0.036191 0.254729 -0.643722 -0.551000 0.757954 -0.349147 0.984375 0.500000
-0.042674 0.253531 -0.636089 -0.551000 0.757954 -0.349147 0.156250 0.500000
-0.035211 0.261129 -0.631374 -0.551000 0.757954 -0.349147 0.500000 0.140625
-0.037919 0.243997 -0.647904 -0.741600 0.343901 -0.575988 0.984375 0.984375
-0.042674 0.253531 -0.636089 -0.741600 0.343901 -0.575988 0.156250 0.500000
-0.036191 0.254729 -0.643722 -0.741600 0.343901 -0.575988 0.984375 0.500000
-0.026974 0.244614 -0.651839 -0.331091 0.388443 -0.859936 0.031250 0.984375
-0.037919 0.243997 -0.647904 -0.331091 0.388443 -0.859936 0.984375 0.984375
-0.036191 0.254729 -0.643722 -0.331091 0.388443 -0.859936 0.984375 0.500000
-0.026711 0.233035 -0.650615 -0.331067 -0.106623 -0.937564 0.156250 0.500000
-0.037919 0.243997 -0.647904 -0.331067 -0.106623 -0.937564 0.984375 0.984375
-0.026974 0.244614 -0.651839 -0.331067 -0.106623 -0.937564 0.031250 0.984375
-0.012915 0.232262 -0.645681 0.330739 -0.091761 -0.939250 0.156250 0.500000
-0.026711 0.233035 -0.650615 0.330739 -0.091761 -0.939250 0.156250 0.500000
-0.026974 0.244614 -0.651839 0.330739 -0.091761 -0.939250 0.031250 0.984375
-0.011044 0.243722 -0.646142 0.750727 0.309176 -0.583798 0.031250 0.984375
-0.003217 0.252779 -0.631280 0.750727 0.309176 -0.583798 0.156250 0.500000
-0.000213 0.241706 -0.633282 0.750727 0.309176 -0.583798 0.031250 1.000000
-0.012916 0.254490 -0.642196 0.728060 0.343890 -0.593017 0.156250 0.500000
-0.003217 0.252779 -0.631280 0.728060 0.343890 -0.593017 0.156250 0.500000
-0.011044 0.243722 -0.646142 0.728060 0.343890 -0.593017 0.031250 0.984375
-0.026714 0.255263 -0.647128 0.330576 0.374867 -0.866138 0.156250 0.500000
-0.012916 0.254490 -0.642196 0.330576 0.374867 -0.866138 0.156250 0.500000
-0.011044 0.243722 -0.646142 0.330576 0.374867 -0.866138 0.031250 0.984375
-0.025995 0.262129 -0.637748 0.251980 0.771581 -0.584096 0.500000 0.140625
-0.012916 0.254490 -0.642196 0.251980 0.771581 -0.584096 0.156250 0.500000
-0.026714 0.255263 -0.647128 0.251980 0.771581 -0.584096 0.156250 0.500000
-0.031468 0.261820 -0.635781 -0.246027 0.791003 -0.560165 0.984375 0.140625
-0.025995 0.262129 -0.637748 -0.246027 0.791003 -0.560165 0.500000 0.140625
-0.026714 0.255263 -0.647128 -0.246027 0.791003 -0.560165 0.156250 0.500000
-0.025015 0.263371 -0.626210 -0.091464 0.990886 -0.098886 0.984375 0.015625
-0.025995 0.262129 -0.637748 -0.091464 0.990886 -0.098886 0.500000 0.140625
-0.031468 0.261820 -0.635781 -0.091464 0.990886 -0.098886 0.984375 0.140625
-0.042674 0.253531 -0.636089 -0.971721 0.233555 0.034804 0.156250 0.500000
-0.045437 0.239990 -0.622352 -0.971721 0.233555 0.034804 0.031250 0.984375
-0.042702 0.251259 -0.621593 -0.971721 0.233555 0.034804 0.156250 0.500000
-0.045406 0.242614 -0.639090 -0.971720 0.233556 0.034804 0.031250 0.984375
-0.045437 0.239990 -0.622352 -0.971720 0.233556 0.034804 0.031250 0.984375
-0.042674 0.253531 -0.636089 -0.971720 0.233556 0.034804 0.156250 0.500000
-0.037919 0.243997 -0.647904 -0.741595 0.343907 -0.575990 0.984375 0.984375
-0.045406 0.242614 -0.639090 -0.741595 0.343907 -0.575990 0.031250 0.984375
-0.042674 0.253531 -0.636089 -0.741595 0.343907 -0.575990 0.156250 0.500000
-0.036190 0.232500 -0.647207 -0.741572 -0.151170 -0.653620 0.984375 0.500000
-0.045406 0.242614 -0.639090 -0.741572 -0.151170 -0.653620 0.031250 0.984375
-0.037919 0.243997 -0.647904 -0.741572 -0.151170 -0.653620 0.984375 0.984375
-0.026711 0.233035 -0.650615 -0.331070 -0.106626 -0.937563 0.156250 0.500000
-0.036190 0.232500 -0.647207 -0.331070 -0.106626 -0.937563 0.984375 0.500000
-0.037919 0.243997 -0.647904 -0.331070 -0.106626 -0.937563 0.984375 0.984375
-0.012916 0.254490 -0.642196 0.537821 0.763153 -0.358255 0.156250 0.500000
-0.012573 0.260679 -0.628499 0.537821 0.763153 -0.358255 0.500000 0.140625
-0.003217 0.252779 -0.631280 0.537821 0.763153 -0.358255 0.156250 0.500000
-0.018030 0.261682 -0.634900 0.554091 0.753332 -0.354225 0.500000 0.140625
-0.012573 0.260679 -0.628499 0.554091 0.753332 -0.354225 0.500000 0.140625
-0.012916 0.254490 -0.642196 0.554091 0.753332 -0.354225 0.156250 0.500000
-0.025995 0.262129 -0.637748 0.252053 0.771642 -0.583985 0.500000 0.140625
-0.018030 0.261682 -0.634900 0.252053 0.771642 -0.583985 0.500000 0.140625
-0.012916 0.254490 -0.642196 0.252053 0.771642 -0.583985 0.156250 0.500000
-0.025015 0.263371 -0.626210 0.096374 0.988725 -0.114607 0.984375 0.015625
-0.018030 0.261682 -0.634900 0.096374 0.988725 -0.114607 0.500000 0.140625
-0.025995 0.262129 -0.637748 0.096374 0.988725 -0.114607 0.500000 0.140625
-0.042673 0.231303 -0.639574 -0.741578 -0.151184 -0.653610 0.156250 0.500000
-0.045406 0.242614 -0.639090 -0.741578 -0.151184 -0.653610 0.031250 0.984375
-0.036190 0.232500 -0.647207 -0.741578 -0.151184 -0.653610 0.984375 0.500000
-0.042700 0.229030 -0.625079 -0.971698 -0.233092 -0.038367 0.156250 0.500000
-0.045406 0.242614 -0.639090 -0.971698 -0.233092 -0.038367 0.031250 0.984375
-0.042673 0.231303 -0.639574 -0.971698 -0.233092 -0.038367 0.156250 0.500000
-0.035225 0.221316 -0.629042 -0.740652 -0.663565 -0.105432 0.500000 0.140625
-0.042700 0.229030 -0.625079 -0.740652 -0.663565 -0.105432 0.156250 0.500000
-0.042673 0.231303 -0.639574 -0.740652 -0.663565 -0.105432 0.156250 0.500000
-0.018028 0.223182 -0.640937 -0.338045 -0.029964 0.940653 0.500000 0.140625
-0.000013 0.263452 -0.633180 -0.338045 -0.029964 0.940653 0.984375 0.015625
-0.025993 0.223628 -0.643785 -0.338045 -0.029964 0.940653 0.500000 0.140625
-0.012571 0.222178 -0.634536 -0.729815 0.200597 0.653553 0.500000 0.140625
-0.000013 0.263452 -0.633180 -0.729815 0.200597 0.653553 0.984375 0.015625
-0.018028 0.223182 -0.640937 -0.729815 0.200597 0.653553 0.500000 0.140625
-0.003216 0.230551 -0.634765 0.544106 -0.623403 -0.561532 0.156250 0.500000
-0.012571 0.222178 -0.634536 0.544106 -0.623403 -0.561532 0.500000 0.140625
-0.018028 0.223182 -0.640937 0.544106 -0.623403 -0.561532 0.500000 0.140625
-0.031466 0.223319 -0.641818 0.649833 -0.607578 0.456689 0.984375 0.140625
-0.000013 0.263452 -0.633180 0.649833 -0.607578 0.456689 0.984375 0.015625
-0.035209 0.222628 -0.637411 0.649833 -0.607578 0.456689 0.500000 0.140625
-0.025993 0.223628 -0.643785 0.326143 -0.436119 0.838708 0.500000 0.140625
-0.000013 0.263452 -0.633180 0.326143 -0.436119 0.838708 0.984375 0.015625
-0.031466 0.223319 -0.641818 0.326143 -0.436119 0.838708 0.984375 0.140625
0.003187 0.252780 -0.631280 -0.728083 0.343823 -0.593027 0.156250 0.500000
0.012886 0.254492 -0.642196 -0.728083 0.343823 -0.593027 0.156250 0.500000
0.011015 0.243723 -0.646142 -0.728083 0.343823 -0.593027 0.031250 0.984375
0.012543 0.260680 -0.628498 -0.537885 0.763105 -0.358261 0.500000 0.140625
0.012886 0.254492 -0.642196 -0.537885 0.763105 -0.358261 0.156250 0.500000
0.003187 0.252780 -0.631280 -0.537885 0.763105 -0.358261 0.156250 0.500000
0.000185 0.241706 -0.633282 -0.744916 -0.147862 -0.650567 0.031250 1.000000
0.011015 0.243723 -0.646142 -0.744916 -0.147862 -0.650567 0.031250 0.984375
0.012888 0.232263 -0.645681 -0.744916 -0.147862 -0.650567 0.156250 0.500000
0.003187 0.252780 -0.631280 -0.750749 0.309103 -0.583808 0.156250 0.500000
0.011015 0.243723 -0.646142 -0.750749 0.309103 -0.583808 0.031250 0.984375
0.000185 0.241706 -0.633282 -0.750749 0.309103 -0.583808 0.031250 1.000000
0.003188 0.230551 -0.634765 -0.543525 -0.608329 -0.578374 0.156250 0.500000
0.012888 0.232263 -0.645681 -0.543525 -0.608329 -0.578374 0.156250 0.500000
0.018001 0.223183 -0.640937 -0.543525 -0.608329 -0.578374 0.500000 0.140625
0.000185 0.241706 -0.633282 -0.734567 -0.108727 -0.669769 0.031250 1.000000
0.012888 0.232263 -0.645681 -0.734567 -0.108727 -0.669769 0.156250 0.500000
0.003188 0.230551 -0.634765 -0.734567 -0.108727 -0.669769 0.156250 0.500000
0.012545 0.222179 -0.634535 0.729803 0.200597 0.653565 0.500000 0.140625
0.018001 0.223183 -0.640937 0.729803 0.200597 0.653565 0.500000 0.140625
-0.000013 0.263452 -0.633180 0.729803 0.200597 0.653565 0.984375 0.015625
0.003188 0.230551 -0.634765 -0.544037 -0.623460 -0.561536 0.156250 0.500000
0.018001 0.223183 -0.640937 -0.544037 -0.623460 -0.561536 0.500000 0.140625
0.012545 0.222179 -0.634535 -0.544037 -0.623460 -0.561536 0.500000 0.140625
0.012543 0.260680 -0.628498 -0.554163 0.753276 -0.354229 0.500000 0.140625
0.018000 0.261684 -0.634900 -0.554163 0.753276 -0.354229 0.500000 0.140625
0.012886 0.254492 -0.642196 -0.554163 0.753276 -0.354229 0.156250 0.500000
-0.025015 0.263371 -0.626210 0.207278 0.978003 -0.023380 0.984375 0.015625
-0.012573 0.260679 -0.628499 0.207278 0.978003 -0.023380 0.500000 0.140625
-0.018030 0.261682 -0.634900 0.207278 0.978003 -0.023380 0.500000 0.140625
-0.045406 0.242614 -0.639090 -0.971698 -0.233091 -0.038366 0.031250 0.984375
-0.042700 0.229030 -0.625079 -0.971698 -0.233091 -0.038366 0.156250 0.500000
-0.045437 0.239990 -0.622352 -0.971698 -0.233091 -0.038366 0.031250 0.984375
3 0 1 2
3 3 4 5
3 6 7 8
3 9 10 11
3 12 13 14
3 15 16 17
3 18 19 20
3 21 22 23
3 24 25 26
3 27 28 29
3 30 31 32
3 33 34 35
3 36 37 38
3 39 40 41
3 42 43 44
3 45 46 47
3 48 49 50
3 51 52 53
3 54 55 56
3 57 55 54
3 58 59 60
3 61 62 63
3 64 65 66
3 67 68 69
3 70 71 72
3 73 74 75
3 76 77 78
3 79 80 81
3 82 83 84
3 85 86 87
3 88 89 90
3 91 92 93
3 94 95 96
3 97 98 99
3 100 101 102
3 103 104 105
3 106 107 108
3 109 110 111
3 112 113 114
3 115 116 117
3 118 119 120
3 121 122 123
3 124 125 126
3 127 128 129
3 130 131 132
3 133 134 135
3 136 137 138
3 139 140 141
3 142 143 144
3 145 146 147
3 148 149 150
3 151 152 153
3 154 155 156
3 157 158 159
3 160 161 162
3 163 164 165
3 166 167 168
3 169 170 171
3 172 173 174
3 175 176 177
3 178 179 180
3 181 182 183
3 184 185 186
3 187 188 189
3 190 191 192
3 193 194 195
3 196 197 198
3 199 200 201
3 202 203 204
3 205 206 207
3 208 209 210
3 211 212 213
3 214 215 216
3 217 218 219
3 220 221 222
3 223 224 225
3 226 227 228
3 229 230 231
3 232 233 234
3 235 236 237
3 238 239 240
3 241 242 243
3 244 245 246
3 247 248 249
3 250 251 252
3 253 254 255
3 256 257 258
3 259 260 261
3 262 263 264
3 265 266 267
3 268 269 270
3 271 272 273
3 274 275 276
3 277 278 279
3 280 281 282
3 283 284 285
3 286 287 288
3 289 290 291
3 292 293 294
3 295 296 297
3 298 299 300
3 301 302 303
3 304 305 306
3 307 308 309
3 310 311 312
3 313 314 315
3 316 317 318
3 319 320 321
3 322 323 324
3 325 326 327
3 328 329 330
3 331 332 333
3 334 335 336
3 337 338 339
3 340 341 342
3 343 344 345
3 346 347 348
3 349 350 351
3 352 353 354
3 355 356 357
