ply
format ascii 1.0
comment Created by Blender 3.0.1 - www.blender.org
element vertex 168
property float x
property float y
property float z
property float nx
property float ny
property float nz
property float u
property float v
element face 189
property list uchar uint vertex_indices
end_header
-1.063300 0.311600 -0.261300 -0.000000 1.000000 -0.000000 0.230000 0.870000
-1.035400 0.311600 -0.339600 -0.000000 1.000000 -0.000000 0.020000 0.870000
-1.086900 0.311600 -0.282600 -0.000000 1.000000 -0.000000 0.200000 0.800000
-1.011800 0.311600 -0.318300 0.000000 1.000000 -0.000000 0.050000 0.950000
-1.031500 0.311600 -0.262900 -0.000000 1.000000 -0.000000 0.200000 0.950000
-1.010200 0.311600 -0.286500 -0.000000 1.000000 0.000000 0.130000 0.980000
-1.067200 0.311600 -0.338000 -0.000000 1.000000 -0.000000 0.050000 0.800000
-1.088600 0.311600 -0.314400 -0.000000 1.000000 -0.000000 0.130000 0.770000
-1.063400 0.301800 -0.261100 -0.335978 0.022553 0.941588 0.480000 0.700000
-1.031500 0.301800 -0.262700 0.425886 0.018403 0.904569 0.380000 0.700000
-1.063300 0.311600 -0.261300 -0.334666 0.022675 0.942045 0.480000 0.770000
-1.086900 0.311600 -0.282600 -0.902432 0.022858 0.430158 0.380000 0.770000
-1.087100 0.301800 -0.282500 -0.902524 0.021699 0.430036 0.380000 0.700000
-1.088600 0.311600 -0.314400 -0.941435 0.010681 -0.336985 0.250000 0.770000
-1.088700 0.301800 -0.314400 -0.942015 0.010987 -0.335307 0.250000 0.700000
-1.067200 0.311600 -0.338000 -0.429304 0.021393 -0.902890 0.130000 0.770000
-1.067300 0.301800 -0.338200 -0.429823 0.022736 -0.902585 0.130000 0.700000
-1.035400 0.311600 -0.339600 0.336894 0.019257 -0.941313 0.020000 0.770000
-1.035400 0.301800 -0.339800 0.333811 0.019135 -0.942412 0.020000 0.700000
-1.011800 0.311600 -0.318300 0.903745 0.013642 -0.427839 0.130000 0.770000
-1.011700 0.301800 -0.318400 0.902615 0.014527 -0.430189 0.130000 0.700000
-1.010200 0.311600 -0.286500 0.942473 0.021699 0.333537 0.250000 0.770000
-1.010000 0.301800 -0.286400 0.942015 0.021760 0.334788 0.250000 0.700000
-1.031500 0.311600 -0.262900 0.429945 0.019257 0.902615 0.380000 0.770000
-1.029900 0.190800 -0.259500 0.348399 -0.589435 0.728782 0.380000 0.140000
-1.006700 0.190800 -0.285200 0.758934 -0.591845 0.271462 0.250000 0.140000
-1.027900 0.197300 -0.255200 0.410443 -0.291299 0.864071 0.380000 0.170000
-1.066200 0.197300 -0.253200 -0.319651 -0.292459 0.901242 0.480000 0.170000
-1.064600 0.190800 -0.257700 -0.269387 -0.592608 0.759056 0.480000 0.140000
-1.094700 0.197300 -0.278900 -0.862911 -0.296274 0.409345 0.380000 0.170000
-1.090300 0.190800 -0.281000 -0.723594 -0.599536 0.341960 0.380000 0.140000
-1.096600 0.197300 -0.317200 -0.900876 -0.292825 -0.320383 0.250000 0.170000
-1.092100 0.190800 -0.315600 -0.759392 -0.592242 -0.269295 0.250000 0.140000
-1.070900 0.197300 -0.345700 -0.411512 -0.292825 -0.863063 0.130000 0.170000
-1.068800 0.190800 -0.341400 -0.344707 -0.592853 -0.727775 0.130000 0.140000
-1.032600 0.197300 -0.347700 0.319803 -0.292306 -0.901242 0.020000 0.170000
-1.034200 0.190800 -0.343200 0.269295 -0.592242 -0.759392 0.020000 0.140000
-1.004100 0.197300 -0.322000 0.863582 -0.292520 -0.410596 0.130000 0.170000
-1.008400 0.190800 -0.319900 0.728294 -0.592914 -0.343486 0.130000 0.140000
-1.002200 0.197300 -0.283600 0.900571 -0.292398 0.321635 0.250000 0.170000
-1.027800 0.272100 -0.255000 0.419874 0.206641 0.883724 0.380000 0.610000
-1.066300 0.272100 -0.253000 -0.327555 0.209326 0.921323 0.480000 0.610000
-1.094900 0.272100 -0.278800 -0.883358 0.208411 0.419782 0.380000 0.610000
-1.096800 0.272100 -0.317300 -0.922178 0.204627 -0.328104 0.250000 0.610000
-1.071000 0.272100 -0.345900 -0.420240 0.207984 -0.883236 0.130000 0.610000
-1.032500 0.272100 -0.347900 0.328288 0.209418 -0.921049 0.020000 0.610000
-1.003900 0.272100 -0.322000 0.884182 0.207099 -0.418653 0.130000 0.610000
-1.002000 0.272100 -0.283600 0.922208 0.204840 0.327921 0.250000 0.610000
-1.006000 0.281200 -0.285000 0.727897 0.634816 0.259102 0.250000 0.640000
-1.007800 0.281200 -0.320200 0.695791 0.637013 -0.331706 0.130000 0.640000
-1.034000 0.281200 -0.343800 0.257088 0.639271 -0.724693 0.020000 0.640000
-1.069100 0.281200 -0.342000 -0.328745 0.638966 -0.695425 0.130000 0.640000
-1.039600 0.291300 -0.328000 0.278298 0.555223 -0.783715 0.020000 0.690000
-1.023000 0.291300 -0.313000 0.749931 0.556413 -0.357707 0.130000 0.690000
-1.021800 0.291300 -0.290600 0.781640 0.558458 0.277688 0.250000 0.690000
-1.036800 0.291300 -0.274000 0.356090 0.557085 0.750206 0.380000 0.690000
-1.029600 0.281200 -0.258900 0.331553 0.636799 0.696066 0.380000 0.640000
-1.064800 0.281200 -0.257100 -0.256752 0.639546 0.724570 0.480000 0.640000
-1.091000 0.281200 -0.280700 -0.695181 0.638813 0.329569 0.380000 0.640000
-1.092800 0.281200 -0.315900 -0.726920 0.635914 -0.259102 0.250000 0.640000
-1.061900 0.291300 -0.326800 -0.357494 0.554949 -0.751122 0.130000 0.690000
-1.039600 0.305200 -0.327900 0.335948 0.006745 -0.941832 0.020000 0.750000
-1.023100 0.305200 -0.312900 0.904111 0.008637 -0.427168 0.130000 0.750000
-1.022000 0.305200 -0.290700 0.942412 0.014710 0.334086 0.250000 0.750000
-1.036900 0.305200 -0.274200 0.430372 0.016175 0.902493 0.380000 0.750000
-1.059100 0.305200 -0.273000 -0.334330 0.010681 0.942381 0.480000 0.750000
-1.059200 0.291300 -0.272900 -0.280038 0.555010 0.783258 0.480000 0.690000
-1.075800 0.291300 -0.287900 -0.750633 0.556200 0.356609 0.380000 0.690000
-1.076900 0.291300 -0.310200 -0.783197 0.555803 -0.278634 0.250000 0.690000
-1.061900 0.305200 -0.326700 -0.431043 0.006561 -0.902280 0.130000 0.750000
-1.076800 0.305200 -0.310200 -0.941649 0.006806 -0.336436 0.250000 0.750000
-1.075700 0.305200 -0.288000 -0.903867 0.009552 0.427625 0.380000 0.750000
-1.484500 0.267800 0.102200 -0.000000 1.000000 0.000000 0.230000 0.870000
-1.497300 0.267800 0.067000 -0.000000 1.000000 0.000000 0.020000 0.870000
-1.500200 0.267800 0.102100 -0.000000 1.000000 0.000000 0.200000 0.800000
-1.481700 0.267800 0.067200 0.000000 1.000000 -0.000000 0.050000 0.950000
-1.472600 0.267800 0.092000 -0.000000 1.000000 0.000000 0.200000 0.950000
-1.471400 0.267800 0.077500 -0.000000 1.000000 0.000000 0.130000 0.980000
-1.509300 0.267800 0.077200 -0.000000 1.000000 -0.000000 0.050000 0.800000
-1.472500 0.261200 0.092100 0.888668 0.020203 0.458052 0.380000 0.700000
-1.472600 0.267800 0.092000 0.890347 0.019013 0.454848 0.380000 0.770000
-1.484500 0.261200 0.102300 0.649922 0.014008 0.759850 0.480000 0.700000
-1.471400 0.267800 0.077500 0.938810 0.015992 -0.344005 0.250000 0.770000
-1.471300 0.261200 0.077500 0.939970 0.014222 -0.340892 0.250000 0.700000
-1.481600 0.261200 0.067100 0.387921 0.018250 -0.921476 0.130000 0.700000
-1.481700 0.267800 0.067200 0.384472 0.017640 -0.922941 0.130000 0.770000
-1.497400 0.261200 0.067000 0.011139 0.003754 -0.999908 0.020000 0.700000
-1.497300 0.267800 0.067000 0.012818 -0.000183 -0.999908 0.020000 0.770000
-1.484500 0.267800 0.102200 0.650716 0.011505 0.759209 0.480000 0.770000
-1.467500 0.251200 0.076100 0.886380 0.333628 -0.320933 0.250000 0.620000
-1.477200 0.262500 0.079600 0.695456 0.672414 -0.253243 0.250000 0.690000
-1.469000 0.251200 0.093500 0.843165 0.324503 0.428602 0.380000 0.620000
-1.479800 0.251200 0.063700 0.370525 0.324717 -0.870174 0.130000 0.620000
-1.479700 0.201200 0.063600 0.389630 0.002594 -0.920957 0.130000 0.170000
-1.467400 0.201200 0.076000 0.939207 0.003479 -0.343272 0.250000 0.170000
-1.468800 0.201200 0.093500 0.890866 0.003632 0.454176 0.380000 0.170000
-1.483300 0.251200 0.105700 0.620075 0.296945 0.726127 0.480000 0.620000
-1.483200 0.201200 0.105800 0.649464 0.002808 0.760369 0.480000 0.170000
-1.478000 0.262500 0.089800 0.671041 0.650349 0.355968 0.380000 0.690000
-1.484400 0.262500 0.072300 0.280068 0.651906 -0.704672 0.130000 0.690000
-1.498600 0.251200 0.063600 0.004212 0.298135 -0.954497 0.020000 0.620000
-1.498700 0.201200 0.063400 0.009308 0.002441 -0.999939 0.020000 0.170000
-1.475300 0.244000 -0.048800 0.640126 0.351848 0.682943 0.380000 0.620000
-1.482600 0.253900 -0.055300 0.473251 0.700919 0.533586 0.380000 0.690000
-1.492900 0.244000 -0.042200 0.331095 0.323954 0.886227 0.480000 0.620000
-1.475200 0.201200 -0.048700 0.678945 0.002960 0.734153 0.380000 0.170000
-1.492900 0.201200 -0.042100 0.349376 0.002167 0.936949 0.480000 0.170000
-1.467800 0.201200 -0.064600 0.999969 0.004181 0.000824 0.250000 0.170000
-1.468000 0.244000 -0.064600 0.932768 0.360424 0.000824 0.250000 0.620000
-1.478300 0.253900 -0.064600 0.692526 0.721366 0.000641 0.250000 0.690000
-1.475300 0.244000 -0.080500 0.638966 0.352916 -0.683462 0.130000 0.620000
-1.475200 0.201200 -0.080600 0.679891 0.003754 -0.733299 0.130000 0.170000
-1.492900 0.201200 -0.087200 0.348582 0.003357 -0.937254 0.020000 0.170000
-1.492900 0.244000 -0.087000 0.328867 0.324961 -0.886685 0.020000 0.620000
-1.482600 0.253900 -0.073900 0.473525 0.701621 -0.532395 0.130000 0.690000
-1.492900 0.253900 -0.051500 0.259651 0.661184 0.703818 0.480000 0.690000
-1.472000 0.254000 -0.064600 0.999786 0.019593 0.000000 0.250000 0.700000
-1.478100 0.254000 -0.077900 0.679495 0.026734 -0.733177 0.130000 0.700000
-1.472100 0.259100 -0.064600 0.999756 0.021516 0.000000 0.250000 0.770000
-1.478100 0.254000 -0.051300 0.679495 0.026734 0.733177 0.380000 0.700000
-1.478200 0.259100 -0.051400 0.679037 0.026948 0.733573 0.380000 0.770000
-1.492900 0.254000 -0.045800 0.349925 0.019745 0.936552 0.480000 0.700000
-1.492900 0.259100 -0.045900 0.350352 0.018372 0.936430 0.480000 0.770000
-1.478200 0.259100 -0.077800 0.679037 0.026948 -0.733573 0.130000 0.770000
-1.492900 0.254000 -0.083400 0.349925 0.019715 -0.936552 0.020000 0.700000
-1.492900 0.259100 -0.083300 0.350352 0.018342 -0.936430 0.020000 0.770000
-1.492900 0.253900 -0.077800 0.267251 0.655965 -0.705863 0.020000 0.690000
-1.492900 0.259100 -0.045900 -0.000000 1.000000 0.000000 0.230000 0.870000
-1.492900 0.259100 -0.083300 -0.000000 1.000000 0.000000 0.020000 0.870000
-1.507600 0.259100 -0.051400 -0.000000 1.000000 0.000000 0.200000 0.800000
-1.478200 0.259100 -0.077800 0.000000 1.000000 -0.000000 0.050000 0.950000
-1.478200 0.259100 -0.051400 -0.000000 1.000000 0.000000 0.200000 0.950000
-1.472100 0.259100 -0.064600 -0.000000 1.000000 0.000000 0.130000 0.980000
-1.507600 0.259100 -0.077800 -0.000000 1.000000 -0.000000 0.050000 0.800000
-1.471500 0.244000 0.000300 0.641133 0.351299 0.682272 0.380000 0.620000
-1.478800 0.253900 -0.006200 0.472365 0.701041 0.534196 0.380000 0.690000
-1.489200 0.244000 0.006900 0.329234 0.324107 0.886868 0.480000 0.620000
-1.471400 0.201200 0.000400 0.680166 0.002960 0.733024 0.380000 0.170000
-1.489200 0.201200 0.007000 0.347636 0.002167 0.937590 0.480000 0.170000
-1.464100 0.201200 -0.015500 0.999969 0.004181 0.000824 0.250000 0.170000
-1.464300 0.244000 -0.015500 0.933378 0.358837 0.000824 0.250000 0.620000
-1.474500 0.253900 -0.015500 0.694540 0.719413 0.000641 0.250000 0.690000
-1.471500 0.244000 -0.031400 0.640004 0.352367 -0.682760 0.130000 0.620000
-1.471400 0.201200 -0.031500 0.681112 0.003754 -0.732139 0.130000 0.170000
-1.489200 0.201200 -0.038100 0.346873 0.003357 -0.937895 0.020000 0.170000
-1.489200 0.244000 -0.037900 0.327006 0.325114 -0.887295 0.020000 0.620000
-1.478800 0.253900 -0.024800 0.472610 0.701773 -0.533006 0.130000 0.690000
-1.489200 0.253900 -0.002400 0.257332 0.661611 0.704276 0.480000 0.690000
-1.468300 0.254000 -0.015500 0.999786 0.019654 0.000000 0.250000 0.700000
-1.474400 0.254000 -0.028800 0.682150 0.002045 -0.731162 0.130000 0.700000
-1.468400 0.259100 -0.015500 0.999847 0.016388 0.000275 0.250000 0.770000
-1.474400 0.254000 -0.002200 0.678884 0.015503 0.734062 0.380000 0.700000
-1.474400 0.259100 -0.002300 0.683950 0.014283 0.729362 0.380000 0.770000
-1.489200 0.254000 0.003300 0.348277 0.018372 0.937193 0.480000 0.700000
-1.489200 0.259100 0.003200 0.348277 0.018372 0.937193 0.480000 0.770000
-1.474400 0.259100 -0.028800 0.682211 0.001984 -0.731132 0.130000 0.770000
-1.489200 0.254000 -0.034300 0.343822 0.014710 -0.938902 0.020000 0.700000
-1.489200 0.259100 -0.034200 0.342692 0.018403 -0.939238 0.020000 0.770000
-1.489200 0.253900 -0.028700 0.264870 0.656392 -0.706351 0.020000 0.690000
-1.489200 0.259100 0.003200 -0.000000 1.000000 0.000000 0.230000 0.870000
-1.489200 0.259100 -0.034200 -0.000000 1.000000 0.000000 0.020000 0.870000
-1.503900 0.259100 -0.002300 -0.000000 1.000000 0.000000 0.200000 0.800000
-1.474400 0.259100 -0.028800 0.000000 1.000000 -0.000000 0.050000 0.950000
-1.474400 0.259100 -0.002300 -0.000000 1.000000 0.000000 0.200000 0.950000
-1.468400 0.259100 -0.015500 -0.000000 1.000000 0.000000 0.130000 0.980000
-1.503900 0.259100 -0.028800 -0.000000 1.000000 -0.000000 0.050000 0.800000
-1.486400 0.262500 0.097000 0.517350 0.606647 0.603565 0.480000 0.690000
-1.495400 0.262500 0.072300 0.000000 0.610034 -0.792352 0.020000 0.690000
3 0 1 2
3 0 3 1
3 4 3 0
3 5 3 4
3 2 1 6
3 2 6 7
3 8 9 10
3 11 8 10
3 12 8 11
3 13 12 11
3 14 12 13
3 15 14 13
3 16 14 15
3 17 16 15
3 18 16 17
3 19 18 17
3 20 18 19
3 21 20 19
3 22 20 21
3 23 22 21
3 9 22 23
3 10 9 23
3 24 25 26
3 27 24 26
3 28 24 27
3 29 28 27
3 30 28 29
3 31 30 29
3 32 30 31
3 33 32 31
3 34 32 33
3 35 34 33
3 36 34 35
3 37 36 35
3 38 36 37
3 39 38 37
3 25 38 39
3 26 25 39
3 26 39 40
3 41 26 40
3 27 26 41
3 42 27 41
3 29 27 42
3 43 29 42
3 31 29 43
3 44 31 43
3 33 31 44
3 45 33 44
3 35 33 45
3 46 35 45
3 37 35 46
3 47 37 46
3 39 37 47
3 40 39 47
3 47 48 40
3 47 49 48
3 46 49 47
3 46 50 49
3 45 50 46
3 44 50 45
3 51 50 44
3 50 51 52
3 53 50 52
3 49 50 53
3 54 49 53
3 48 49 54
3 55 48 54
3 56 48 55
3 40 48 56
3 40 56 41
3 41 56 57
3 41 57 42
3 42 57 58
3 42 58 43
3 43 58 59
3 43 59 44
3 44 59 51
3 51 59 60
3 52 51 60
3 52 60 61
3 62 52 61
3 53 52 62
3 63 53 62
3 54 53 63
3 64 54 63
3 55 54 64
3 65 55 64
3 66 55 65
3 66 56 55
3 57 56 66
3 67 57 66
3 58 57 67
3 68 58 67
3 59 58 68
3 60 59 68
3 60 68 69
3 61 60 69
3 69 68 70
3 68 67 70
3 70 67 71
3 67 66 71
3 71 66 65
3 72 73 74
3 72 75 73
3 76 75 72
3 77 75 76
3 74 73 78
3 79 80 81
3 79 82 80
3 83 82 79
3 83 84 82
3 82 84 85
3 84 86 85
3 85 86 87
3 81 80 88
3 89 90 91
3 89 92 90
3 89 93 92
3 94 93 89
3 91 94 89
3 95 94 91
3 96 95 91
3 97 95 96
3 91 98 96
3 91 90 98
3 90 92 99
3 92 100 99
3 92 101 100
3 93 101 92
3 102 103 104
3 104 105 102
3 106 105 104
3 105 107 102
3 102 107 108
3 108 109 102
3 108 110 109
3 108 111 110
3 107 111 108
3 111 112 110
3 110 112 113
3 110 113 114
3 109 110 114
3 102 109 103
3 104 103 115
3 116 117 118
3 116 118 119
3 119 118 120
3 119 120 121
3 121 120 122
3 118 117 123
3 117 124 123
3 123 124 125
3 114 113 126
3 127 128 129
3 127 130 128
3 131 130 127
3 132 130 131
3 129 128 133
3 134 135 136
3 136 137 134
3 138 137 136
3 137 139 134
3 134 139 140
3 140 141 134
3 140 142 141
3 140 143 142
3 139 143 140
3 143 144 142
3 142 144 145
3 142 145 146
3 141 142 146
3 134 141 135
3 136 135 147
3 148 149 150
3 148 150 151
3 151 150 152
3 151 152 153
3 153 152 154
3 150 149 155
3 149 156 155
3 155 156 157
3 146 145 158
3 159 160 161
3 159 162 160
3 163 162 159
3 164 162 163
3 161 160 165
3 96 98 166
3 99 100 167
