ply
format ascii 1.0
comment Created by Blender 3.0.1 - www.blender.org
element vertex 225
property float x
property float y
property float z
property float nx
property float ny
property float nz
property float u
property float v
element face 244
property list uchar uint vertex_indices
end_header
0.640000 0.304000 2.624000 0.000000 0.000000 -1.000000 0.380000 0.180000
0.640000 -0.016000 2.624000 0.000000 0.000000 -1.000000 0.380000 0.000000
0.000000 0.304000 2.624000 0.000000 0.000000 -1.000000 0.750000 0.180000
1.280000 -0.016000 2.624000 0.000000 0.000000 -1.000000 0.000000 0.000000
1.280000 0.304000 2.624000 0.000000 0.000000 -1.000000 0.000000 0.180000
0.000000 -0.016000 2.624000 0.000000 0.000000 -1.000000 0.750000 0.000000
-0.640000 0.304000 2.624000 0.000000 0.000000 -1.000000 0.380000 0.180000
-0.640000 -0.016000 2.624000 0.000000 0.000000 -1.000000 0.380000 0.000000
-1.280000 0.304000 2.624000 0.000000 0.000000 -1.000000 0.000000 0.180000
-1.280000 -0.016000 2.624000 0.000000 0.000000 -1.000000 0.000000 0.000000
-0.804400 0.567300 -1.237600 0.630573 0.490524 0.601428 0.030000 0.590000
-0.669300 0.491300 -1.329100 0.662923 0.466964 0.585192 0.250000 0.590000
-0.803200 0.576000 -1.245000 0.620991 0.457137 0.636677 0.030000 0.570000
-0.819100 0.580000 -1.234300 0.642567 0.630757 0.434950 0.000000 0.570000
-0.815900 0.575300 -1.229800 0.663991 0.701041 0.259957 0.000000 0.590000
-0.664300 0.496700 -1.339100 0.662984 0.468032 0.584246 0.250000 0.570000
-0.835800 0.576000 -1.222900 0.368908 0.442030 0.817621 0.220000 0.570000
-0.827400 0.567300 -1.222000 0.336619 0.481033 0.809473 0.220000 0.590000
-0.819100 0.580000 -1.234300 0.175909 0.623096 0.762078 0.250000 0.570000
-0.961100 0.492000 -1.131500 0.312479 0.446272 0.838527 0.000000 0.590000
-0.974300 0.496700 -1.129100 0.311655 0.447249 0.838313 0.000000 0.570000
-0.815900 0.575300 -1.229800 0.005951 0.693655 0.720237 0.250000 0.590000
0.089000 0.494600 1.479000 -0.128788 -0.157384 -0.979095 0.810000 0.680000
0.070500 0.703400 1.450300 -0.049471 -0.089724 -0.994720 0.780000 0.820000
0.169400 0.519000 1.465800 -0.026032 -0.118412 -0.992615 0.890000 0.680000
0.158200 0.418700 1.484900 -0.041780 -0.182379 -0.982330 0.860000 0.640000
0.214700 0.383200 1.490800 -0.097659 -0.190405 -0.976806 0.900000 0.600000
0.260000 0.413700 1.479300 0.129978 -0.104373 -0.985992 0.950000 0.600000
0.233400 0.361000 1.492200 -0.271004 -0.079531 -0.959258 0.910000 0.560000
0.265900 0.308400 1.483100 0.027955 0.069582 -0.997162 0.950000 0.520000
0.227700 0.308400 1.493600 -0.281014 0.085635 -0.955870 0.910000 0.520000
0.228300 0.203000 1.476100 -0.273415 0.136113 -0.952178 0.930000 0.430000
0.260100 0.203000 1.475400 -0.014740 0.102573 -0.994598 0.950000 0.430000
0.250100 0.018700 1.453200 -0.045991 0.127537 -0.990753 0.930000 0.290000
0.281800 0.018700 1.448700 0.110599 0.126957 -0.985717 0.970000 0.290000
0.290000 0.203000 1.475400 0.249458 0.117222 -0.961241 0.970000 0.430000
0.315900 0.018700 1.461900 0.368053 0.119266 -0.922117 1.000000 0.290000
0.311600 0.203000 1.487100 0.473251 0.112522 -0.873684 1.000000 0.430000
0.308100 0.308400 1.496700 0.318369 0.076907 -0.944823 1.000000 0.520000
0.307400 0.413700 1.498800 0.370922 -0.051332 -0.927213 1.000000 0.600000
0.318500 0.519000 1.492300 0.319712 -0.062563 -0.945433 1.000000 0.680000
0.250200 0.519000 1.470000 0.175207 -0.056978 -0.982849 0.950000 0.680000
0.234000 0.703400 1.462100 0.172979 -0.046999 -0.983795 0.930000 0.820000
0.325900 0.703400 1.483400 0.208441 -0.044618 -0.976989 1.000000 0.820000
0.250900 0.924700 1.457200 0.125309 -0.081515 -0.988739 0.940000 0.990000
0.317700 0.928400 1.451600 -0.074862 -0.142216 -0.986999 1.000000 0.990000
0.184100 0.933300 1.439000 0.060518 -0.042146 -0.997253 0.880000 0.990000
0.148500 0.703400 1.451600 0.057894 -0.055849 -0.996734 0.850000 0.820000
0.120000 0.929000 1.448000 0.056276 -0.047182 -0.997284 0.810000 0.990000
0.058400 0.935000 1.430700 -0.007965 -0.084719 -0.996368 0.750000 0.990000
0.012300 0.928300 1.444300 -0.168554 -0.070254 -0.983154 0.700000 0.990000
0.009700 0.703400 1.456000 -0.199530 -0.144108 -0.969207 0.710000 0.820000
0.028600 0.578900 1.478400 -0.200476 -0.165685 -0.965575 0.750000 0.730000
-0.045000 0.703400 1.474900 -0.321970 -0.167302 -0.931822 0.620000 0.820000
-0.090800 0.802800 1.475700 -0.250374 -0.136113 -0.958525 0.560000 0.900000
-0.079400 0.926900 1.455400 -0.024689 -0.125309 -0.991791 0.570000 0.990000
-0.033500 0.933300 1.448200 -0.121555 -0.056459 -0.990966 0.630000 0.990000
0.972200 0.023300 0.731200 -0.140873 0.841762 -0.521073 0.060000 0.650000
0.967300 0.049100 0.851000 -0.004669 0.999939 -0.006684 0.130000 0.700000
1.023900 0.023300 0.731300 0.154942 0.863124 -0.480575 0.040000 0.680000
1.029700 -0.000100 0.707800 0.198279 0.707297 -0.678518 0.020000 0.670000
0.962300 -0.000100 0.712700 -0.241066 0.654866 -0.716239 0.030000 0.640000
0.891300 0.023300 0.779300 -0.418744 0.816828 -0.396741 0.130000 0.630000
0.876400 -0.000100 0.768400 -0.591784 0.609272 -0.527787 0.130000 0.600000
0.846500 0.023300 0.863700 -0.594714 0.794702 -0.121403 0.190000 0.650000
0.831400 -0.000100 0.861800 -0.821589 0.546892 -0.160863 0.210000 0.630000
0.849100 0.023300 0.910600 -0.542650 0.827815 0.142155 0.210000 0.670000
0.872400 0.023300 0.945400 -0.342509 0.846248 0.408032 0.220000 0.700000
0.834300 -0.000100 0.928500 -0.709891 0.634938 0.304758 0.230000 0.660000
0.871900 -0.000100 0.971200 -0.371563 0.672811 0.639699 0.250000 0.700000
0.967200 0.023300 0.979200 0.017426 0.822871 0.567919 0.200000 0.750000
0.981500 -0.000100 0.997800 0.160222 0.660085 0.733848 0.220000 0.770000
1.054200 0.023300 0.929500 0.423902 0.830103 0.362194 0.130000 0.770000
1.071700 -0.000100 0.939700 0.605274 0.644276 0.467452 0.130000 0.800000
1.088200 0.023300 0.838300 0.558092 0.828944 0.036409 0.050000 0.750000
1.108500 -0.000100 0.829700 0.758049 0.651295 -0.033967 0.030000 0.770000
1.062200 0.023300 0.756600 0.440596 0.838679 -0.320048 0.040000 0.700000
1.074500 -0.000100 0.739000 0.569384 0.667806 -0.479324 0.000000 0.700000
-1.460500 0.264800 0.119200 -0.972686 0.116398 -0.200781 0.500000 0.970000
-1.482000 0.292500 0.239400 -0.979858 -0.007599 -0.199408 0.250000 0.970000
-1.455500 0.289500 0.109300 -0.974792 0.096988 -0.200781 0.500000 1.000000
-1.482300 0.318100 0.237800 -0.979705 -0.023896 -0.198981 0.250000 1.000000
-1.442800 0.297000 0.149800 0.991943 -0.125858 0.012329 0.430000 0.960000
-1.445100 0.271200 0.151300 0.992126 -0.081790 -0.094699 0.430000 0.940000
-1.460500 0.264800 0.119200 0.927122 -0.224708 -0.299814 0.500000 0.940000
-1.461900 0.308700 0.209700 0.895383 0.035371 0.443861 0.320000 0.960000
-1.461600 0.284300 0.211700 0.912046 0.042451 0.407849 0.320000 0.940000
-1.482300 0.318100 0.237800 0.813196 0.050325 0.579760 0.250000 0.960000
-1.482000 0.292500 0.239400 0.810785 0.045961 0.583514 0.250000 0.940000
-1.455500 0.289500 0.109300 0.928709 -0.283670 -0.238685 0.500000 0.960000
0.190000 0.018700 1.469500 -0.628529 0.108829 -0.770104 0.860000 0.290000
0.198400 0.131600 1.478600 -0.469741 0.156041 -0.868892 0.880000 0.360000
0.212300 0.018700 1.451300 -0.303476 0.130314 -0.943876 0.900000 0.290000
0.208900 0.203000 1.487700 -0.506455 0.161321 -0.847011 0.900000 0.430000
0.870500 0.028400 0.865300 -0.695151 0.718406 0.024476 0.190000 0.850000
0.894400 0.028400 0.930700 -0.465743 0.763451 0.447371 0.210000 0.910000
0.912900 0.051300 0.908900 -0.393445 0.862117 0.319224 0.190000 0.910000
0.893900 0.051300 0.856100 -0.534471 0.842769 -0.063631 0.170000 0.870000
0.901500 0.028400 0.788200 -0.485427 0.738273 -0.468215 0.130000 0.820000
0.921800 0.051000 0.804700 -0.326640 0.871456 -0.365825 0.130000 0.850000
0.975700 0.028400 0.750600 -0.072481 0.772271 -0.631092 0.060000 0.850000
0.992400 0.051300 0.778200 0.057466 0.873043 -0.484207 0.080000 0.870000
1.049500 0.028400 0.774600 0.430860 0.753136 -0.497085 0.040000 0.910000
1.043100 0.051300 0.807800 0.434339 0.856563 -0.278573 0.070000 0.910000
1.079800 0.028400 0.846100 0.696951 0.716636 -0.025971 0.060000 0.960000
1.054000 0.051300 0.865400 0.551317 0.824305 0.128483 0.080000 0.950000
1.048800 0.028400 0.923200 0.518662 0.714011 0.470229 0.130000 0.980000
1.018700 0.051300 0.917400 0.340770 0.813074 0.471969 0.130000 0.960000
0.974700 0.028400 0.960800 0.041505 0.721366 0.691275 0.180000 0.960000
0.965800 0.051900 0.935200 -0.056490 0.830958 0.553453 0.170000 0.950000
0.982600 0.074200 0.878900 0.036378 0.995178 0.090976 0.130000 0.930000
0.331800 0.434300 1.482500 -0.088046 0.117893 -0.989105 0.260000 0.960000
0.334300 0.411000 1.479500 -0.082766 0.165624 -0.982696 0.260000 0.940000
0.303500 0.414000 1.482600 -0.013428 0.230934 -0.972869 0.320000 0.960000
0.305800 0.390500 1.476300 0.039491 0.262337 -0.964141 0.320000 0.940000
0.262700 0.371800 1.466600 -0.305124 0.183630 -0.934416 0.430000 0.940000
0.257500 0.394900 1.472900 -0.213233 0.144810 -0.966186 0.430000 0.960000
0.228800 0.359100 1.491500 -0.400494 -0.148686 -0.904141 0.500000 0.940000
0.213800 0.380600 1.491000 -0.305460 -0.234565 -0.922849 0.500000 0.960000
0.228800 0.359100 1.491500 -0.157384 -0.086917 0.983673 0.500000 0.970000
0.331600 0.410600 1.512500 -0.147160 -0.125187 0.981140 0.250000 0.970000
0.213800 0.380600 1.491000 -0.155919 -0.092502 0.983398 0.500000 1.000000
0.329100 0.433800 1.515200 -0.145909 -0.129856 0.980712 0.250000 1.000000
-1.460800 0.177000 0.114500 0.996887 0.006561 -0.078188 0.410000 0.600000
-1.460600 0.269100 0.124800 0.975005 -0.103458 -0.196539 0.380000 0.690000
-1.457200 0.177000 0.160400 0.990570 -0.044801 0.129398 0.330000 0.600000
-1.448900 0.269100 0.161600 0.994964 -0.071261 0.070223 0.330000 0.690000
-1.480200 0.272500 0.233000 0.919095 -0.042512 0.391675 0.250000 0.690000
-1.443000 0.362500 0.149000 0.982665 -0.058931 0.175604 0.330000 0.780000
-1.454200 0.293000 0.111800 0.978027 -0.195776 0.071291 0.390000 0.730000
-1.449800 0.310700 0.079400 0.989196 -0.146031 0.012024 0.410000 0.760000
-1.445400 0.347100 0.043100 0.996246 -0.086184 -0.004212 0.420000 0.780000
-1.437600 0.478800 0.111300 0.995666 -0.035585 0.085726 0.380000 0.890000
-1.434800 0.473300 0.039200 0.996460 -0.083499 0.005554 0.460000 0.890000
-1.437000 0.475300 -0.031400 0.995819 -0.084658 -0.033418 0.530000 0.890000
-1.473600 0.482700 0.241700 0.935423 -0.064760 0.347484 0.250000 0.890000
-1.477800 0.370000 0.232000 0.923856 -0.034211 0.381115 0.250000 0.780000
-1.449800 0.476100 0.176400 0.956420 -0.025788 0.290811 0.320000 0.890000
-1.488300 0.177000 0.238300 0.927152 -0.058077 0.370128 0.250000 0.600000
-0.132500 0.931100 1.445500 0.167150 -0.174078 -0.970428 0.500000 0.990000
-0.901600 0.253000 -1.151500 0.558008 0.000000 0.829835 0.750000 0.000000
-0.710800 0.253000 -1.279800 0.558008 0.000000 0.829835 1.000000 0.000000
-0.901600 0.462800 -1.151500 0.558008 0.000000 0.829835 0.750000 0.250000
-0.710800 0.462800 -1.279800 0.558008 0.000000 0.829835 1.000000 0.250000
-0.495800 0.049900 1.328600 0.280526 0.860683 0.424818 0.150000 0.500000
-0.570500 0.101600 1.264200 0.143193 0.841182 0.521409 0.230000 0.360000
-0.745300 0.025300 1.324200 -0.312449 0.685720 0.657338 0.000000 0.210000
-0.497100 0.093700 1.140900 0.549272 0.835566 -0.008515 0.400000 0.360000
-0.417600 0.037400 1.112800 0.582232 0.805536 -0.109928 0.490000 0.500000
-0.588700 0.105400 0.999700 0.309824 0.834529 -0.455550 0.440000 0.210000
-0.579600 0.042800 0.921800 0.265206 0.753014 -0.602130 0.620000 0.210000
-0.754100 0.100100 0.981800 -0.212561 0.842677 -0.494644 0.400000 0.360000
-0.831400 0.045900 0.932000 -0.377178 0.808832 -0.451125 0.490000 0.500000
-0.827900 0.105400 1.105000 -0.537461 0.843165 0.012970 0.230000 0.360000
-0.914300 0.025300 1.133200 -0.671560 0.724876 0.153325 0.150000 0.500000
-0.736200 0.105400 1.246200 -0.319742 0.793573 0.517655 0.190000 0.210000
-0.570500 0.101600 1.264200 0.210761 0.930113 0.300699 0.250000 0.360000
-0.662500 0.168100 1.123000 0.017579 0.999817 -0.001587 0.310000 0.210000
-0.497100 0.093700 1.140900 0.409467 0.912259 0.008179 0.410000 0.360000
-0.754100 0.100100 0.981800 0.019318 0.895810 -0.443953 0.410000 0.360000
-0.421500 0.000500 1.284100 0.402631 0.875088 0.268441 0.150000 0.500000
-0.500900 0.053200 1.231400 0.319926 0.922971 0.213843 0.230000 0.360000
-0.656300 0.000500 1.375900 -0.044282 0.842524 0.536790 0.000000 0.210000
-0.426700 0.000500 1.034000 0.487350 0.844295 -0.222694 0.490000 0.500000
-0.505300 0.053200 1.062200 0.357677 0.913083 -0.195776 0.400000 0.360000
-0.662900 0.086100 1.123800 0.000000 1.000000 -0.000061 0.310000 0.210000
-0.658500 0.053200 1.293000 -0.060976 0.906949 0.416761 0.190000 0.210000
-0.820500 0.053200 1.185500 -0.360485 0.906888 0.218024 0.230000 0.360000
-0.897700 0.000500 1.215700 -0.477493 0.842463 0.249367 0.150000 0.500000
-0.824900 0.053200 1.016300 -0.318705 0.921354 -0.222541 0.400000 0.360000
-0.904300 0.000500 0.963600 -0.399091 0.875057 -0.273782 0.490000 0.500000
-0.683300 0.000500 0.887100 -0.020325 0.795953 -0.604999 0.620000 0.210000
-0.667300 0.053200 0.954700 0.038911 0.891903 -0.450514 0.440000 0.210000
-0.534400 0.000500 0.942600 0.306436 0.818659 -0.485641 0.570000 0.380000
-0.756900 0.134500 1.213300 -0.191931 0.940184 0.281350 0.190000 0.210000
-0.642800 0.121700 1.335400 0.046937 0.947264 0.316935 0.150000 0.500000
-0.624800 0.136400 1.287700 0.089297 0.944182 0.316996 0.250000 0.360000
-0.643100 0.179700 1.117900 0.002106 0.998260 -0.058443 0.310000 0.210000
-0.520500 0.144300 1.196000 0.475295 0.870632 0.126743 0.410000 0.360000
-0.480800 0.090100 1.273000 0.512528 0.806299 0.295206 0.490000 0.500000
-0.797000 0.124600 1.215200 -0.215369 0.929716 0.298715 0.000000 0.210000
-0.457400 0.077000 1.029500 0.571917 0.812647 -0.111698 0.620000 0.210000
-0.542600 0.125400 1.038500 0.432173 0.886166 -0.166967 0.440000 0.210000
-0.542600 0.125400 1.038500 0.310373 0.814997 -0.489273 0.190000 0.210000
-0.662500 0.077200 0.895400 0.067415 0.812433 -0.579089 0.150000 0.500000
-0.674000 0.130700 0.971200 -0.017335 0.886074 -0.463149 0.250000 0.360000
-0.772300 0.128700 1.053100 -0.319102 0.937651 -0.137669 0.410000 0.360000
-0.836900 0.097400 1.000700 -0.313273 0.912046 -0.264565 0.490000 0.500000
-0.457400 0.077000 1.029500 0.364940 0.745994 -0.557024 0.000000 0.210000
-0.797000 0.124600 1.215200 -0.276650 0.960784 -0.017853 0.620000 0.210000
-0.756900 0.134500 1.213300 -0.291940 0.956389 -0.006531 0.440000 0.210000
-0.598400 0.221800 1.200600 0.271676 0.921751 0.276620 0.220000 0.370000
-0.488500 0.179600 1.111700 0.488510 0.849117 0.200842 0.000000 0.210000
-0.559200 0.219500 1.097300 0.368786 0.921781 0.119419 0.160000 0.210000
-0.664700 0.239600 1.120700 -0.006592 0.999634 -0.026093 0.310000 0.210000
-0.712800 0.221800 1.225500 -0.168218 0.892361 0.418744 0.400000 0.370000
-0.574600 0.182900 1.266000 0.280160 0.845485 0.454543 0.140000 0.520000
-0.752800 0.179700 1.266300 -0.323954 0.795618 0.511856 0.490000 0.520000
-0.770700 0.219100 1.144900 -0.408948 0.876095 0.255348 0.470000 0.210000
-0.841200 0.177500 1.132000 -0.523698 0.784600 0.331858 0.620000 0.210000
-0.559200 0.219500 1.097300 0.374493 0.893674 -0.247108 0.470000 0.210000
-0.563800 0.175000 0.965600 0.261574 0.846065 -0.464461 0.490000 0.520000
-0.616400 0.216800 1.016600 0.109500 0.904355 -0.412458 0.400000 0.370000
-0.730800 0.216800 1.041600 -0.281045 0.903958 -0.322184 0.220000 0.370000
-0.754300 0.174200 0.977600 -0.290994 0.827967 -0.479324 0.140000 0.520000
-0.488500 0.179600 1.111700 0.514481 0.806757 -0.290567 0.620000 0.210000
-0.841200 0.177500 1.132000 -0.496597 0.832820 -0.244423 0.000000 0.210000
-0.770700 0.219100 1.144900 -0.379559 0.909970 -0.166845 0.160000 0.210000
-0.688800 0.194800 1.234200 -0.029450 0.845271 0.533494 0.190000 0.210000
-0.533200 0.137300 1.318800 0.263802 0.851131 0.453780 0.150000 0.500000
-0.566400 0.186000 1.228700 0.317362 0.908444 0.271981 0.240000 0.360000
-0.662800 0.223100 1.123600 0.011414 0.997986 -0.062197 0.310000 0.210000
-0.518400 0.180700 1.101800 0.556261 0.804132 -0.209449 0.410000 0.360000
-0.446800 0.117200 1.153200 0.673147 0.739402 -0.009674 0.490000 0.500000
-0.750400 0.112400 1.293100 -0.162358 0.651234 0.741264 0.000000 0.210000
-0.572400 0.117100 0.949200 0.512131 0.713248 -0.478500 0.620000 0.210000
-0.622900 0.176900 1.009800 0.319010 0.860134 -0.397900 0.440000 0.210000
-0.622900 0.176900 1.009800 0.022340 0.844691 -0.534745 0.190000 0.210000
-0.781600 0.138200 0.943600 -0.254769 0.889950 -0.378216 0.150000 0.500000
-0.748300 0.176400 1.023600 -0.284585 0.905789 -0.313883 0.240000 0.360000
-0.783500 0.194800 1.140900 -0.519974 0.846156 0.116489 0.410000 0.360000
-0.874300 0.112400 1.104000 -0.657674 0.752678 0.029878 0.490000 0.500000
-0.572400 0.117100 0.949200 0.092898 0.746330 -0.659047 0.000000 0.210000
-0.750400 0.112400 1.293100 -0.577288 0.658895 0.482253 0.620000 0.210000
-0.688800 0.194800 1.234200 -0.381481 0.839351 0.387188 0.440000 0.210000
3 0 1 2
3 0 3 1
3 4 3 0
3 2 1 5
3 2 5 6
3 6 5 7
3 6 7 8
3 8 7 9
3 10 11 12
3 13 10 12
3 14 10 13
3 12 11 15
3 16 17 18
3 16 19 17
3 20 19 16
3 18 17 21
3 22 23 24
3 22 24 25
3 26 25 24
3 26 24 27
3 26 27 28
3 29 28 27
3 30 28 29
3 29 31 30
3 32 31 29
3 33 31 32
3 32 34 33
3 35 34 32
3 35 36 34
3 37 36 35
3 35 38 37
3 38 35 29
3 29 39 38
3 27 39 29
3 27 40 39
3 41 40 27
3 41 27 24
3 41 24 42
3 43 41 42
3 40 41 43
3 43 44 45
3 42 44 43
3 42 46 44
3 42 47 46
3 42 24 47
3 47 24 23
3 47 23 48
3 48 46 47
3 49 48 23
3 23 50 49
3 23 51 50
3 23 52 51
3 22 52 23
3 51 52 53
3 53 54 51
3 51 54 55
3 51 55 56
3 56 50 51
3 57 58 59
3 60 57 59
3 61 57 60
3 61 62 57
3 61 63 62
3 63 64 62
3 63 65 64
3 64 65 66
3 64 66 58
3 62 64 58
3 57 62 58
3 67 58 66
3 68 67 66
3 69 67 68
3 69 70 67
3 69 71 70
3 71 72 70
3 71 73 72
3 73 74 72
3 73 75 74
3 75 76 74
3 75 77 76
3 77 59 76
3 60 59 77
3 76 59 58
3 74 76 58
3 72 74 58
3 70 72 58
3 67 70 58
3 78 79 80
3 80 79 81
3 82 83 84
3 85 83 82
3 85 86 83
3 87 86 85
3 88 86 87
3 82 84 89
3 90 91 92
3 92 91 31
3 92 31 33
3 93 30 31
3 31 91 93
3 94 95 96
3 94 96 97
3 98 94 97
3 98 97 99
3 100 98 99
3 100 99 101
3 102 100 101
3 102 101 103
3 104 102 103
3 104 103 105
3 106 104 105
3 106 105 107
3 108 106 107
3 108 107 109
3 95 108 109
3 95 109 96
3 96 109 110
3 97 96 110
3 99 97 110
3 101 99 110
3 103 101 110
3 105 103 110
3 107 105 110
3 109 107 110
3 66 65 68
3 111 112 113
3 113 112 114
3 113 114 115
3 113 115 116
3 116 115 117
3 116 117 118
3 119 120 121
3 121 120 122
3 123 124 125
3 125 124 126
3 126 127 125
3 126 128 127
3 126 124 128
3 128 124 129
3 128 129 130
3 128 130 131
3 131 132 128
3 133 132 131
3 133 131 134
3 135 136 137
3 128 137 136
3 127 128 136
3 125 127 138
3 139 55 54
3 32 29 35
3 140 141 142
3 142 141 143
3 137 128 132
3 144 145 146
3 144 147 145
3 148 147 144
3 148 149 147
3 150 149 148
3 150 151 149
3 152 151 150
3 152 153 151
3 154 153 152
3 154 155 153
3 146 155 154
3 146 145 155
3 155 156 157
3 153 155 157
3 151 153 157
3 156 158 157
3 158 149 157
3 149 159 157
3 160 161 162
3 160 163 161
3 161 163 164
3 161 164 165
3 166 161 165
3 162 161 166
3 167 162 166
3 168 162 167
3 169 168 167
3 170 168 169
3 170 169 171
3 171 169 172
3 173 171 172
3 164 173 172
3 164 172 165
3 172 169 165
3 169 167 165
3 167 166 165
3 174 175 176
3 174 176 177
3 176 178 177
3 176 179 178
3 175 179 176
3 180 175 174
3 178 181 182
3 178 182 177
3 179 181 178
3 183 184 185
3 183 185 177
3 185 186 177
3 185 187 186
3 184 187 185
3 188 184 183
3 186 189 190
3 186 190 177
3 187 189 186
3 191 192 193
3 191 193 194
3 195 191 194
3 195 196 191
3 197 196 195
3 198 197 195
3 198 195 194
3 199 197 198
3 200 201 202
3 200 202 194
3 202 203 194
3 202 204 203
3 201 204 202
3 205 201 200
3 203 206 207
3 203 207 194
3 204 206 203
3 196 192 191
3 208 209 210
3 208 210 211
3 210 212 211
3 210 213 212
3 209 213 210
3 214 209 208
3 212 215 216
3 212 216 211
3 213 215 212
3 217 218 219
3 217 219 211
3 219 220 211
3 219 221 220
3 218 221 219
3 222 218 217
3 220 223 224
3 220 224 211
3 221 223 220
3 163 173 164
