ply
format ascii 1.0
comment Created by Blender 3.0.1 - www.blender.org
element vertex 79
property float x
property float y
property float z
property float nx
property float ny
property float nz
property float u
property float v
element face 99
property list uchar uint vertex_indices
end_header
1.312400 1.140100 5.414000 0.045625 -0.001373 -0.998932 0.250000 0.630000
1.529900 1.129500 5.435299 0.100894 -0.012787 -0.994812 0.210000 0.620000
1.312000 0.912600 5.414300 -0.025483 0.689993 -0.723350 0.250000 0.580000
0.925700 1.200700 5.414000 0.000397 0.000061 -0.999969 0.320000 0.640000
0.634800 0.772900 5.413700 0.018342 0.751762 -0.659139 0.380000 0.540000
0.345600 1.142200 5.414000 0.001221 0.002533 -0.999969 0.430000 0.630000
-0.100200 0.961600 5.412600 0.070681 0.669179 -0.739708 0.510000 0.580000
-0.514000 1.191100 5.414000 -0.045320 -0.088900 -0.994995 0.600000 0.650000
-1.330100 0.939300 5.483800 -0.064669 0.639668 -0.765893 0.750000 0.580000
-1.330100 0.935000 4.818300 -0.070681 0.727073 -0.682852 0.760000 0.560000
-2.560000 0.852500 4.865800 -0.072359 0.712729 -0.697684 0.990000 0.560000
-2.560000 -0.137900 4.815000 -0.042573 0.671834 -0.739433 0.990000 0.320000
-1.347300 -0.105900 4.782300 -0.050630 0.660451 -0.749107 0.760000 0.320000
-2.560000 -0.224400 4.205200 -0.063723 0.663564 -0.745384 0.990000 0.300000
-0.911700 -0.191900 4.094500 -0.030763 0.652608 -0.757042 0.680000 0.300000
-0.921300 -1.280000 4.094500 -0.033784 0.000183 -0.999420 0.680000 0.010000
-2.560000 -1.280000 4.205200 -0.067385 0.000000 -0.997711 0.990000 0.010000
0.717300 -1.280000 4.094500 0.024232 -0.013153 -0.999603 0.360000 0.010000
0.736700 -0.192000 4.094500 -0.266549 0.289834 -0.919187 0.360000 0.300000
1.307700 -0.192000 4.094500 0.304727 0.263192 -0.915342 0.250000 0.300000
1.304300 0.537400 4.094500 0.575793 0.578631 -0.577593 0.250000 0.470000
0.736700 0.537400 4.094500 -0.577349 0.577349 -0.577319 0.360000 0.470000
0.736700 -0.106000 4.703000 -0.736625 0.669607 -0.094638 0.360000 0.320000
-0.266200 -0.105900 4.703000 -0.445387 0.757225 -0.477676 0.550000 0.320000
-0.266200 0.172700 4.703000 -0.324137 0.299173 -0.897427 0.550000 0.390000
-0.266200 0.146600 4.431700 -0.582537 0.546495 -0.601611 0.550000 0.380000
0.736700 0.172700 4.703000 -0.803766 0.400037 -0.440352 0.360000 0.390000
0.736700 0.537300 4.703000 -0.301309 0.300851 -0.904813 0.360000 0.470000
0.736700 0.146600 4.431700 0.000000 0.672384 -0.740165 0.360000 0.380000
-0.266200 -0.155000 4.431700 -0.663137 0.000000 -0.748466 0.550000 0.320000
0.736700 -0.155100 4.431700 0.000000 0.000000 -1.000000 0.360000 0.320000
2.560000 0.884700 5.545100 0.099277 0.682516 -0.724052 0.010000 0.580000
2.560000 0.884600 5.179400 0.087741 0.723441 -0.684744 0.010000 0.570000
1.312000 0.912700 5.048600 -0.028962 0.718009 -0.695395 0.250000 0.570000
1.311500 0.615600 5.049000 0.107089 0.726646 -0.678579 0.250000 0.500000
2.560000 0.586300 5.179400 0.091403 0.686880 -0.720969 0.010000 0.500000
2.560000 0.586300 4.834000 0.088412 0.723228 -0.684896 0.010000 0.490000
1.311500 0.615600 4.703600 0.097324 0.677755 -0.728782 0.250000 0.490000
0.634900 0.715600 4.702600 0.161473 0.615589 -0.771325 0.380000 0.520000
1.304300 0.537400 4.703000 0.355998 0.299753 -0.885067 0.250000 0.470000
1.305800 0.217600 4.703000 0.792993 0.381726 -0.474746 0.250000 0.390000
1.307700 -0.105900 4.703000 0.720420 0.686758 -0.096469 0.250000 0.320000
2.560000 -0.200100 4.225500 0.081362 0.674551 -0.733696 0.010000 0.300000
2.560000 -0.114700 4.834000 0.021485 0.990051 -0.138951 0.010000 0.320000
2.560000 -1.280000 4.225500 0.088992 -0.017457 -0.995849 0.010000 0.010000
1.940400 1.173600 5.469200 0.093661 -0.060183 -0.993774 0.130000 0.630000
2.560000 1.144300 5.545100 0.121586 0.000000 -0.992553 0.010000 0.630000
1.305800 0.172900 4.540200 0.091861 0.589923 -0.802179 0.250000 0.380000
2.560000 0.155700 4.671200 0.090030 0.621204 -0.778436 0.010000 0.380000
1.307700 -0.138500 4.540200 0.103885 0.000519 -0.994568 0.250000 0.320000
2.560000 0.200100 4.834000 0.091983 0.589190 -0.802698 0.010000 0.390000
2.560000 -0.147200 4.671200 0.104038 0.000000 -0.994568 0.010000 0.320000
-1.521200 1.316900 5.430400 -0.048067 -0.150487 -0.987426 0.800000 0.670000
-2.560000 0.863500 5.555000 -0.126988 0.678823 -0.723228 0.990000 0.570000
-2.166300 1.260000 5.493200 -0.106723 -0.048799 -0.993072 0.920000 0.660000
-2.560000 1.261800 5.555000 -0.155065 0.000000 -0.987884 0.990000 0.660000
-0.100100 0.951400 4.702600 0.061739 0.718009 -0.693258 0.520000 0.570000
0.634900 0.773200 5.048000 0.141545 0.979797 -0.141209 0.380000 0.530000
-0.748100 0.278400 4.512200 -0.101505 0.994751 -0.012482 0.690000 0.580000
0.076300 0.391200 4.506200 -0.164068 0.986389 -0.008393 0.630000 0.580000
-0.748100 0.275600 4.283500 -0.078585 0.691092 -0.718467 0.700000 0.560000
-1.748600 0.207900 4.293300 -0.025666 0.689077 -0.724204 0.760000 0.560000
-1.748600 0.211700 4.518199 -0.020722 0.999603 -0.017518 0.750000 0.580000
-2.550400 0.227300 4.309400 0.004151 0.708762 -0.705405 0.990000 0.560000
-2.550300 0.232900 4.542300 0.025697 0.999359 -0.024018 0.990000 0.570000
-2.550400 0.193000 4.309400 -0.020051 0.000000 -0.999786 0.990000 0.560000
-1.748600 0.173700 4.293300 -0.014985 0.000000 -0.999878 0.760000 0.560000
-0.748100 0.241300 4.283500 -0.010743 0.000000 -0.999939 0.700000 0.560000
0.076300 0.355100 4.273700 -0.019562 0.000000 -0.999786 0.640000 0.570000
0.076300 0.389300 4.273700 -0.130375 0.688925 -0.712973 0.640000 0.570000
0.746300 0.487800 4.254200 -0.029084 0.000000 -0.999573 0.520000 0.570000
0.746300 0.522100 4.254200 -0.164006 0.730064 -0.663381 0.520000 0.570000
0.746300 0.522100 4.494200 -0.193884 0.981017 -0.001648 0.510000 0.580000
0.360700 1.668600 5.617899 0.012299 0.000000 -0.999908 0.220000 0.920000
-0.788700 0.650400 5.617899 0.000000 0.000000 -1.000000 0.450000 0.690000
-0.774700 1.668600 5.617899 0.000000 0.000000 -1.000000 0.450000 0.920000
0.360700 0.660100 5.617899 0.011505 0.000000 -0.999908 0.220000 0.690000
1.488400 0.856200 5.645600 0.024537 0.000000 -0.999695 0.000000 0.690000
1.488400 1.677000 5.645600 0.024537 0.000000 -0.999695 0.000000 0.920000
3 0 1 2
3 3 0 2
3 4 3 2
3 5 3 4
3 6 5 4
3 7 5 6
3 6 8 7
3 8 6 9
3 10 8 9
3 9 11 10
3 12 11 9
3 12 13 11
3 14 13 12
3 15 13 14
3 16 13 15
3 15 14 17
3 17 14 18
3 19 17 18
3 18 20 19
3 21 20 18
3 18 22 21
3 18 23 22
3 18 14 23
3 23 14 12
3 23 12 24
3 24 25 23
3 24 26 25
3 26 24 27
3 26 27 21
3 22 26 21
3 25 26 28
3 28 29 25
3 30 29 28
3 23 25 29
3 2 1 31
3 32 2 31
3 33 2 32
3 32 34 33
3 35 34 32
3 35 36 34
3 34 36 37
3 38 34 37
3 37 27 38
3 39 27 37
3 27 39 21
3 21 39 20
3 20 39 40
3 41 20 40
3 19 20 41
3 41 42 19
3 43 42 41
3 19 42 44
3 44 17 19
3 1 45 31
3 31 45 46
3 47 48 49
3 40 48 47
3 50 48 40
3 40 39 50
3 50 39 36
3 36 39 37
3 49 48 51
3 7 8 52
3 8 53 52
3 53 8 10
3 52 53 54
3 53 55 54
3 24 9 56
3 56 27 24
3 38 27 56
3 56 57 38
3 56 6 57
3 9 6 56
3 12 9 24
3 34 57 33
3 57 34 38
3 57 6 4
3 2 57 4
3 33 57 2
3 58 59 60
3 61 58 60
3 62 58 61
3 63 62 61
3 64 62 63
3 61 65 63
3 66 65 61
3 66 61 67
3 67 61 60
3 67 60 68
3 68 60 69
3 68 69 70
3 70 69 71
3 69 72 71
3 59 72 69
3 60 59 69
3 73 74 75
3 76 74 73
3 76 73 77
3 77 73 78
