ply
format ascii 1.0
comment Created by Blender 3.0.1 - www.blender.org
element vertex 93
property float x
property float y
property float z
property float nx
property float ny
property float nz
property float u
property float v
element face 125
property list uchar uint vertex_indices
end_header
-1.041300 0.000000 0.676200 -0.000000 1.000000 -0.000000 0.500000 0.310000
-1.202300 0.000000 0.810600 -0.000000 1.000000 -0.000000 0.570000 0.190000
-0.899200 0.000000 0.915000 -0.000000 1.000000 -0.000000 0.630000 0.390000
-0.580600 0.000000 0.595400 0.000000 1.000000 -0.000000 0.410000 0.600000
-0.724700 0.000000 0.300200 0.000000 1.000000 -0.000000 0.230000 0.480000
-1.208200 0.000000 0.500500 0.000000 1.000000 -0.000000 0.340000 0.210000
-1.190000 0.000000 0.000000 0.000000 1.000000 -0.000000 0.000000 0.220000
-0.804300 0.000000 0.000000 0.000000 1.000000 -0.000000 0.000000 0.420000
-0.295800 -0.000000 -0.000900 -0.000000 1.000000 -0.000000 0.000000 0.790000
-0.262800 0.000000 0.113000 0.000000 1.000000 -0.000000 0.080000 0.810000
0.000000 0.000000 0.000000 0.000000 1.000000 -0.000000 0.000000 1.000000
-0.203200 0.000000 0.208400 0.000000 1.000000 -0.000000 0.150000 0.860000
-0.113600 0.000000 0.274300 0.000000 1.000000 -0.000000 0.190000 0.920000
0.000000 0.000000 0.294600 -0.000000 1.000000 -0.000000 0.210000 1.000000
0.000000 0.000000 0.841800 0.000000 1.000000 -0.000000 0.580000 1.000000
-0.324600 0.000000 0.783700 0.000000 1.000000 -0.000000 0.540000 0.790000
-0.368000 0.000000 1.446800 0.000000 1.000000 -0.000000 0.960000 0.770000
-0.508200 0.000000 1.226900 0.000000 1.000000 -0.000000 0.820000 0.670000
-0.680700 0.000000 1.052200 -0.000000 1.000000 -0.000000 0.730000 0.530000
-0.796200 0.000000 1.197700 -0.000000 1.000000 -0.000000 0.840000 0.460000
-0.581700 0.000000 1.404300 -0.000000 1.000000 -0.000000 0.920000 0.620000
0.000000 0.000000 1.483600 0.000000 1.000000 -0.000000 0.960000 1.000000
0.581700 0.000000 1.404300 -0.000000 1.000000 -0.000000 0.380000 0.090000
0.300500 0.000000 0.751700 -0.000000 1.000000 -0.000000 0.220000 0.460000
0.368000 0.000000 1.446800 -0.000000 1.000000 -0.000000 0.230000 0.050000
0.721000 0.000000 1.241100 0.000000 1.000000 -0.000000 0.460000 0.140000
0.548300 0.000000 0.564500 -0.000000 1.000000 -0.000000 0.410000 0.590000
0.105200 0.000000 0.263100 0.000000 1.000000 -0.000000 0.080000 0.810000
0.000000 0.000000 0.294600 0.000000 1.000000 -0.000000 0.000000 0.790000
0.191900 0.000000 0.197600 -0.000000 1.000000 -0.000000 0.150000 0.860000
0.250900 0.000000 0.102300 0.000000 1.000000 -0.000000 0.190000 0.920000
0.268300 -0.000000 -0.002700 0.000000 1.000000 -0.000000 0.210000 1.000000
0.766500 -0.000000 -0.007700 0.000000 1.000000 -0.000000 0.580000 1.000000
0.716800 0.000000 0.292200 0.000000 1.000000 -0.000000 0.530000 0.770000
1.190000 0.000000 0.000000 0.000000 1.000000 -0.000000 0.780000 1.000000
1.145300 0.000000 0.474400 -0.000000 1.000000 -0.000000 0.750000 0.680000
1.520000 0.000000 0.000000 0.000000 1.000000 -0.000000 1.000000 1.000000
1.404300 0.000000 0.581700 -0.000000 1.000000 -0.000000 0.920000 0.610000
1.088500 0.000000 0.622900 -0.000000 1.000000 -0.000000 0.680000 0.520000
0.954800 0.000000 0.860400 -0.000000 1.000000 -0.000000 0.610000 0.370000
1.074800 0.000000 1.074800 0.000000 1.000000 -0.000000 0.680000 0.260000
0.000000 0.000000 0.841800 -0.000000 1.000000 -0.000000 0.000000 0.420000
0.000000 0.000000 1.483600 -0.000000 1.000000 -0.000000 0.000000 0.040000
-1.404300 0.000000 0.581700 0.000000 1.000000 -0.000000 0.380000 0.090000
-1.491800 0.000000 0.296700 0.000000 1.000000 -0.000000 0.200000 0.040000
-1.505900 0.000000 0.148400 -0.000000 1.000000 -0.000000 0.100000 0.040000
-1.520000 0.000000 0.000000 0.000000 1.000000 -0.000000 0.000000 0.040000
-0.278100 -0.000000 -0.115200 0.000000 1.000000 -0.000000 0.190000 0.920000
-0.295800 -0.000000 -0.000900 0.000000 1.000000 -0.000000 0.210000 1.000000
-0.227500 -0.000000 -0.228500 0.000000 1.000000 -0.000000 0.150000 0.860000
-0.125200 -0.000000 -0.302300 0.000000 1.000000 -0.000000 0.080000 0.810000
-0.000200 -0.000000 -0.313200 -0.000000 1.000000 -0.000000 0.000000 0.790000
0.000000 -0.000000 -0.902900 -0.000000 1.000000 -0.000000 0.000000 0.420000
-0.357700 -0.000000 -0.863600 0.000000 1.000000 -0.000000 0.210000 0.460000
0.000000 -0.000000 -1.166900 0.000000 1.000000 -0.000000 0.000000 0.220000
-0.475000 -0.000000 -1.146700 -0.000000 1.000000 -0.000000 0.290000 0.270000
-0.871100 -0.000000 -0.871100 -0.000000 1.000000 -0.000000 0.550000 0.430000
-0.627000 -0.000000 -0.627000 -0.000000 1.000000 -0.000000 0.400000 0.590000
-1.099400 -0.000000 -0.455400 0.000000 1.000000 -0.000000 0.720000 0.690000
-0.794600 -0.000000 -0.329100 0.000000 1.000000 -0.000000 0.520000 0.780000
-1.190000 0.000000 0.000000 0.000000 1.000000 -0.000000 0.780000 1.000000
-0.804300 0.000000 0.000000 0.000000 1.000000 -0.000000 0.580000 1.000000
0.108200 -0.000000 -0.256700 -0.000000 1.000000 -0.000000 0.190000 0.920000
-0.000200 -0.000000 -0.313200 -0.000000 1.000000 -0.000000 0.210000 1.000000
0.202900 -0.000000 -0.201300 0.000000 1.000000 -0.000000 0.150000 0.860000
0.257500 -0.000000 -0.100200 0.000000 1.000000 -0.000000 0.080000 0.810000
0.268300 -0.000000 -0.002700 -0.000000 1.000000 -0.000000 0.000000 0.790000
0.766500 -0.000000 -0.007700 0.000000 1.000000 -0.000000 0.000000 0.420000
0.761300 -0.000000 -0.308900 -0.000000 1.000000 -0.000000 0.210000 0.470000
1.190000 0.000000 0.000000 -0.000000 1.000000 -0.000000 0.000000 0.220000
1.118300 -0.000000 -0.463200 0.000000 1.000000 -0.000000 0.320000 0.310000
0.562800 -0.000000 -0.560200 -0.000000 1.000000 -0.000000 0.440000 0.590000
0.290900 -0.000000 -0.702300 0.000000 1.000000 -0.000000 0.500000 0.820000
0.455400 -0.000000 -1.099400 0.000000 1.000000 -0.000000 0.700000 0.710000
0.000000 -0.000000 -0.902900 0.000000 1.000000 -0.000000 0.580000 1.000000
0.000000 -0.000000 -1.166900 0.000000 1.000000 -0.000000 0.780000 1.000000
0.000000 -0.000000 -1.473900 0.000000 1.000000 -0.000000 1.000000 1.000000
0.581700 -0.000000 -1.404300 0.000000 1.000000 -0.000000 0.920000 0.610000
0.832000 -0.000000 -1.141400 -0.000000 1.000000 -0.000000 0.790000 0.450000
1.074800 -0.000000 -1.074800 0.000000 1.000000 -0.000000 0.730000 0.320000
1.145000 -0.000000 -0.861000 0.000000 1.000000 -0.000000 0.620000 0.240000
1.404300 -0.000000 -0.581700 0.000000 1.000000 -0.000000 0.380000 0.090000
1.427400 -0.000000 -0.349000 -0.000000 1.000000 -0.000000 0.220000 0.060000
1.520000 0.000000 0.000000 0.000000 1.000000 -0.000000 0.000000 0.000000
-0.581700 -0.000000 -1.404300 -0.000000 1.000000 -0.000000 0.380000 0.090000
0.000000 -0.000000 -1.473900 -0.000000 1.000000 -0.000000 0.000000 0.000000
-1.074800 -0.000000 -1.074800 0.000000 1.000000 -0.000000 0.670000 0.260000
-1.140100 -0.000000 -0.859000 -0.000000 1.000000 -0.000000 0.760000 0.390000
-1.404300 -0.000000 -0.581700 -0.000000 1.000000 -0.000000 0.920000 0.610000
-1.491800 -0.000000 -0.296700 -0.000000 1.000000 -0.000000 0.950000 0.810000
-1.505900 -0.000000 -0.148400 0.000000 1.000000 -0.000000 0.950000 0.900000
-1.520000 0.000000 0.000000 0.000000 1.000000 -0.000000 0.960000 1.000000
-1.074800 0.000000 1.074800 0.000000 1.000000 -0.000000 0.710000 0.300000
3 0 1 2
3 3 0 2
3 4 0 3
3 5 0 4
3 4 6 5
3 7 6 4
3 7 4 8
3 8 4 9
3 10 8 9
3 10 9 11
3 10 11 12
3 10 12 13
3 12 14 13
3 15 14 12
3 15 16 14
3 15 17 16
3 15 18 17
3 3 18 15
3 2 18 3
3 18 2 19
3 18 19 17
3 20 17 19
3 20 16 17
3 14 16 21
3 22 23 24
3 22 25 23
3 23 25 26
3 23 26 27
3 28 23 27
3 10 28 27
3 10 27 29
3 10 29 30
3 10 30 31
3 30 32 31
3 33 32 30
3 32 33 34
3 34 33 35
3 35 36 34
3 37 36 35
3 35 38 37
3 33 38 35
3 26 38 33
3 39 38 26
3 40 38 39
3 40 39 25
3 26 25 39
3 26 33 29
3 27 26 29
3 29 33 30
3 41 42 24
3 23 41 24
3 41 23 28
3 43 1 5
3 43 5 44
3 5 6 44
3 44 6 45
3 46 45 6
3 10 47 48
3 10 49 47
3 10 50 49
3 10 51 50
3 52 50 51
3 53 50 52
3 52 54 53
3 53 54 55
3 56 53 55
3 57 53 56
3 58 57 56
3 59 57 58
3 60 59 58
3 61 59 60
3 59 61 47
3 49 59 47
3 57 59 49
3 50 57 49
3 53 57 50
3 10 62 63
3 10 64 62
3 10 65 64
3 10 66 65
3 67 65 66
3 68 65 67
3 67 69 68
3 68 69 70
3 68 70 71
3 68 71 65
3 65 71 64
3 71 72 64
3 72 71 73
3 72 73 74
3 74 63 72
3 72 63 62
3 64 72 62
3 74 73 75
3 73 76 75
3 77 76 73
3 77 73 78
3 73 71 78
3 79 78 71
3 71 80 79
3 80 71 70
3 81 80 70
3 81 70 82
3 70 69 82
3 83 82 69
3 84 55 85
3 84 86 55
3 55 86 56
3 86 87 56
3 58 56 87
3 88 58 87
3 88 89 58
3 60 58 89
3 89 90 60
3 91 60 90
3 85 55 54
3 92 19 2
3 92 2 1
3 0 5 1
3 37 38 40
3 47 61 48
3 15 12 3
3 3 12 11
3 3 11 4
3 4 11 9
