ply
format ascii 1.0
comment Created by Blender 3.0.1 - www.blender.org
element vertex 559
property float x
property float y
property float z
property float nx
property float ny
property float nz
property float u
property float v
element face 470
property list uchar uint vertex_indices
end_header
0.946000 0.210000 0.085000 -0.020142 0.999786 -0.001740 0.250000 0.710000
1.026800 0.211900 0.092100 -0.023316 0.999725 -0.002014 0.250000 0.750000
1.088500 0.211900 -0.091300 -0.010224 0.999908 -0.006287 0.130000 0.780000
1.055700 0.211900 0.283400 -0.011170 0.999908 0.004425 0.370000 0.770000
0.913200 0.210000 0.460300 -0.006165 0.999939 0.005737 0.480000 0.710000
1.159200 0.210000 0.481800 -0.001068 0.999908 0.012299 0.480000 0.840000
1.169300 0.211900 0.366700 -0.001404 0.999847 0.016358 0.420000 0.840000
1.295600 0.211900 0.304400 -0.115177 0.986480 -0.116489 0.370000 0.920000
1.405200 0.210000 0.503300 -0.057772 0.704917 0.706900 0.480000 0.980000
1.438100 0.210000 0.128100 0.020356 0.999786 0.001648 0.250000 0.980000
1.357200 0.211900 0.121000 -0.223823 0.974425 -0.019501 0.250000 0.950000
1.328300 0.211900 -0.070300 -0.133213 0.986541 0.094699 0.130000 0.920000
1.457000 0.210000 -0.248400 0.065127 0.712882 -0.698202 0.020000 0.980000
1.224900 0.210000 -0.268700 0.001068 0.999908 -0.012299 0.020000 0.840000
1.214800 0.211900 -0.153500 0.001434 0.999847 -0.016358 0.080000 0.840000
0.978800 0.210000 -0.290200 -0.005066 0.999939 -0.006745 0.020000 0.710000
1.224900 0.195600 -0.268700 0.087031 0.000000 -0.996206 0.000000 0.840000
0.978800 0.195600 -0.290200 0.087031 0.000000 -0.996206 0.000000 0.710000
1.224900 0.210000 -0.268700 0.087031 0.000000 -0.996206 0.020000 0.840000
1.224900 0.195600 -0.268700 0.087069 0.000000 -0.996185 0.000000 0.840000
1.224900 0.210000 -0.268700 0.087069 0.000000 -0.996185 0.020000 0.840000
1.457000 0.195600 -0.248400 0.087100 0.000000 -0.996185 0.000000 0.980000
0.978800 0.195600 -0.290200 0.087008 0.000000 -0.996185 0.000000 0.710000
0.978800 0.210000 -0.290200 -0.642842 0.000000 -0.765954 0.020000 0.710000
0.978800 0.195600 -0.290200 -0.996185 0.000000 -0.087069 0.020000 0.690000
0.946000 0.195600 0.085000 -0.996185 0.000000 -0.087069 0.250000 0.690000
0.946000 0.210000 0.085000 -0.996185 0.000000 -0.087069 0.250000 0.710000
0.946000 0.195600 0.085000 -0.996203 0.000000 -0.087065 0.250000 0.690000
0.913200 0.195600 0.460300 -0.996203 0.000000 -0.087065 0.480000 0.690000
0.946000 0.210000 0.085000 -0.996203 0.000000 -0.087065 0.250000 0.710000
0.913200 0.195600 0.460300 -0.996185 0.000000 -0.087039 0.480000 0.690000
0.913200 0.210000 0.460300 -0.765984 0.000000 0.642842 0.480000 0.710000
0.913200 0.195600 0.460300 -0.087039 0.000000 0.996185 0.500000 0.710000
1.159200 0.195600 0.481800 -0.087039 0.000000 0.996185 0.500000 0.840000
1.159200 0.210000 0.481800 -0.087039 0.000000 0.996185 0.480000 0.840000
1.159200 0.195600 0.481800 -0.087066 0.000000 0.996203 0.500000 0.840000
1.405200 0.195600 0.503300 -0.087066 0.000000 0.996203 0.500000 0.980000
1.159200 0.210000 0.481800 -0.087066 0.000000 0.996203 0.480000 0.840000
1.405200 0.195600 0.503300 -0.087039 0.000000 0.996185 0.500000 0.980000
1.359700 0.215000 0.166800 -0.938841 0.335612 -0.076785 0.120000 0.500000
1.368700 0.254100 0.235400 -0.936979 0.343425 -0.063723 0.160000 0.530000
1.365000 0.228900 0.162800 -0.938749 0.335856 -0.076724 0.120000 0.510000
1.370600 0.226700 0.091500 -0.938444 0.332682 -0.092837 0.070000 0.510000
1.366000 0.212600 0.087500 -0.938505 0.332469 -0.092959 0.070000 0.500000
1.388500 0.258200 0.029800 -0.934568 0.339061 -0.107700 0.030000 0.540000
1.385900 0.247600 0.019000 -0.934568 0.339061 -0.107700 0.030000 0.530000
1.413800 0.314900 -0.005800 -0.928617 0.352702 -0.115085 0.010000 0.570000
1.414000 0.310600 -0.020600 -0.928587 0.352763 -0.115146 0.000000 0.570000
1.439800 0.381600 -0.005800 -0.922056 0.369060 -0.116520 0.010000 0.610000
1.442900 0.384700 -0.020500 -0.922117 0.368908 -0.116367 0.000000 0.620000
1.459500 0.440400 0.029900 -0.918760 0.380444 -0.105472 0.030000 0.650000
1.464700 0.450000 0.019200 -0.918638 0.380688 -0.105411 0.030000 0.660000
1.467600 0.475600 0.091700 -0.914823 0.393109 -0.092349 0.070000 0.680000
1.473800 0.489100 0.087800 -0.914884 0.392926 -0.092532 0.070000 0.680000
1.462000 0.477700 0.163000 -0.918149 0.388653 -0.076998 0.120000 0.680000
1.467500 0.491500 0.167000 -0.918271 0.388318 -0.077090 0.120000 0.680000
1.444100 0.446200 0.224700 -0.922269 0.381176 -0.064028 0.160000 0.650000
1.447600 0.456500 0.235600 -0.922269 0.381146 -0.063967 0.160000 0.660000
1.418800 0.389500 0.260300 -0.927458 0.369671 -0.055696 0.180000 0.610000
1.419500 0.393500 0.275200 -0.927488 0.369671 -0.055574 0.180000 0.620000
1.392800 0.322900 0.260300 -0.933073 0.355480 -0.054689 0.180000 0.570000
1.390600 0.319400 0.275100 -0.933042 0.355510 -0.054720 0.180000 0.570000
1.373100 0.264100 0.224600 -0.937010 0.343425 -0.063631 0.160000 0.540000
-0.964400 0.077800 0.625700 -0.879971 -0.408063 0.243141 0.930000 0.730000
-0.968300 0.090500 0.632900 -0.884945 -0.394177 0.247871 0.930000 0.750000
-1.031500 0.120700 0.588400 -0.641530 -0.306162 0.703330 0.980000 0.730000
-0.971000 0.070800 0.692000 -0.943083 -0.170324 -0.285592 0.880000 0.730000
-0.973100 0.084400 0.691400 -0.944731 -0.158513 -0.286905 0.880000 0.750000
-1.001600 0.090500 0.742700 -0.085421 0.774255 -0.627064 0.820000 0.750000
-1.002300 0.077800 0.750900 -0.597217 -0.411573 -0.688406 0.820000 0.730000
-1.078900 0.120700 0.744600 -0.141606 -0.303201 -0.942320 0.770000 0.730000
-1.075600 0.131700 0.740900 -0.132725 -0.279977 -0.950774 0.770000 0.750000
-0.995500 0.085200 0.755700 0.548692 0.094150 0.830683 0.820000 0.730000
-1.075200 0.127600 0.748900 0.160466 0.394910 0.904569 0.770000 0.730000
-1.002300 0.077800 0.750900 0.155736 -0.636219 0.755608 0.820000 0.720000
-1.078900 0.120700 0.744600 -0.289926 -0.389325 0.874233 0.770000 0.720000
-0.971000 0.070800 0.692000 0.645863 -0.737968 0.195532 0.880000 0.720000
-0.962500 0.079000 0.694600 0.953063 0.089358 0.289254 0.880000 0.730000
-0.956000 0.085200 0.625500 0.917783 0.092898 -0.386029 0.930000 0.730000
-0.964400 0.077800 0.625700 0.546220 -0.637440 -0.543413 0.930000 0.720000
-1.026100 0.127600 0.586900 0.636402 0.398694 -0.660298 0.980000 0.730000
-0.968300 0.090500 0.632900 0.457991 0.880459 0.122440 0.930000 0.750000
-1.030900 0.131700 0.593300 0.583026 0.808405 -0.080599 0.980000 0.750000
-0.973100 0.084400 0.691400 0.419202 0.898801 0.128117 0.880000 0.750000
-0.973100 0.084400 0.691400 0.419752 0.898801 0.126316 0.880000 0.750000
-1.075600 0.131700 0.740900 0.440199 0.807794 0.391980 0.770000 0.750000
-1.030900 0.131700 0.593300 -0.638966 -0.283639 0.714988 0.980000 0.750000
0.998900 0.131700 0.654000 0.000000 1.000000 -0.000000 0.500000 0.630000
1.026500 0.131700 0.682900 0.000000 1.000000 -0.000000 0.490000 0.660000
1.007300 0.131700 0.649400 0.000000 1.000000 -0.000000 0.480000 0.630000
0.999100 0.131700 0.615500 0.000000 1.000000 0.000000 0.480000 0.650000
0.989500 0.131700 0.615200 0.000000 1.000000 0.000000 0.490000 0.660000
1.008900 0.131700 0.581900 0.000000 1.000000 0.000000 0.460000 0.660000
1.000700 0.131700 0.577000 0.000000 1.000000 0.000000 0.470000 0.680000
1.034200 0.131700 0.557800 0.000000 1.000000 0.000000 0.440000 0.670000
1.029600 0.131700 0.549400 0.000000 1.000000 0.000000 0.440000 0.680000
1.068100 0.131700 0.549600 -0.000000 1.000000 0.000000 0.410000 0.660000
1.068300 0.131700 0.540000 0.000000 1.000000 0.000000 0.400000 0.680000
1.101600 0.131700 0.559400 -0.000000 1.000000 0.000000 0.390000 0.650000
1.106600 0.131700 0.551200 -0.000000 1.000000 0.000000 0.380000 0.660000
1.125800 0.131700 0.584700 -0.000000 1.000000 0.000000 0.390000 0.630000
1.134200 0.131700 0.580100 -0.000000 1.000000 0.000000 0.380000 0.630000
1.134000 0.131700 0.618600 -0.000000 1.000000 -0.000000 0.390000 0.650000
1.143600 0.131700 0.618800 -0.000000 1.000000 0.000000 0.380000 0.660000
1.124200 0.131700 0.652100 0.000000 1.000000 -0.000000 0.410000 0.660000
1.132400 0.131700 0.657100 -0.000000 1.000000 -0.000000 0.400000 0.680000
1.098900 0.131700 0.676300 0.000000 1.000000 -0.000000 0.440000 0.670000
1.103500 0.131700 0.684600 -0.000000 1.000000 -0.000000 0.440000 0.680000
1.065000 0.131700 0.684500 0.000000 1.000000 -0.000000 0.460000 0.660000
1.064700 0.131700 0.694100 0.000000 1.000000 -0.000000 0.470000 0.680000
1.031400 0.131700 0.674700 0.000000 1.000000 0.000000 0.480000 0.650000
1.427600 0.347800 0.128300 -0.928373 0.361950 -0.084140 0.090000 0.590000
1.365000 0.228900 0.162800 -0.892209 0.438826 -0.106540 0.110000 0.520000
1.373100 0.264100 0.224600 -0.897336 0.416547 -0.145756 0.150000 0.540000
1.370600 0.226700 0.091500 -0.895779 0.440230 -0.061281 0.070000 0.520000
1.388500 0.258200 0.029800 -0.907193 0.420057 -0.022004 0.040000 0.540000
1.413800 0.314900 -0.005800 -0.923276 0.384045 0.000763 0.020000 0.570000
1.439800 0.381600 -0.005800 -0.939695 0.341960 0.000702 0.020000 0.610000
1.459500 0.440400 0.029900 -0.952239 0.304544 -0.022095 0.040000 0.650000
1.467600 0.475600 0.091700 -0.957396 0.282144 -0.061068 0.070000 0.670000
1.462000 0.477700 0.163000 -0.953764 0.280984 -0.106388 0.110000 0.670000
1.444100 0.446200 0.224700 -0.942473 0.300821 -0.145726 0.150000 0.650000
1.418800 0.389500 0.260300 -0.926389 0.336894 -0.168187 0.170000 0.610000
1.392800 0.322900 0.260300 -0.909757 0.379437 -0.168249 0.170000 0.570000
-1.209400 0.257300 -0.385900 -0.070991 -0.971264 0.227172 0.500000 0.570000
-1.145400 0.257300 -0.365900 -0.070991 -0.971264 0.227172 0.380000 0.570000
-1.219100 0.265400 -0.354300 -0.070991 -0.971264 0.227172 0.500000 0.620000
-1.219100 0.265400 -0.354300 -0.070942 -0.971204 0.227443 0.500000 0.620000
-1.145400 0.257300 -0.365900 -0.070942 -0.971204 0.227443 0.380000 0.570000
-1.155300 0.265400 -0.334400 -0.070942 -0.971204 0.227443 0.380000 0.620000
-1.088300 0.265400 -0.551400 -0.073000 0.970702 0.228797 0.500000 0.620000
-1.161200 0.257300 -0.540300 0.071078 -0.968230 -0.239631 0.380000 0.570000
-1.152300 0.265400 -0.570800 0.071657 -0.968993 -0.236427 0.380000 0.620000
-1.097200 0.257300 -0.520300 -0.072451 0.970031 0.231880 0.500000 0.570000
0.999100 0.131700 0.615500 0.996979 0.076022 0.014649 0.950000 0.790000
1.007300 0.131700 0.649400 0.877957 0.000000 -0.478713 0.990000 0.790000
1.007300 0.099200 0.649400 0.873928 0.093875 -0.476852 0.990000 0.750000
1.004000 0.099200 0.598700 0.951292 0.131657 0.278695 0.930000 0.750000
1.008900 0.131700 0.581900 0.847194 0.076785 0.525681 0.910000 0.790000
1.034200 0.099200 0.557800 0.476852 0.093875 0.873928 0.870000 0.750000
1.034200 0.131700 0.557800 0.478713 0.000000 0.877926 0.870000 0.790000
1.068100 0.131700 0.549600 -0.014924 0.075869 0.996979 0.830000 0.790000
1.084900 0.099200 0.554500 -0.279183 0.131016 0.951231 0.810000 0.750000
1.101600 0.131700 0.559400 -0.525285 0.075838 0.847530 0.790000 0.790000
1.125800 0.099200 0.584700 -0.873745 0.093356 0.477279 0.750000 0.750000
1.125800 0.131700 0.584700 -0.877438 0.000000 0.479629 0.750000 0.790000
1.134000 0.131700 0.618600 -0.996979 0.075869 -0.014924 0.790000 0.790000
1.129100 0.099200 0.635400 -0.951231 0.131016 -0.279183 0.810000 0.750000
1.124200 0.131700 0.652100 -0.847530 0.075808 -0.525285 0.830000 0.790000
1.098900 0.099200 0.676300 -0.477279 0.093356 -0.873745 0.870000 0.750000
1.098900 0.131700 0.676300 -0.479629 0.000000 -0.877438 0.870000 0.790000
1.065000 0.131700 0.684500 0.014649 0.076022 -0.996979 0.910000 0.790000
1.048200 0.099200 0.679600 0.278664 0.131657 -0.951292 0.930000 0.750000
1.031400 0.131700 0.674700 0.525681 0.076785 -0.847194 0.950000 0.790000
0.746000 0.500700 1.194500 0.416578 0.773919 0.476913 0.500000 0.910000
0.709500 0.531000 1.156700 0.324137 0.865841 0.381054 0.500000 1.000000
0.626500 0.496500 1.305700 0.416486 0.774163 0.476608 0.750000 0.910000
0.764800 0.470200 1.213800 0.601306 0.446394 0.662648 0.500000 0.830000
0.645300 0.466000 1.325100 0.601154 0.447066 0.662343 0.750000 0.830000
0.652300 0.423200 1.330600 0.663808 0.201117 0.720328 0.750000 0.750000
0.771800 0.427400 1.219300 0.663808 0.201117 0.720328 0.500000 0.750000
0.590000 0.526800 1.267900 0.324137 0.865841 0.381054 0.750000 1.000000
0.645300 0.466000 1.325100 -0.649983 -0.275399 -0.708243 0.750000 0.830000
0.626500 0.496500 1.305700 -0.416486 -0.774163 -0.476608 0.750000 0.910000
0.764800 0.470200 1.213800 -0.649312 -0.277017 -0.708243 0.500000 0.830000
0.642000 0.430600 1.320100 -0.675314 0.164159 -0.718986 0.750000 0.750000
0.761500 0.434700 1.208900 -0.675161 0.162084 -0.719596 0.500000 0.750000
0.746000 0.500700 1.194500 -0.416578 -0.773919 -0.476913 0.500000 0.910000
0.709500 0.531000 1.156700 -0.324137 -0.865841 -0.381054 0.500000 1.000000
0.590000 0.526800 1.267900 -0.324137 -0.865841 -0.381054 0.750000 1.000000
0.980900 0.524400 1.070400 0.220222 0.890622 0.397809 0.500000 0.910000
0.953600 0.542900 1.019600 0.149998 0.952178 0.266060 0.500000 1.000000
0.837000 0.525500 1.147600 0.220283 0.890530 0.397961 0.750000 0.910000
0.996100 0.500200 1.099600 0.372326 0.625813 0.685354 0.500000 0.830000
0.852200 0.501300 1.176800 0.372509 0.625568 0.685446 0.750000 0.830000
0.860500 0.461400 1.192300 0.434919 0.403363 0.805048 0.750000 0.750000
1.004500 0.460300 1.115100 0.434553 0.404126 0.804834 0.500000 0.750000
0.809600 0.544000 1.096800 0.149846 0.952239 0.265938 0.750000 1.000000
1.129100 0.099200 0.635400 0.000000 1.000000 0.000000 0.400000 0.650000
1.048200 0.099200 0.679600 0.000000 1.000000 0.000000 0.470000 0.650000
1.098900 0.099200 0.676300 0.000000 1.000000 0.000000 0.440000 0.660000
1.007300 0.099200 0.649400 0.000000 1.000000 0.000000 0.480000 0.630000
1.125800 0.099200 0.584700 -0.000000 1.000000 -0.000000 0.400000 0.630000
1.004000 0.099200 0.598700 0.000000 1.000000 -0.000000 0.470000 0.650000
1.084900 0.099200 0.554500 0.000000 1.000000 -0.000000 0.400000 0.650000
1.034200 0.099200 0.557800 -0.000000 1.000000 -0.000000 0.440000 0.660000
0.980900 0.524400 1.070400 -0.220222 -0.890622 -0.397839 0.500000 0.910000
0.837000 0.525500 1.147600 -0.220283 -0.890530 -0.397961 0.750000 0.910000
0.953600 0.542900 1.019600 -0.149998 -0.952178 -0.266060 0.500000 1.000000
0.996100 0.500200 1.099600 -0.419111 -0.473312 -0.774773 0.500000 0.830000
0.852200 0.501300 1.176800 -0.419630 -0.471633 -0.775506 0.750000 0.830000
0.852800 0.465500 1.178400 -0.472457 -0.047426 -0.880062 0.750000 0.750000
0.996800 0.464400 1.101200 -0.472213 -0.048555 -0.880123 0.500000 0.750000
0.809600 0.544000 1.096800 -0.149846 -0.952239 -0.265938 0.750000 1.000000
1.177500 0.357800 0.915600 -0.701987 0.337474 -0.627094 0.190000 0.670000
1.103300 0.335700 0.988900 -0.003876 0.958495 0.285043 0.290000 0.680000
1.121600 0.331700 1.002600 -0.003876 0.958495 0.285043 0.290000 0.670000
1.120400 0.238600 0.941200 -0.716392 0.187872 -0.671896 0.250000 0.590000
1.103300 0.335700 0.988900 -0.997894 0.012940 0.063387 0.290000 0.670000
1.165300 0.221900 0.892300 -0.741203 -0.029115 -0.670614 0.190000 0.570000
1.135400 0.235400 0.952400 -0.203803 -0.978973 -0.008240 0.250000 0.590000
1.120400 0.238600 0.941200 -0.203558 -0.979034 -0.007080 0.250000 0.580000
1.101100 0.239500 0.963800 -0.147191 -0.985107 -0.088565 0.290000 0.580000
1.119400 0.235500 0.977500 -0.147710 -0.984893 -0.090213 0.290000 0.590000
1.121600 0.331700 1.002600 -0.614551 -0.185949 0.766625 0.300000 0.670000
1.119400 0.235500 0.977500 -0.614551 -0.185949 0.766625 0.300000 0.590000
1.101100 0.239500 0.963800 -0.999512 0.015839 0.026795 0.290000 0.590000
1.238400 0.221100 0.816500 -0.636128 0.100101 -0.765038 0.320000 0.590000
1.204400 0.217500 0.844300 -0.999237 -0.012879 -0.036775 0.350000 0.590000
1.239100 0.321500 0.829100 -0.632527 0.259987 -0.729576 0.320000 0.680000
1.235300 0.134600 0.807800 -0.615375 -0.098086 -0.782067 0.320000 0.510000
1.203800 0.131200 0.832800 -0.813929 -0.572924 -0.096133 0.350000 0.510000
1.213700 0.130600 0.841800 0.029206 -0.994690 -0.098453 0.350000 0.500000
1.213700 0.130600 0.841800 -0.672994 -0.093112 0.733726 0.370000 0.510000
1.213900 0.216300 0.852900 -0.674367 -0.120548 0.728446 0.370000 0.590000
1.200800 0.319000 0.861700 -0.821192 0.565844 0.073702 0.350000 0.680000
1.210300 0.317800 0.870200 0.027924 0.993622 0.109012 0.350000 0.680000
1.210300 0.317800 0.870200 -0.669759 -0.147771 0.727683 0.370000 0.680000
1.277900 0.173300 -0.004900 -0.326945 0.930845 0.163121 0.180000 0.890000
1.192000 0.146700 0.106600 0.000031 1.000000 0.000000 0.250000 0.840000
1.296100 0.173300 0.115700 -0.412305 0.910306 -0.035981 0.250000 0.910000
1.206400 0.173300 -0.057300 -0.026368 0.953459 0.300302 0.140000 0.840000
1.214800 0.211900 -0.153500 -0.032380 0.928556 0.369732 0.080000 0.840000
1.088500 0.211900 -0.091300 0.312662 0.897885 0.309854 0.130000 0.780000
1.126800 0.173300 -0.018100 0.293497 0.930876 0.217414 0.180000 0.800000
1.257300 0.173300 0.231300 -0.293710 0.930815 -0.217444 0.320000 0.890000
1.177700 0.173300 0.270500 0.026307 0.953429 -0.300363 0.350000 0.840000
1.169300 0.211900 0.366700 0.032319 0.928556 -0.369732 0.420000 0.840000
1.055700 0.211900 0.283400 0.361980 0.897763 -0.250893 0.370000 0.770000
1.106100 0.173300 0.218000 0.327006 0.930815 -0.163121 0.320000 0.800000
1.026800 0.211900 0.092100 0.530564 0.846339 0.046480 0.250000 0.750000
1.087900 0.173300 0.097500 0.412305 0.910306 0.036042 0.250000 0.790000
-1.037000 0.000000 0.737200 0.227424 -0.038514 0.973022 0.830000 0.800000
-1.004100 0.000000 0.719600 0.682699 -0.038545 0.729637 0.790000 0.800000
-1.035800 0.131700 0.742100 0.228095 -0.038331 0.972869 0.830000 0.930000
-1.075600 0.131700 0.740900 -0.288461 -0.038392 0.956694 0.870000 0.930000
-1.074200 0.000000 0.736000 -0.289743 -0.038728 0.956298 0.870000 0.800000
-1.109600 0.131700 0.719800 -0.729118 -0.038545 0.683248 0.910000 0.930000
-1.105900 0.000000 0.716300 -0.729820 -0.038850 0.682516 0.910000 0.800000
-1.128400 0.131700 0.684600 -0.973174 -0.038789 0.226691 0.950000 0.930000
-1.123400 0.000000 0.683400 -0.973327 -0.038942 0.226051 0.950000 0.800000
-1.127100 0.131700 0.644700 -0.956175 -0.038911 -0.290170 0.990000 0.930000
-1.122200 0.000000 0.646200 -0.956298 -0.038789 -0.289743 0.990000 0.800000
-1.106000 0.131700 0.610800 -0.682852 -0.038697 -0.729484 0.950000 0.930000
-1.102500 0.000000 0.614500 -0.682882 -0.038667 -0.729453 0.950000 0.800000
-1.070800 0.131700 0.592000 -0.226691 -0.038759 -0.973174 0.910000 0.930000
-1.069700 0.000000 0.597000 -0.226844 -0.038759 -0.973144 0.910000 0.800000
-1.030900 0.131700 0.593300 0.290780 -0.038911 -0.955962 0.870000 0.930000
-1.032400 0.000000 0.598200 0.290353 -0.038789 -0.956114 0.870000 0.800000
-0.997100 0.131700 0.614400 0.729942 -0.038697 -0.682363 0.830000 0.930000
-1.000800 0.000000 0.617900 0.729301 -0.038392 -0.683096 0.830000 0.800000
-0.978300 0.131700 0.649600 0.973144 -0.038331 -0.226875 0.790000 0.930000
-0.983200 0.000000 0.650700 0.972900 -0.038026 -0.227973 0.790000 0.800000
-0.979600 0.131700 0.689400 0.956511 -0.037965 0.289102 0.750000 0.930000
-0.984400 0.000000 0.688000 0.956206 -0.038270 0.290139 0.750000 0.800000
-1.000600 0.131700 0.723300 0.683432 -0.038270 0.728996 0.790000 0.930000
-1.035800 0.131700 0.742100 -0.000000 1.000000 -0.000000 0.400000 0.680000
-1.000600 0.131700 0.723300 -0.000000 1.000000 -0.000000 0.380000 0.660000
-1.038000 0.131700 0.732800 -0.000000 1.000000 -0.000000 0.410000 0.660000
-1.075600 0.131700 0.740900 -0.000000 1.000000 0.000000 0.440000 0.680000
-1.072900 0.131700 0.731700 0.000000 1.000000 -0.000000 0.440000 0.670000
-1.109600 0.131700 0.719800 0.000000 1.000000 -0.000000 0.470000 0.680000
-1.102600 0.131700 0.713200 0.000000 1.000000 -0.000000 0.460000 0.660000
-1.119100 0.131700 0.682400 0.000000 1.000000 0.000000 0.480000 0.650000
-1.128400 0.131700 0.684600 0.000000 1.000000 -0.000000 0.490000 0.660000
-1.117900 0.131700 0.647500 0.000000 1.000000 0.000000 0.480000 0.630000
-1.127100 0.131700 0.644700 0.000000 1.000000 0.000000 0.500000 0.630000
-1.099500 0.131700 0.617800 0.000000 1.000000 0.000000 0.480000 0.650000
-1.106000 0.131700 0.610800 0.000000 1.000000 0.000000 0.490000 0.660000
-1.068700 0.131700 0.601300 0.000000 1.000000 0.000000 0.460000 0.660000
-1.070800 0.131700 0.592000 0.000000 1.000000 0.000000 0.470000 0.680000
-1.033700 0.131700 0.602500 -0.000000 1.000000 0.000000 0.440000 0.670000
-1.030900 0.131700 0.593300 -0.000000 1.000000 0.000000 0.440000 0.680000
-1.004100 0.131700 0.620900 -0.000000 1.000000 0.000000 0.410000 0.660000
-0.997100 0.131700 0.614400 -0.000000 1.000000 0.000000 0.400000 0.680000
-0.987600 0.131700 0.651700 -0.000000 1.000000 0.000000 0.390000 0.650000
-0.978300 0.131700 0.649600 -0.000000 1.000000 0.000000 0.380000 0.660000
-0.988700 0.131700 0.686700 -0.000000 1.000000 -0.000000 0.390000 0.630000
-0.979600 0.131700 0.689400 -0.000000 1.000000 -0.000000 0.380000 0.630000
-1.007200 0.131700 0.716300 0.000000 1.000000 -0.000000 0.390000 0.650000
-1.038000 0.131700 0.732800 -0.218787 0.075350 -0.972839 0.830000 0.790000
-1.007200 0.131700 0.716300 -0.687582 0.075137 -0.722160 0.790000 0.790000
-1.022600 0.099200 0.724600 -0.467360 0.130161 -0.874416 0.810000 0.750000
-1.072900 0.099200 0.731700 0.288919 0.093509 -0.952757 0.870000 0.750000
-1.072900 0.131700 0.731700 0.290048 0.000000 -0.956999 0.870000 0.790000
-1.102600 0.131700 0.713200 0.721976 0.076876 -0.687582 0.910000 0.790000
-1.110800 0.099200 0.697800 0.873989 0.132817 -0.467422 0.930000 0.750000
-1.119100 0.131700 0.682400 0.972839 0.077578 -0.217994 0.950000 0.790000
-1.117900 0.099200 0.647500 0.952727 0.094455 0.288736 0.990000 0.750000
-1.117900 0.131700 0.647500 0.956938 0.000000 0.290262 0.990000 0.790000
-1.099500 0.131700 0.617800 0.688467 0.077151 0.721122 0.950000 0.790000
-1.084100 0.099200 0.609600 0.467757 0.133152 0.873745 0.930000 0.750000
-1.068700 0.131700 0.601300 0.217994 0.077700 0.972839 0.910000 0.790000
-1.033700 0.099200 0.602500 -0.289285 0.093966 0.952605 0.870000 0.750000
-1.033700 0.131700 0.602500 -0.290933 0.000000 0.956725 0.870000 0.790000
-1.004100 0.131700 0.620900 -0.721305 0.075381 0.688467 0.830000 0.790000
-0.995800 0.099200 0.636300 -0.874172 0.130497 0.467696 0.810000 0.750000
-0.987600 0.131700 0.651700 -0.972839 0.075503 0.218757 0.790000 0.790000
-0.988700 0.099200 0.686700 -0.952635 0.093020 -0.289499 0.750000 0.750000
-0.988700 0.131700 0.686700 -0.956786 0.000000 -0.290750 0.750000 0.790000
-0.988700 0.099200 0.686700 -0.000000 1.000000 0.000000 0.400000 0.630000
-1.117900 0.099200 0.647500 -0.000000 1.000000 0.000000 0.480000 0.630000
-1.022600 0.099200 0.724600 -0.000000 1.000000 0.000000 0.400000 0.650000
-1.084100 0.099200 0.609600 -0.000000 1.000000 0.000000 0.470000 0.650000
-0.995800 0.099200 0.636300 -0.000000 1.000000 0.000000 0.400000 0.650000
-1.033700 0.099200 0.602500 -0.000000 1.000000 0.000000 0.440000 0.660000
-1.110800 0.099200 0.697800 -0.000000 1.000000 0.000000 0.470000 0.650000
-1.072900 0.099200 0.731700 -0.000000 1.000000 0.000000 0.440000 0.660000
-1.031500 0.120700 0.588400 0.246925 -0.386425 -0.888638 0.980000 0.720000
-1.026100 0.127600 0.586900 -0.632188 0.343790 -0.694368 1.000000 0.720000
-1.031500 0.120700 0.588400 -0.632188 0.343790 -0.694368 0.980000 0.730000
-1.030900 0.131700 0.593300 -0.632188 0.343790 -0.694368 1.000000 0.750000
-1.120600 0.000300 0.869000 -0.118839 -0.798120 -0.590625 0.830000 0.800000
-1.128900 0.022700 0.840400 -0.174963 -0.614704 -0.769066 0.790000 0.800000
-0.992800 0.004800 0.837200 -0.118809 -0.797815 -0.591021 0.830000 0.930000
-1.001700 0.028800 0.806600 -0.174841 -0.614917 -0.768944 0.790000 0.930000
-1.134600 0.056900 0.826900 -0.253304 -0.138737 -0.957366 0.750000 0.800000
-1.007800 0.065500 0.792100 -0.253456 -0.139195 -0.957274 0.750000 0.930000
-1.136000 0.093800 0.832000 -0.274178 0.371502 -0.886990 0.790000 0.800000
-1.009300 0.105000 0.797500 -0.273873 0.372814 -0.886532 0.790000 0.930000
-1.132900 0.123500 0.854300 -0.231117 0.783227 -0.577136 0.830000 0.800000
-1.006000 0.136700 0.821500 -0.230476 0.784204 -0.576067 0.830000 0.930000
-1.126100 0.138000 0.888000 -0.135899 0.984649 -0.109317 0.870000 0.800000
-0.998700 0.152200 0.857500 -0.136143 0.984558 -0.109897 0.870000 0.930000
-1.117400 0.133400 0.923900 -0.014801 0.920591 0.390179 0.910000 0.800000
-0.989400 0.147300 0.896000 -0.014893 0.920652 0.390057 0.910000 0.930000
-1.109100 0.110900 0.952500 0.100040 0.609363 0.786523 0.950000 0.800000
-0.980500 0.123200 0.926600 0.100375 0.608844 0.786889 0.950000 0.930000
-1.103500 0.076700 0.966100 0.178411 0.134404 0.974700 0.990000 0.800000
-0.974500 0.086600 0.941100 0.178381 0.134495 0.974700 0.990000 0.930000
-1.102000 0.039800 0.961000 0.198737 -0.377758 0.904294 0.950000 0.800000
-0.972900 0.047100 0.935700 0.198767 -0.378033 0.904172 0.950000 0.930000
-1.105100 0.010100 0.938600 0.186071 -0.604175 0.774773 0.910000 0.800000
-0.976200 0.015400 0.911700 0.186377 -0.605274 0.773858 0.910000 0.930000
-0.992800 0.004800 0.837200 0.971457 0.072114 -0.225987 0.400000 0.680000
-1.001700 0.028800 0.806600 0.971457 0.072114 -0.225987 0.380000 0.660000
-0.992600 0.013700 0.840900 0.971457 0.072114 -0.225987 0.410000 0.660000
-0.984500 0.009300 0.874500 0.971749 0.071647 -0.224878 0.440000 0.670000
-0.992800 0.004800 0.837200 0.971749 0.071647 -0.224878 0.400000 0.680000
-0.992600 0.013700 0.840900 0.971749 0.071647 -0.224878 0.410000 0.660000
-0.983500 -0.000100 0.875700 0.971460 0.074600 -0.225169 0.440000 0.680000
-0.992800 0.004800 0.837200 0.971460 0.074600 -0.225169 0.400000 0.680000
-0.984500 0.009300 0.874500 0.971460 0.074600 -0.225169 0.440000 0.670000
-0.978100 0.022900 0.906100 0.970722 0.074097 -0.228492 0.460000 0.660000
-0.983500 -0.000100 0.875700 0.970722 0.074097 -0.228492 0.440000 0.680000
-0.984500 0.009300 0.874500 0.970722 0.074097 -0.228492 0.440000 0.670000
-0.976200 0.015400 0.911700 0.970536 0.074859 -0.229035 0.470000 0.680000
-0.983500 -0.000100 0.875700 0.970536 0.074859 -0.229035 0.440000 0.680000
-0.978100 0.022900 0.906100 0.970536 0.074859 -0.229035 0.460000 0.660000
-0.975200 0.050700 0.927100 0.970187 0.073297 -0.231009 0.480000 0.650000
-0.976200 0.015400 0.911700 0.970187 0.073297 -0.231009 0.470000 0.680000
-0.978100 0.022900 0.906100 0.970187 0.073297 -0.231009 0.460000 0.660000
-0.972900 0.047100 0.935700 0.970666 0.072510 -0.229238 0.490000 0.660000
-0.976200 0.015400 0.911700 0.970666 0.072510 -0.229238 0.470000 0.680000
-0.975200 0.050700 0.927100 0.970666 0.072510 -0.229238 0.480000 0.650000
-0.976500 0.085300 0.931900 0.972442 0.070833 -0.222083 0.480000 0.630000
-0.972900 0.047100 0.935700 0.970794 0.070589 -0.229163 0.490000 0.660000
-0.975200 0.050700 0.927100 0.970580 0.070528 -0.230171 0.480000 0.650000
-0.974500 0.086600 0.941100 0.972533 0.070803 -0.221595 0.500000 0.630000
-0.981800 0.117400 0.919100 0.972460 0.072195 -0.221607 0.480000 0.650000
-0.974500 0.086600 0.941100 0.972460 0.072195 -0.221607 0.500000 0.630000
-0.976500 0.085300 0.931900 0.972460 0.072195 -0.221607 0.480000 0.630000
-0.980500 0.123200 0.926600 0.972161 0.070890 -0.223335 0.490000 0.660000
-0.974500 0.086600 0.941100 0.972161 0.070890 -0.223335 0.500000 0.630000
-0.981800 0.117400 0.919100 0.972161 0.070890 -0.223335 0.480000 0.650000
-0.989600 0.138400 0.892300 0.971539 0.073450 -0.225206 0.460000 0.660000
-0.980500 0.123200 0.926600 0.971539 0.073450 -0.225206 0.490000 0.660000
-0.981800 0.117400 0.919100 0.971539 0.073450 -0.225206 0.480000 0.650000
-0.989400 0.147300 0.896000 0.971502 0.072045 -0.225819 0.470000 0.680000
-0.980500 0.123200 0.926600 0.971502 0.072045 -0.225819 0.490000 0.660000
-0.989600 0.138400 0.892300 0.971502 0.072045 -0.225819 0.460000 0.660000
-0.997800 0.142700 0.858600 0.971831 0.066317 -0.226081 0.440000 0.670000
-0.989400 0.147300 0.896000 0.971374 0.071657 -0.226356 0.470000 0.680000
-0.989600 0.138400 0.892300 0.971313 0.072390 -0.226386 0.460000 0.660000
-0.998700 0.152200 0.857500 0.971892 0.065798 -0.225990 0.440000 0.680000
-1.004200 0.129200 0.827100 0.971955 0.065933 -0.225734 0.410000 0.660000
-0.998700 0.152200 0.857500 0.971955 0.065933 -0.225734 0.440000 0.680000
-0.997800 0.142700 0.858600 0.971955 0.065933 -0.225734 0.440000 0.670000
-1.006000 0.136700 0.821500 0.972134 0.065167 -0.225186 0.400000 0.680000
-0.998700 0.152200 0.857500 0.972134 0.065167 -0.225186 0.440000 0.680000
-1.004200 0.129200 0.827100 0.972134 0.065167 -0.225186 0.410000 0.660000
-1.007100 0.101400 0.806100 0.972533 0.066948 -0.222929 0.390000 0.650000
-1.006000 0.136700 0.821500 0.972533 0.066948 -0.222929 0.400000 0.680000
-1.004200 0.129200 0.827100 0.972533 0.066948 -0.222929 0.410000 0.660000
-1.009300 0.105000 0.797500 0.972981 0.066179 -0.221199 0.380000 0.660000
-1.006000 0.136700 0.821500 0.972981 0.066179 -0.221199 0.400000 0.680000
-1.007100 0.101400 0.806100 0.972981 0.066179 -0.221199 0.390000 0.650000
-1.005700 0.066800 0.801300 0.970672 0.068331 -0.230415 0.390000 0.630000
-1.009300 0.105000 0.797500 0.972777 0.067873 -0.221503 0.380000 0.660000
-1.007100 0.101400 0.806100 0.972991 0.068056 -0.220557 0.390000 0.650000
-1.007800 0.065500 0.792100 0.970611 0.068667 -0.230628 0.380000 0.630000
-1.000400 0.034700 0.814100 0.971435 0.072329 -0.225898 0.390000 0.650000
-1.001700 0.028800 0.806600 0.971496 0.072542 -0.225532 0.380000 0.660000
-0.992600 0.013700 0.840900 0.971476 0.072829 -0.225677 0.410000 0.660000
-1.001700 0.028800 0.806600 0.971476 0.072829 -0.225677 0.380000 0.660000
-1.000400 0.034700 0.814100 0.971476 0.072829 -0.225677 0.390000 0.650000
-0.992600 0.013700 0.840900 0.028809 0.924314 0.380474 0.830000 0.790000
-1.000400 0.034700 0.814100 0.143895 0.613880 0.776147 0.790000 0.790000
-1.115600 0.015600 0.855300 0.128391 0.797540 0.589404 0.810000 0.750000
-1.103500 0.000700 0.902400 -0.056337 0.990204 -0.127659 0.870000 0.750000
-0.984500 0.009300 0.874500 -0.098727 0.988250 -0.116581 0.870000 0.790000
-0.978100 0.022900 0.906100 -0.187353 0.787713 -0.586810 0.910000 0.790000
-1.095700 0.028200 0.944400 -0.176641 0.604389 -0.776818 0.930000 0.750000
-0.975200 0.050700 0.927100 -0.229957 0.376385 -0.897458 0.950000 0.790000
-1.095600 0.076700 0.959700 -0.173223 -0.133396 -0.975799 0.990000 0.750000
-0.976500 0.085300 0.931900 -0.215705 -0.137455 -0.966704 0.990000 0.790000
-0.981800 0.117400 0.919100 -0.131169 -0.612934 -0.779138 0.950000 0.790000
-1.104800 0.119300 0.933600 -0.037172 -0.791436 -0.610096 0.930000 0.750000
-0.989600 0.138400 0.892300 -0.015992 -0.924039 -0.381939 0.910000 0.790000
-1.116800 0.134100 0.886500 0.141270 -0.984130 0.107089 0.870000 0.750000
-0.997800 0.142700 0.858600 0.098972 -0.988098 0.117649 0.870000 0.790000
-1.004200 0.129200 0.827100 0.199957 -0.787469 0.582995 0.830000 0.790000
-1.124700 0.106700 0.844400 0.268319 -0.598041 0.755211 0.810000 0.750000
-1.007100 0.101400 0.806100 0.243049 -0.375103 0.894528 0.790000 0.790000
-1.124800 0.058200 0.829200 0.258492 0.140416 0.955748 0.750000 0.750000
-1.005700 0.066800 0.801300 0.216468 0.137669 0.966521 0.750000 0.790000
-1.124800 0.058200 0.829200 0.971267 0.070485 -0.227317 0.400000 0.630000
-1.095600 0.076700 0.959700 0.971267 0.070485 -0.227317 0.480000 0.630000
-1.115600 0.015600 0.855300 0.971267 0.070485 -0.227317 0.400000 0.650000
-1.104800 0.119300 0.933600 0.971267 0.070485 -0.227317 0.470000 0.650000
-1.124700 0.106700 0.844400 0.971567 0.068980 -0.226494 0.400000 0.650000
-1.104800 0.119300 0.933600 0.971567 0.068980 -0.226494 0.470000 0.650000
-1.124800 0.058200 0.829200 0.971567 0.068980 -0.226494 0.400000 0.630000
-1.124700 0.106700 0.844400 0.971703 0.067591 -0.226328 0.400000 0.650000
-1.116800 0.134100 0.886500 0.971703 0.067591 -0.226328 0.440000 0.660000
-1.104800 0.119300 0.933600 0.971703 0.067591 -0.226328 0.470000 0.650000
-1.115600 0.015600 0.855300 0.971454 0.069545 -0.226803 0.400000 0.650000
-1.095600 0.076700 0.959700 0.971454 0.069545 -0.226803 0.480000 0.630000
-1.095700 0.028200 0.944400 0.971454 0.069545 -0.226803 0.470000 0.650000
-1.115600 0.015600 0.855300 0.971289 0.071199 -0.227000 0.400000 0.650000
-1.095700 0.028200 0.944400 0.971289 0.071199 -0.227000 0.470000 0.650000
-1.103500 0.000700 0.902400 0.971289 0.071199 -0.227000 0.440000 0.660000
-0.877200 0.000000 0.967700 0.330485 -0.036531 0.943083 0.750000 0.800000
-0.842100 0.000000 0.955400 0.563433 -0.038057 0.825251 0.790000 0.800000
-0.876900 0.131700 0.972700 0.330271 -0.036592 0.943144 0.750000 0.930000
-0.839200 0.131700 0.959500 0.563066 -0.038240 0.825495 0.790000 0.930000
-0.817800 0.000000 0.927100 0.900723 -0.038514 0.432661 0.830000 0.800000
-0.813200 0.131700 0.929300 0.900815 -0.038453 0.432478 0.830000 0.930000
-0.810900 0.000000 0.890400 0.996277 -0.038209 -0.076998 0.870000 0.800000
-0.805900 0.131700 0.890100 0.996338 -0.038331 -0.076327 0.870000 0.930000
-0.823300 0.000000 0.855300 0.824610 -0.038362 -0.564348 0.910000 0.800000
-0.819100 0.131700 0.852400 0.825159 -0.038667 -0.563555 0.910000 0.930000
-0.851600 0.000000 0.831000 0.432722 -0.038728 -0.900662 0.950000 0.800000
-0.849400 0.131700 0.826400 0.431776 -0.038392 -0.901151 0.950000 0.930000
-0.888200 0.000000 0.824100 -0.076662 -0.038331 -0.996307 0.990000 0.800000
-0.888600 0.131700 0.819100 -0.076785 -0.038270 -0.996307 0.990000 0.930000
-0.923300 0.000000 0.836500 -0.563677 -0.038453 -0.825068 0.950000 0.800000
-0.926200 0.131700 0.832300 -0.563768 -0.038453 -0.825007 0.950000 0.930000
-0.947600 0.000000 0.864700 -0.900418 -0.038606 -0.433271 0.910000 0.800000
-0.952200 0.131700 0.862600 -0.900754 -0.038423 -0.432539 0.910000 0.930000
-0.954500 0.000000 0.901400 -0.982055 -0.037263 -0.184759 0.870000 0.800000
-0.959600 0.131700 0.901800 -0.981933 -0.037446 -0.185339 0.870000 0.930000
-0.946300 0.131700 0.939400 0.000000 1.000000 -0.000000 0.400000 0.680000
-0.916100 0.131700 0.965400 0.000000 1.000000 -0.000000 0.380000 0.660000
-0.938400 0.131700 0.934000 0.000000 1.000000 -0.000000 0.410000 0.660000
-0.950000 0.131700 0.901000 0.000000 1.000000 0.000000 0.440000 0.670000
-0.959600 0.131700 0.901800 0.000000 1.000000 -0.000000 0.440000 0.680000
-0.943600 0.131700 0.866700 0.000000 1.000000 0.000000 0.460000 0.660000
-0.952200 0.131700 0.862600 0.000000 1.000000 0.000000 0.470000 0.680000
-0.920800 0.131700 0.840200 0.000000 1.000000 -0.000000 0.480000 0.650000
-0.926200 0.131700 0.832300 0.000000 1.000000 -0.000000 0.490000 0.660000
-0.887800 0.131700 0.828600 0.000000 1.000000 0.000000 0.480000 0.630000
-0.888600 0.131700 0.819100 0.000000 1.000000 0.000000 0.500000 0.630000
-0.853500 0.131700 0.835100 -0.000000 1.000000 0.000000 0.480000 0.650000
-0.849400 0.131700 0.826400 -0.000000 1.000000 0.000000 0.490000 0.660000
-0.827000 0.131700 0.857800 -0.000000 1.000000 -0.000000 0.460000 0.660000
-0.819100 0.131700 0.852400 -0.000000 1.000000 -0.000000 0.470000 0.680000
-0.815400 0.131700 0.890800 -0.000000 1.000000 0.000000 0.440000 0.670000
-0.805900 0.131700 0.890100 -0.000000 1.000000 0.000000 0.440000 0.680000
-0.821900 0.131700 0.925100 -0.000000 1.000000 -0.000000 0.410000 0.660000
-0.813200 0.131700 0.929300 -0.000000 1.000000 -0.000000 0.400000 0.680000
-0.844600 0.131700 0.951600 0.000000 1.000000 -0.000000 0.390000 0.650000
-0.839200 0.131700 0.959500 -0.000000 1.000000 -0.000000 0.380000 0.660000
-0.877600 0.131700 0.963200 0.000000 1.000000 -0.000000 0.390000 0.630000
-0.876900 0.131700 0.972700 -0.000000 1.000000 -0.000000 0.380000 0.630000
-0.911900 0.131700 0.956800 0.000000 1.000000 -0.000000 0.390000 0.650000
-0.938400 0.131700 0.934000 0.828394 0.075503 -0.555010 0.830000 0.790000
-0.911900 0.131700 0.956800 0.423444 0.076205 -0.902676 0.790000 0.790000
-0.925200 0.099200 0.945400 0.646260 0.131077 -0.751732 0.810000 0.750000
-0.950000 0.099200 0.901000 0.992706 0.093539 -0.075808 0.870000 0.750000
-0.950000 0.131700 0.901000 0.997040 0.000000 -0.076693 0.870000 0.790000
-0.943600 0.131700 0.866700 0.902676 0.076205 0.423444 0.910000 0.790000
-0.932200 0.099200 0.853400 0.751732 0.131077 0.646260 0.930000 0.750000
-0.920800 0.131700 0.840200 0.555010 0.075503 0.828394 0.950000 0.790000
-0.887800 0.099200 0.828600 0.075106 0.092807 0.992828 0.990000 0.750000
-0.887800 0.131700 0.828600 0.075289 0.000000 0.997131 0.990000 0.790000
-0.853500 0.131700 0.835100 -0.423566 0.074557 0.902768 0.950000 0.790000
-0.840200 0.099200 0.846400 -0.645741 0.129795 0.752403 0.930000 0.750000
-0.827000 0.131700 0.857800 -0.827998 0.075076 0.555650 0.910000 0.790000
-0.815400 0.099200 0.890800 -0.992828 0.092807 0.075106 0.870000 0.750000
-0.815400 0.131700 0.890800 -0.997131 0.000000 0.075289 0.870000 0.790000
-0.821900 0.131700 0.925100 -0.902768 0.074557 -0.423566 0.830000 0.790000
-0.833200 0.099200 0.938400 -0.752403 0.129795 -0.645741 0.810000 0.750000
-0.844600 0.131700 0.951600 -0.555650 0.075076 -0.827998 0.790000 0.790000
-0.877600 0.099200 0.963200 -0.075808 0.093539 -0.992706 0.750000 0.750000
-0.877600 0.131700 0.963200 -0.076693 0.000000 -0.997040 0.750000 0.790000
-0.877600 0.099200 0.963200 0.000000 1.000000 -0.000000 0.400000 0.630000
-0.887800 0.099200 0.828600 0.000000 1.000000 -0.000000 0.480000 0.630000
-0.925200 0.099200 0.945400 0.000000 1.000000 -0.000000 0.400000 0.650000
-0.840200 0.099200 0.846400 0.000000 1.000000 -0.000000 0.470000 0.650000
-0.833200 0.099200 0.938400 -0.000000 1.000000 -0.000000 0.400000 0.650000
-0.815400 0.099200 0.890800 0.000000 1.000000 -0.000000 0.440000 0.660000
-0.932200 0.099200 0.853400 -0.000000 1.000000 -0.000000 0.470000 0.650000
-0.950000 0.099200 0.901000 -0.000000 1.000000 -0.000000 0.440000 0.660000
-1.062500 0.389100 1.010400 0.805841 0.109104 -0.581927 0.630000 0.500000
-1.076400 0.548800 1.021100 0.805750 0.108646 -0.582171 0.630000 0.750000
-1.018100 0.388400 1.079600 0.836879 0.108524 -0.536454 0.500000 0.500000
-1.112600 0.389000 0.948600 0.772240 0.108982 -0.625874 0.750000 0.500000
-1.126400 0.548700 0.959300 0.772729 0.108646 -0.625355 0.750000 0.750000
-1.031900 0.548100 1.090200 0.836299 0.107944 -0.537492 0.500000 0.750000
-0.868100 0.205700 1.086600 0.304605 0.145634 -0.941252 0.500000 0.500000
-0.795700 0.230700 1.113900 0.459883 0.188879 -0.867611 0.630000 0.500000
-0.813800 0.056600 1.081100 0.327891 0.141850 -0.933988 0.500000 0.750000
-0.742100 0.081600 1.110900 0.461623 0.188971 -0.866695 0.630000 0.750000
-0.735200 0.251100 1.166400 0.584979 0.230750 -0.777490 0.750000 0.500000
-0.680900 0.102000 1.160900 0.566607 0.235450 -0.789605 0.750000 0.750000
-1.199700 0.190800 -0.397500 -0.624683 -0.222358 0.748527 0.750000 0.940000
-1.146800 0.190800 -0.381000 0.088382 -0.222327 0.970946 0.800000 0.940000
-1.209800 0.259900 -0.385400 -0.624714 -0.222419 0.748466 0.750000 1.000000
-1.241100 0.259900 -0.445200 -0.971007 -0.222388 0.087405 0.800000 1.000000
-1.225400 0.190800 -0.446600 -0.971007 -0.222327 0.087558 0.800000 0.940000
-1.221000 0.259900 -0.509600 -0.748680 -0.222419 -0.624470 0.860000 1.000000
-1.208900 0.190800 -0.499500 -0.748589 -0.222541 -0.624531 0.860000 0.940000
-1.161300 0.259900 -0.540900 -0.088107 -0.222358 -0.970946 0.920000 1.000000
-1.159800 0.190800 -0.525200 -0.087161 -0.222694 -0.970977 0.920000 0.940000
-1.096800 0.259900 -0.520800 0.624561 -0.223029 -0.748436 0.970000 1.000000
-1.107000 0.190800 -0.508700 0.624134 -0.222999 -0.748772 0.970000 0.940000
-1.065500 0.259900 -0.461100 0.970855 -0.222724 -0.088412 0.920000 1.000000
-1.081200 0.190800 -0.459600 0.970885 -0.222694 -0.087985 0.920000 0.940000
-1.085600 0.259900 -0.396600 0.748222 -0.223060 0.624805 0.860000 1.000000
-1.097700 0.190800 -0.406800 0.748711 -0.222816 0.624287 0.860000 0.940000
-1.145400 0.259900 -0.365300 0.087710 -0.222755 0.970916 0.800000 1.000000
-1.209800 0.259900 -0.385400 0.333293 0.854060 -0.399304 0.190000 0.560000
-1.145400 0.259900 -0.365300 -0.046663 0.853999 -0.518113 0.190000 0.500000
-1.153300 0.206200 -0.453100 0.000000 1.000000 0.000000 0.280000 0.530000
-1.241100 0.259900 -0.445200 0.518113 0.853999 -0.046663 0.190000 0.500000
-1.221000 0.259900 -0.509600 0.399396 0.854060 0.333171 0.190000 0.560000
-1.161300 0.259900 -0.540900 0.046999 0.854030 0.518052 0.190000 0.500000
-1.096800 0.259900 -0.520800 -0.333110 0.854060 0.399457 0.190000 0.560000
-1.065500 0.259900 -0.461100 -0.518052 0.854030 0.046999 0.190000 0.500000
-1.085600 0.259900 -0.396600 -0.399365 0.854060 -0.333201 0.190000 0.560000
1.129700 0.000000 0.582500 0.723808 -0.037263 -0.688955 0.750000 0.800000
1.104000 0.000000 0.555500 0.520188 -0.038331 -0.853175 0.790000 0.800000
1.134200 0.131700 0.580100 0.722892 -0.036866 -0.689962 0.750000 0.930000
1.106600 0.131700 0.551200 0.519303 -0.038026 -0.853725 0.790000 0.930000
1.068200 0.000000 0.545000 0.022004 -0.038026 -0.999023 0.830000 0.800000
1.068300 0.131700 0.540000 0.022797 -0.038270 -0.998993 0.830000 0.930000
1.032000 0.000000 0.553900 -0.479690 -0.038331 -0.876583 0.870000 0.800000
1.029600 0.131700 0.549400 -0.479171 -0.038484 -0.876858 0.870000 0.930000
1.005000 0.000000 0.579600 -0.853847 -0.038331 -0.519089 0.910000 0.800000
1.000700 0.131700 0.577000 -0.853664 -0.038423 -0.519364 0.910000 0.930000
0.994600 0.000000 0.615400 -0.998993 -0.038392 -0.022217 0.950000 0.800000
0.989500 0.131700 0.615200 -0.998962 -0.038789 -0.023743 0.950000 0.930000
1.003400 0.000000 0.651600 -0.876675 -0.038575 0.479507 0.990000 0.800000
0.998900 0.131700 0.654000 -0.876919 -0.038697 0.479049 0.990000 0.930000
1.029100 0.000000 0.678500 -0.519608 -0.038728 0.853511 0.950000 0.800000
1.026500 0.131700 0.682900 -0.519486 -0.038759 0.853572 0.950000 0.930000
1.064900 0.000000 0.689000 -0.281198 -0.037568 0.958892 0.910000 0.800000
1.064700 0.131700 0.694100 -0.281137 -0.037538 0.958922 0.910000 0.930000
3 0 1 2
3 0 3 1
3 4 3 0
3 4 5 3
3 3 5 6
3 5 7 6
3 8 7 5
3 9 7 8
3 9 10 7
3 9 11 10
3 12 11 9
3 13 11 12
3 13 14 11
3 13 2 14
3 15 2 13
3 0 2 15
3 16 17 18
3 12 19 20
3 21 19 12
3 20 22 23
3 24 25 23
3 23 25 26
3 27 28 29
3 26 30 31
3 32 33 31
3 31 33 34
3 35 36 37
3 34 38 8
3 39 40 41
3 42 39 41
3 43 39 42
3 44 43 42
3 45 43 44
3 46 45 44
3 47 45 46
3 48 47 46
3 49 47 48
3 50 49 48
3 51 49 50
3 52 51 50
3 53 51 52
3 54 53 52
3 55 53 54
3 56 55 54
3 57 55 56
3 58 57 56
3 59 57 58
3 60 59 58
3 61 59 60
3 62 61 60
3 40 61 62
3 41 40 62
3 63 64 65
3 63 66 64
3 64 66 67
3 66 68 67
3 69 68 66
3 69 70 68
3 68 70 71
3 72 68 73
3 73 74 72
3 75 74 73
3 74 76 72
3 76 77 72
3 76 78 77
3 79 78 76
3 78 79 80
3 80 81 78
3 82 81 80
3 78 81 77
3 77 81 83
3 84 68 77
3 77 68 72
3 73 68 85
3 65 64 86
3 87 88 89
3 90 87 89
3 91 87 90
3 92 91 90
3 93 91 92
3 94 93 92
3 95 93 94
3 96 95 94
3 97 95 96
3 98 97 96
3 99 97 98
3 100 99 98
3 101 99 100
3 102 101 100
3 103 101 102
3 104 103 102
3 105 103 104
3 106 105 104
3 107 105 106
3 108 107 106
3 109 107 108
3 110 109 108
3 88 109 110
3 89 88 110
3 111 112 113
3 111 114 112
3 111 115 114
3 111 116 115
3 111 117 116
3 111 118 117
3 111 119 118
3 111 120 119
3 111 121 120
3 111 122 121
3 111 123 122
3 111 113 123
3 124 125 126
3 127 128 129
3 130 131 132
3 130 131 133
3 134 135 136
3 134 136 137
3 138 134 137
3 139 138 137
3 140 138 139
3 141 140 139
3 141 139 142
3 143 141 142
3 144 143 142
3 145 143 144
3 146 145 144
3 146 144 147
3 148 146 147
3 149 148 147
3 150 148 149
3 151 150 149
3 151 149 152
3 153 151 152
3 136 153 152
3 135 153 136
3 154 155 156
3 154 156 157
3 157 156 158
3 159 157 158
3 160 157 159
3 156 155 161
3 162 163 164
3 164 165 162
3 166 165 164
3 164 163 167
3 167 163 168
3 168 163 169
3 170 171 172
3 170 172 173
3 173 172 174
3 175 173 174
3 176 173 175
3 172 171 177
3 178 179 180
3 178 181 179
3 182 181 178
3 182 183 181
3 184 183 182
3 184 185 183
3 186 187 188
3 189 187 186
3 190 187 189
3 189 191 190
3 192 191 189
3 188 187 193
3 194 195 196
3 194 197 198
3 199 197 194
3 199 200 201
3 201 200 202
3 202 200 203
3 204 198 205
3 205 198 206
3 198 197 206
3 207 208 209
3 210 208 207
3 211 208 210
3 210 212 211
3 211 213 208
3 208 213 214
3 208 214 215
3 209 208 215
3 209 215 216
3 215 214 217
3 218 219 220
3 10 218 220
3 11 218 10
3 11 221 218
3 222 221 11
3 222 223 221
3 221 223 224
3 221 224 219
3 221 219 218
3 219 225 220
3 226 225 219
3 226 7 225
3 227 7 226
3 227 226 228
3 228 226 229
3 228 229 230
3 230 229 231
3 224 230 231
3 219 224 231
3 231 229 219
3 219 229 226
3 7 10 225
3 225 10 220
3 223 230 224
3 232 233 234
3 235 232 234
3 236 232 235
3 237 236 235
3 238 236 237
3 239 238 237
3 240 238 239
3 241 240 239
3 242 240 241
3 243 242 241
3 244 242 243
3 245 244 243
3 246 244 245
3 247 246 245
3 248 246 247
3 249 248 247
3 250 248 249
3 251 250 249
3 252 250 251
3 253 252 251
3 254 252 253
3 255 254 253
3 233 254 255
3 234 233 255
3 256 257 258
3 256 258 259
3 259 258 260
3 259 260 261
3 261 260 262
3 263 261 262
3 264 261 263
3 265 264 263
3 266 264 265
3 267 266 265
3 268 266 267
3 269 268 267
3 270 268 269
3 271 270 269
3 272 270 271
3 273 272 271
3 274 272 273
3 275 274 273
3 276 274 275
3 277 276 275
3 278 276 277
3 279 278 277
3 257 278 279
3 258 257 279
3 280 281 282
3 283 280 282
3 284 280 283
3 285 284 283
3 285 283 286
3 287 285 286
3 288 287 286
3 289 287 288
3 290 289 288
3 290 288 291
3 292 290 291
3 293 292 291
3 294 292 293
3 295 294 293
3 295 293 296
3 297 295 296
3 298 297 296
3 299 297 298
3 281 299 298
3 281 298 282
3 300 301 302
3 300 303 301
3 304 303 300
3 304 305 303
3 302 301 306
3 302 306 307
3 80 79 308
3 309 310 311
3 312 313 314
3 314 313 315
3 313 316 315
3 315 316 317
3 316 318 317
3 317 318 319
3 318 320 319
3 319 320 321
3 320 322 321
3 321 322 323
3 322 324 323
3 323 324 325
3 324 326 325
3 325 326 327
3 326 328 327
3 327 328 329
3 328 330 329
3 329 330 331
3 330 332 331
3 331 332 333
3 334 335 336
3 337 338 339
3 340 341 342
3 343 344 345
3 346 347 348
3 349 350 351
3 352 353 354
3 355 356 357
3 358 356 355
3 359 360 361
3 362 363 364
3 365 366 367
3 368 369 370
3 371 372 373
3 374 372 371
3 375 376 377
3 378 379 380
3 381 382 383
3 384 385 386
3 387 388 389
3 390 388 387
3 391 390 387
3 392 390 391
3 393 394 395
3 396 397 398
3 399 396 398
3 400 396 399
3 401 400 399
3 401 399 402
3 403 401 402
3 404 403 402
3 405 403 404
3 406 405 404
3 406 404 407
3 408 406 407
3 409 408 407
3 410 408 409
3 411 410 409
3 411 409 412
3 413 411 412
3 414 413 412
3 415 413 414
3 397 415 414
3 397 414 398
3 416 417 418
3 416 419 417
3 420 421 422
3 423 424 425
3 426 427 428
3 429 430 431
3 432 433 434
3 434 433 435
3 433 436 435
3 435 436 437
3 436 438 437
3 437 438 439
3 438 440 439
3 439 440 441
3 440 442 441
3 441 442 443
3 442 444 443
3 443 444 445
3 444 446 445
3 445 446 447
3 446 448 447
3 447 448 449
3 448 450 449
3 449 450 451
3 452 453 454
3 455 452 454
3 456 452 455
3 457 456 455
3 458 456 457
3 459 458 457
3 460 458 459
3 461 460 459
3 462 460 461
3 463 462 461
3 464 462 463
3 465 464 463
3 466 464 465
3 467 466 465
3 468 466 467
3 469 468 467
3 470 468 469
3 471 470 469
3 472 470 471
3 473 472 471
3 474 472 473
3 475 474 473
3 453 474 475
3 454 453 475
3 476 477 478
3 479 476 478
3 480 476 479
3 481 480 479
3 481 479 482
3 483 481 482
3 484 483 482
3 485 483 484
3 486 485 484
3 486 484 487
3 488 486 487
3 489 488 487
3 490 488 489
3 491 490 489
3 491 489 492
3 493 491 492
3 494 493 492
3 495 493 494
3 477 495 494
3 477 494 478
3 496 497 498
3 496 499 497
3 500 499 496
3 500 501 499
3 498 497 502
3 498 502 503
3 504 505 506
3 504 507 505
3 505 507 508
3 506 505 509
3 510 511 512
3 512 511 513
3 511 514 513
3 513 514 515
3 516 517 518
3 519 516 518
3 520 516 519
3 521 520 519
3 522 520 521
3 523 522 521
3 524 522 523
3 525 524 523
3 526 524 525
3 527 526 525
3 528 526 527
3 529 528 527
3 530 528 529
3 531 530 529
3 517 530 531
3 518 517 531
3 532 533 534
3 535 532 534
3 536 535 534
3 537 536 534
3 538 537 534
3 539 538 534
3 540 539 534
3 533 540 534
3 541 542 543
3 543 542 544
3 542 545 544
3 544 545 546
3 545 547 546
3 546 547 548
3 547 549 548
3 548 549 550
3 549 551 550
3 550 551 552
3 551 553 552
3 552 553 554
3 553 555 554
3 554 555 556
3 555 557 556
3 556 557 558
