ply
format ascii 1.0
comment Created by Blender 3.0.1 - www.blender.org
element vertex 24
property float x
property float y
property float z
property float nx
property float ny
property float nz
property float u
property float v
element face 24
property list uchar uint vertex_indices
end_header
0.640000 -0.016000 1.664000 0.000000 1.000000 -0.000000 0.250000 0.630000
1.280000 -0.016000 1.344000 0.000000 1.000000 -0.000000 0.000000 0.500000
0.640000 -0.016000 1.344000 0.000000 1.000000 -0.000000 0.250000 0.500000
0.000000 -0.016000 1.664000 0.000000 1.000000 -0.000000 0.500000 0.630000
0.000000 -0.016000 1.984000 0.000000 1.000000 -0.000000 0.500000 0.750000
-0.640000 -0.016000 1.664000 0.000000 1.000000 -0.000000 0.750000 0.630000
-0.640000 -0.016000 1.984000 0.000000 1.000000 -0.000000 0.750000 0.750000
-0.640000 -0.016000 2.624000 0.000000 1.000000 -0.000000 0.750000 1.000000
-1.280000 -0.016000 2.624000 0.000000 1.000000 -0.000000 1.000000 1.000000
-1.280000 -0.016000 1.344000 0.000000 1.000000 -0.000000 1.000000 0.500000
-0.640000 -0.016000 1.344000 0.000000 1.000000 -0.000000 0.750000 0.500000
0.000000 -0.016000 1.344000 0.000000 1.000000 -0.000000 0.500000 0.500000
0.640000 -0.016000 2.624000 0.000000 1.000000 -0.000000 0.250000 1.000000
0.640000 -0.016000 1.984000 0.000000 1.000000 -0.000000 0.250000 0.750000
0.000000 -0.016000 2.624000 0.000000 1.000000 -0.000000 0.500000 1.000000
1.280000 -0.016000 2.624000 0.000000 1.000000 -0.000000 0.000000 1.000000
-0.368000 0.960000 1.446800 0.983796 0.000000 -0.179290 0.960000 0.500000
-0.325100 0.960000 1.682200 0.983796 0.000000 -0.179290 0.850000 0.500000
-0.368000 0.000000 1.446800 0.983796 0.000000 -0.179290 0.960000 0.000000
-0.325100 0.000000 1.682200 0.983796 0.000000 -0.179290 0.850000 0.000000
0.368000 0.000000 1.446800 -0.983796 0.000000 -0.179290 0.960000 0.000000
0.325100 0.000000 1.682200 -0.983796 0.000000 -0.179290 0.850000 0.000000
0.368000 0.960000 1.446800 -0.983796 0.000000 -0.179290 0.960000 0.500000
0.325100 0.960000 1.682200 -0.983796 -0.000000 -0.179290 0.850000 0.500000
3 0 1 2
3 0 2 3
3 4 0 3
3 5 4 3
3 6 4 5
3 7 4 6
3 7 6 8
3 8 6 9
3 9 6 5
3 9 5 10
3 5 3 10
3 10 3 11
3 3 2 11
3 12 13 14
3 15 13 12
3 15 1 13
3 13 1 0
3 13 0 4
3 14 13 4
3 14 4 7
3 16 17 18
3 18 17 19
3 20 21 22
3 22 21 23
