ply
format ascii 1.0
comment Created by Blender 3.0.1 - www.blender.org
element vertex 43
property float x
property float y
property float z
property float nx
property float ny
property float nz
property float u
property float v
element face 36
property list uchar uint vertex_indices
end_header
-0.173200 0.210000 0.100000 -0.000000 1.000000 -0.000000 0.920000 0.180000
-0.100000 0.210000 0.173200 -0.000000 1.000000 -0.000000 0.820000 0.340000
0.000000 0.210000 -0.000000 -0.000000 1.000000 -0.000000 0.560000 0.010000
-0.200000 0.210000 -0.000000 0.000000 1.000000 0.000000 0.990000 0.010000
0.000000 0.210000 0.200000 0.000000 1.000000 -0.000000 0.560000 0.390000
0.100000 0.210000 0.173200 -0.000000 1.000000 -0.000000 0.320000 0.340000
0.173200 0.210000 0.100000 0.000000 1.000000 -0.000000 0.200000 0.220000
0.200000 0.210000 -0.000000 0.000000 1.000000 -0.000000 0.130000 0.010000
0.200000 0.210000 -0.000000 -0.000000 1.000000 0.000000 0.990000 0.010000
0.173200 0.210000 -0.100000 -0.000000 1.000000 0.000000 0.920000 0.180000
0.100000 0.210000 -0.173200 -0.000000 1.000000 -0.000000 0.820000 0.340000
0.000000 0.210000 -0.200000 0.000000 1.000000 -0.000000 0.560000 0.390000
-0.100000 0.210000 -0.173200 -0.000000 1.000000 -0.000000 0.320000 0.340000
-0.173200 0.210000 -0.100000 0.000000 1.000000 -0.000000 0.200000 0.220000
-0.200000 0.210000 -0.000000 0.000000 1.000000 0.000000 0.130000 0.010000
-0.173200 0.000000 0.100000 -0.865993 0.000000 0.500015 0.500000 0.570000
-0.100000 0.000000 0.173200 -0.500015 0.000000 0.865993 0.660000 0.570000
-0.173200 0.210000 0.100000 -0.865993 0.000000 0.500015 0.500000 0.990000
-0.200000 0.210000 -0.000000 -1.000000 0.000000 0.000000 0.340000 0.990000
-0.200000 0.000000 0.000000 -1.000000 0.000000 0.000000 0.340000 0.570000
-0.173200 0.210000 -0.100000 -0.865993 0.000000 -0.500015 0.170000 0.990000
-0.173200 -0.000000 -0.100000 -0.865993 0.000000 -0.500015 0.170000 0.570000
-0.100000 0.210000 -0.173200 -0.707083 0.000000 -0.707083 0.010000 0.990000
-0.100000 -0.000000 -0.173200 -0.707083 0.000000 -0.707083 0.010000 0.570000
-0.100000 0.210000 0.173200 -0.500015 0.000000 0.865993 0.660000 0.990000
0.000000 0.000000 0.200000 0.000000 0.000000 1.000000 0.830000 0.570000
0.000000 0.210000 0.200000 0.000000 0.000000 1.000000 0.830000 0.990000
0.100000 0.000000 0.173200 0.258858 0.000000 0.965911 0.990000 0.570000
0.100000 0.210000 0.173200 0.258858 0.000000 0.965911 0.990000 0.990000
0.100000 0.000000 0.173200 0.707083 0.000000 0.707083 0.010000 0.570000
0.173200 0.000000 0.100000 0.865993 0.000000 0.500015 0.170000 0.570000
0.100000 0.210000 0.173200 0.707083 0.000000 0.707083 0.010000 0.990000
0.173200 0.210000 0.100000 0.865993 0.000000 0.500015 0.170000 0.990000
0.200000 0.000000 0.000000 1.000000 0.000000 0.000000 0.340000 0.570000
0.200000 0.210000 -0.000000 1.000000 0.000000 0.000000 0.340000 0.990000
0.173200 -0.000000 -0.100000 0.865993 0.000000 -0.500015 0.500000 0.570000
0.173200 0.210000 -0.100000 0.865993 0.000000 -0.500015 0.500000 0.990000
0.100000 -0.000000 -0.173200 0.500015 0.000000 -0.865993 0.660000 0.570000
0.100000 0.210000 -0.173200 0.500015 0.000000 -0.865993 0.660000 0.990000
0.000000 -0.000000 -0.200000 0.000000 0.000000 -1.000000 0.830000 0.570000
0.000000 0.210000 -0.200000 0.000000 0.000000 -1.000000 0.830000 0.990000
-0.100000 -0.000000 -0.173200 -0.258858 0.000000 -0.965911 0.990000 0.570000
-0.100000 0.210000 -0.173200 -0.258858 0.000000 -0.965911 0.990000 0.990000
3 0 1 2
3 3 0 2
3 1 4 2
3 4 5 2
3 5 6 2
3 6 7 2
3 8 9 2
3 9 10 2
3 10 11 2
3 11 12 2
3 12 13 2
3 13 14 2
3 15 16 17
3 18 15 17
3 19 15 18
3 20 19 18
3 21 19 20
3 22 21 20
3 23 21 22
3 17 16 24
3 16 25 24
3 24 25 26
3 25 27 26
3 26 27 28
3 29 30 31
3 31 30 32
3 30 33 32
3 32 33 34
3 33 35 34
3 34 35 36
3 35 37 36
3 36 37 38
3 37 39 38
3 38 39 40
3 39 41 40
3 40 41 42
