ply
format ascii 1.0
comment Created by Blender 3.0.1 - www.blender.org
element vertex 141
property float x
property float y
property float z
property float nx
property float ny
property float nz
property float u
property float v
element face 141
property list uchar uint vertex_indices
end_header
-0.581700 0.640000 1.404300 0.423597 0.000000 -0.905820 0.250000 0.500000
-0.805700 0.640000 1.223700 0.563158 0.018983 -0.826106 0.380000 0.500000
-0.581700 1.280000 1.404300 0.393689 0.015015 -0.919095 0.250000 1.000000
-0.581700 0.000000 1.404300 0.452467 0.015015 -0.891629 0.250000 0.000000
-0.368000 0.640000 1.446800 0.195044 0.000000 -0.980773 0.160000 0.500000
-0.368000 0.000000 1.446800 0.195044 0.000000 -0.980773 0.160000 0.000000
-0.796200 0.000000 1.197700 0.566668 0.026093 -0.823511 0.380000 0.000000
-1.074800 0.640000 1.074800 0.710746 0.008911 -0.703360 0.500000 0.500000
-1.074800 1.280000 1.074800 0.732658 0.014832 -0.680410 0.500000 1.000000
-1.210400 1.280000 0.821400 0.834193 0.003388 -0.551408 0.620000 1.000000
-1.209100 0.640000 0.817400 0.833369 0.003601 -0.552660 0.620000 0.500000
-1.404300 1.280000 0.581700 0.898587 -0.015503 -0.438490 0.750000 1.000000
-1.404300 0.640000 0.581700 0.880062 0.000000 -0.474837 0.750000 0.500000
-1.491800 0.640000 0.296700 0.980804 -0.006165 -0.194769 0.870000 0.500000
-1.404300 0.000000 0.581700 0.874660 0.005463 -0.484664 0.750000 0.000000
-1.202300 0.000000 0.810600 0.832728 0.014710 -0.553453 0.620000 0.000000
-1.074800 0.000000 1.074800 0.691855 0.005493 -0.722007 0.500000 0.000000
1.074800 0.640000 1.074800 -0.678274 0.000000 -0.734764 0.500000 0.500000
0.736600 0.640000 1.263600 -0.583605 0.012452 -0.811914 0.660000 0.500000
1.074800 1.280000 1.074800 -0.697165 0.016144 -0.716697 0.500000 1.000000
1.404300 1.280000 0.581700 -0.923856 0.000000 -0.382672 0.250000 1.000000
1.404300 0.640000 0.581700 -0.923856 0.000000 -0.382672 0.250000 0.500000
1.074800 0.000000 1.074800 -0.661306 0.014252 -0.749962 0.500000 0.000000
0.721000 0.000000 1.241100 -0.605853 0.042695 -0.794397 0.660000 0.000000
0.581700 0.000000 1.404300 -0.494613 0.017426 -0.868923 0.750000 0.000000
0.581700 0.640000 1.404300 -0.450056 0.000000 -0.892972 0.750000 0.500000
0.368000 0.000000 1.446800 -0.195044 0.000000 -0.980773 0.840000 0.000000
0.368000 0.640000 1.446800 -0.195044 0.000000 -0.980773 0.840000 0.500000
0.368000 0.960000 1.446800 -0.195044 0.000000 -0.980773 0.840000 0.750000
0.581700 1.280000 1.404300 -0.396252 0.019745 -0.917905 0.750000 1.000000
0.000000 1.280000 1.520000 -0.195074 0.000000 -0.980773 1.000000 1.000000
0.000000 0.960000 1.520000 -0.195091 -0.000000 -0.980785 1.000000 0.750000
0.000000 1.280000 1.520000 -0.195091 -0.000000 -0.980785 1.000000 1.000000
0.368000 0.960000 1.446800 -0.195091 -0.000000 -0.980785 0.840000 0.750000
-1.074800 0.640000 -1.074800 0.803400 0.000000 0.595386 0.500000 0.500000
-1.140100 0.640000 -0.859000 0.864040 0.000000 0.503372 0.410000 0.500000
-1.074800 -0.000000 -1.074800 0.803400 0.000000 0.595386 0.500000 0.000000
-0.581700 -0.000000 -1.404300 0.364910 0.019868 0.930815 0.750000 0.000000
-0.581700 0.640000 -1.404300 0.382611 -0.000031 0.923887 0.750000 0.500000
-1.074800 1.280000 -1.074800 0.803400 0.000000 0.595386 0.500000 1.000000
-0.581700 1.280000 -1.404300 0.355754 -0.012329 0.934477 0.750000 1.000000
-0.320000 0.640000 -1.456300 0.148320 -0.005921 0.988891 0.870000 0.500000
0.000000 1.280000 -1.473900 0.099918 -0.022614 0.994720 1.000000 1.000000
0.000000 0.640000 -1.473900 0.054903 0.000000 0.998474 1.000000 0.500000
-0.322900 0.260000 -1.455800 0.148076 0.027894 0.988556 0.870000 0.200000
0.000000 -0.000000 -1.473900 0.083041 0.033784 0.995941 1.000000 0.000000
0.000000 0.260000 -1.473900 0.055940 0.000000 0.998413 1.000000 0.200000
-1.140100 -0.000000 -0.859000 0.864040 0.000000 0.503372 0.410000 0.000000
-1.140100 0.640000 -0.859000 0.724001 0.000000 0.689799 0.410000 0.500000
-1.404300 -0.000000 -0.581700 0.724001 0.000000 0.689799 0.250000 0.000000
-1.140100 -0.000000 -0.859000 0.724001 0.000000 0.689799 0.410000 0.000000
-1.404300 0.640000 -0.581700 0.724001 -0.000000 0.689799 0.250000 0.500000
-1.404300 -0.000000 -0.581700 0.863033 0.000000 0.505112 0.250000 0.000000
-1.404300 0.640000 -0.581700 0.863033 0.000000 0.505112 0.250000 0.500000
-1.491800 -0.000000 -0.296700 0.981017 -0.001373 0.193823 0.130000 0.000000
-1.491800 0.640000 -0.296700 0.980834 -0.006073 0.194678 0.130000 0.500000
-1.505900 0.224000 -0.137700 0.995453 -0.000549 0.095065 0.060000 0.170000
-1.520000 0.640000 -0.000000 0.995422 0.000946 0.095340 0.000000 0.500000
-1.520000 1.280000 -0.000000 0.985290 -0.034120 0.167272 0.000000 1.000000
-1.404300 1.280000 -0.581700 0.880825 -0.017701 0.473098 0.250000 1.000000
-1.140100 1.280000 -0.859000 0.864040 0.000000 0.503372 0.410000 1.000000
-1.140100 1.280000 -0.859000 0.724001 0.000000 0.689799 0.410000 1.000000
1.074800 0.640000 -1.074800 -0.731956 0.003815 0.681326 0.500000 0.500000
0.856400 0.640000 -1.176200 -0.534257 0.017151 0.845119 0.400000 0.500000
1.074800 -0.000000 -1.074800 -0.702902 0.027131 0.710746 0.500000 0.000000
1.074800 1.280000 -1.074800 -0.751671 0.033418 0.658650 0.500000 1.000000
0.581700 1.280000 -1.404300 -0.371410 0.007782 0.928434 0.250000 1.000000
0.581700 0.640000 -1.404300 -0.430067 -0.000031 0.902768 0.250000 0.500000
0.320000 0.640000 -1.456300 -0.148320 -0.005921 0.988891 0.130000 0.500000
0.000000 1.280000 -1.473900 -0.099918 -0.022614 0.994720 0.000000 1.000000
0.000000 0.640000 -1.473900 -0.054903 0.000000 0.998474 0.000000 0.500000
0.322900 0.260000 -1.455800 -0.148076 0.027894 0.988556 0.130000 0.200000
0.581700 -0.000000 -1.404300 -0.448042 0.043458 0.892911 0.250000 0.000000
0.000000 -0.000000 -1.473900 -0.083041 0.033784 0.995941 0.000000 0.000000
0.000000 0.260000 -1.473900 -0.055940 0.000000 0.998413 0.000000 0.200000
0.832000 -0.000000 -1.141400 -0.512680 0.066073 0.856014 0.400000 0.000000
1.404300 0.640000 -0.581700 -0.914487 0.003754 0.404553 0.750000 0.500000
1.157600 0.640000 -0.860400 -0.851161 0.012543 0.524735 0.590000 0.500000
1.404300 -0.000000 -0.581700 -0.912473 0.007172 0.409009 0.750000 0.000000
1.174100 1.280000 -0.862400 -0.842128 0.015961 0.538987 0.590000 1.000000
1.404300 1.280000 -0.581700 -0.915464 0.005036 0.402295 0.750000 1.000000
1.431100 0.640000 -0.349000 -0.983123 0.004547 0.182806 0.850000 0.500000
1.427400 -0.000000 -0.349000 -0.983978 0.005676 0.178137 0.850000 0.000000
1.520000 0.000000 0.000000 -0.967345 0.003754 0.253304 1.000000 0.000000
1.520000 0.640000 -0.000000 -0.969909 0.004120 0.243385 1.000000 0.500000
1.439200 1.280000 -0.349000 -0.981597 0.008240 0.190619 0.850000 1.000000
1.520000 1.280000 -0.000000 -0.974212 0.000000 0.225532 1.000000 1.000000
1.145000 -0.000000 -0.861000 -0.859218 0.009033 0.511460 0.580000 0.000000
1.520000 0.640000 -0.000000 -0.980773 0.000000 -0.195074 0.000000 0.500000
1.404300 0.000000 0.581700 -0.923856 0.000000 -0.382672 0.250000 0.000000
1.520000 1.280000 -0.000000 -0.980773 0.000000 -0.195074 0.000000 1.000000
1.520000 0.000000 0.000000 -0.980773 0.000000 -0.195074 0.000000 0.000000
-0.368000 0.960000 1.446800 0.195091 0.000000 -0.980785 0.160000 0.750000
0.000000 1.280000 1.520000 0.195091 0.000000 -0.980785 0.000000 1.000000
0.000000 0.960000 1.520000 0.195091 0.000000 -0.980785 0.000000 0.750000
-0.368000 0.960000 1.446800 0.195044 0.000000 -0.980773 0.160000 0.750000
0.000000 1.280000 1.520000 0.195074 0.000000 -0.980773 0.000000 1.000000
-1.520000 1.280000 -0.000000 0.985290 -0.034120 -0.167272 1.000000 1.000000
-1.520000 0.640000 -0.000000 0.995453 0.000702 -0.095157 1.000000 0.500000
-1.491800 0.000000 0.296700 0.980956 -0.001038 -0.194128 0.870000 0.000000
-1.505900 0.224000 0.140400 0.995483 -0.000427 -0.094852 0.940000 0.170000
-1.505900 0.000000 0.148400 0.995483 -0.003357 -0.094607 0.940000 0.000000
-1.505900 0.000000 0.148400 0.995511 -0.003378 -0.094587 0.940000 0.000000
-1.520000 0.000000 0.000000 0.995511 -0.003378 -0.094587 1.000000 0.000000
-1.505900 0.224000 0.140400 0.995511 -0.003378 -0.094587 0.940000 0.170000
-1.520000 0.000000 0.000000 0.995331 -0.002167 -0.096469 1.000000 0.000000
-1.520000 0.224000 -0.000000 0.994964 0.000000 -0.099918 1.000000 0.170000
-1.505900 -0.000000 -0.148400 0.995483 -0.004517 0.094607 0.060000 0.000000
-1.505900 -0.000000 -0.148400 0.995506 -0.004518 0.094587 0.060000 0.000000
-1.505900 0.224000 -0.137700 0.995506 -0.004518 0.094587 0.060000 0.170000
-1.520000 0.000000 0.000000 0.995506 -0.004518 0.094587 0.000000 0.000000
-1.520000 0.000000 0.000000 0.995239 -0.002899 0.097140 0.000000 0.000000
-1.520000 0.224000 -0.000000 0.994781 0.000000 0.101840 0.000000 0.170000
0.581700 1.280000 1.404300 -0.000000 1.000000 -0.000000 0.010000 0.980000
0.000000 1.280000 1.520000 -0.000000 1.000000 -0.000000 0.020000 0.980000
1.984300 1.280000 4.750400 -0.000000 1.000000 -0.000000 0.010000 0.990000
1.074800 1.280000 1.074800 0.000000 1.000000 -0.000000 0.010000 0.980000
4.790500 1.280000 1.944200 -0.000000 1.000000 -0.000000 0.000000 0.980000
1.404300 1.280000 0.581700 -0.000000 1.000000 -0.000000 0.010000 0.980000
1.520000 1.280000 -0.000000 -0.000000 1.000000 -0.000000 0.010000 0.980000
4.790500 1.280000 -2.024400 -0.000000 1.000000 -0.000000 0.000000 0.960000
1.439200 1.280000 -0.349000 0.000000 1.000000 -0.000000 0.010000 0.970000
1.404300 1.280000 -0.581700 0.000000 1.000000 -0.000000 0.010000 0.970000
1.174100 1.280000 -0.862400 0.000000 1.000000 -0.000000 0.010000 0.970000
1.074800 1.280000 -1.074800 0.000000 1.000000 -0.000000 0.010000 0.970000
1.984300 1.280000 -4.830600 0.000000 1.000000 -0.000000 0.010000 0.950000
0.581700 1.280000 -1.404300 -0.000000 1.000000 -0.000000 0.010000 0.970000
0.000000 1.280000 -1.473900 0.000000 1.000000 -0.000000 0.020000 0.970000
-1.984300 1.280000 -4.830600 0.000000 1.000000 -0.000000 0.020000 0.950000
-0.581700 1.280000 -1.404300 -0.000000 1.000000 -0.000000 0.020000 0.970000
-1.074800 1.280000 -1.074800 0.000000 1.000000 -0.000000 0.020000 0.970000
-4.790500 1.280000 -2.024400 -0.000000 1.000000 -0.000000 0.030000 0.960000
-1.140100 1.280000 -0.859000 -0.000000 1.000000 -0.000000 0.020000 0.970000
-1.404300 1.280000 -0.581700 -0.000000 1.000000 -0.000000 0.020000 0.970000
-1.520000 1.280000 -0.000000 -0.000000 1.000000 -0.000000 0.020000 0.980000
-4.790500 1.280000 1.944200 0.000000 1.000000 -0.000000 0.020000 0.980000
-1.404300 1.280000 0.581700 0.000000 1.000000 -0.000000 0.020000 0.980000
-1.210400 1.280000 0.821400 0.000000 1.000000 -0.000000 0.020000 0.980000
-1.074800 1.280000 1.074800 0.000000 1.000000 -0.000000 0.020000 0.980000
-1.984300 1.280000 4.750400 0.000000 1.000000 -0.000000 0.020000 0.990000
-0.581700 1.280000 1.404300 -0.000000 1.000000 -0.000000 0.020000 0.980000
3 0 1 2
3 0 3 1
3 4 3 0
3 5 3 4
3 1 3 6
3 1 6 7
3 8 1 7
3 8 7 9
3 9 7 10
3 9 10 11
3 11 10 12
3 12 13 11
3 12 14 13
3 12 10 14
3 14 10 15
3 10 16 15
3 7 16 10
3 7 6 16
3 17 18 19
3 19 20 17
3 17 20 21
3 17 21 22
3 17 22 18
3 18 22 23
3 24 18 23
3 25 18 24
3 24 26 25
3 25 26 27
3 28 25 27
3 28 29 25
3 28 30 29
3 31 32 33
3 34 35 36
3 37 34 36
3 38 34 37
3 38 39 34
3 40 39 38
3 40 38 41
3 42 40 41
3 43 42 41
3 38 44 41
3 37 44 38
3 45 44 37
3 46 44 45
3 36 35 47
3 48 49 50
3 51 49 48
3 52 53 54
3 54 53 55
3 55 56 54
3 57 56 55
3 57 55 58
3 58 55 59
3 59 55 53
3 59 53 60
3 61 51 48
3 34 60 35
3 39 60 34
3 62 63 64
3 65 63 62
3 66 63 65
3 67 63 66
3 66 68 67
3 69 68 66
3 70 68 69
3 71 67 68
3 72 67 71
3 73 72 71
3 74 73 71
3 64 63 75
3 63 72 75
3 67 72 63
3 76 77 78
3 76 79 77
3 80 79 76
3 76 81 80
3 76 78 81
3 81 78 82
3 83 81 82
3 84 81 83
3 84 85 81
3 86 85 84
3 80 81 85
3 78 77 87
3 62 87 77
3 64 87 62
3 62 77 65
3 65 77 79
3 21 88 89
3 22 21 89
3 20 90 21
3 21 90 88
3 89 88 91
3 92 93 94
3 95 2 96
3 95 0 2
3 4 0 95
3 97 13 98
3 11 13 97
3 13 14 99
3 99 100 13
3 101 100 99
3 102 103 104
3 100 105 106
3 98 100 106
3 13 100 98
3 29 18 25
3 19 18 29
3 2 1 8
3 54 56 107
3 108 109 110
3 111 56 112
3 112 56 57
3 113 114 115
3 113 115 116
3 116 115 117
3 118 116 117
3 119 118 117
3 119 117 120
3 121 119 120
3 122 121 120
3 123 122 120
3 124 123 120
3 125 124 120
3 126 124 125
3 126 125 127
3 127 125 128
3 129 127 128
3 130 129 128
3 130 128 131
3 132 130 131
3 133 132 131
3 133 131 134
3 134 131 135
3 136 134 135
3 137 136 135
3 138 137 135
3 139 138 135
3 140 138 139
3 140 139 114
3 114 139 115
