ply
format ascii 1.0
comment Created by Blender 3.0.1 - www.blender.org
element vertex 4
property float x
property float y
property float z
property float nx
property float ny
property float nz
property float u
property float v
element face 2
property list uchar uint vertex_indices
end_header
0.873600 -0.611800 -2.400000 -0.000000 0.000000 1.000000 0.500000 0.010000
0.873600 1.251800 -2.400000 -0.000000 0.000000 1.000000 0.500000 0.990000
-0.873600 -0.611800 -2.400000 -0.000000 0.000000 1.000000 0.000000 0.010000
-0.873600 1.251800 -2.400000 -0.000000 0.000000 1.000000 0.000000 0.990000
3 0 1 2
3 2 1 3
